<svg width="43" height="40" viewBox="0 0 43 40" version="1.1" xmlns="http://www.w3.org/2000/svg" xmlns:xlink="http://www.w3.org/1999/xlink">
<title>disco</title>
<desc>Created using Figma</desc>
<g id="Canvas" transform="translate(1543 -5457)">
<g id="disco">
<g id="Vector">
<use xlink:href="#path0_fill" transform="translate(-1543 5457.02)" fill="#292929"/>
<use xlink:href="#path1_fill" transform="translate(-1543 5457.02)" fill="#292929"/>
<use xlink:href="#path2_fill" transform="translate(-1543 5457.02)" fill="#292929"/>
<use xlink:href="#path3_fill" transform="translate(-1543 5457.02)" fill="#292929"/>
<use xlink:href="#path4_fill" transform="translate(-1543 5457.02)" fill="#292929"/>
<use xlink:href="#path5_fill" transform="translate(-1543 5457.02)" fill="#292929"/>
<use xlink:href="#path6_fill" transform="translate(-1543 5457.02)" fill="#292929"/>
<use xlink:href="#path7_fill" transform="translate(-1543 5457.02)" fill="#292929"/>
<use xlink:href="#path8_fill" transform="translate(-1543 5457.02)" fill="#292929"/>
<use xlink:href="#path9_fill" transform="translate(-1543 5457.02)" fill="#292929"/>
<use xlink:href="#path10_fill" transform="translate(-1543 5457.02)" fill="#292929"/>
<use xlink:href="#path11_fill" transform="translate(-1543 5457.02)" fill="#292929"/>
<use xlink:href="#path12_fill" transform="translate(-1543 5457.02)" fill="#292929"/>
<use xlink:href="#path13_fill" transform="translate(-1543 5457.02)" fill="#292929"/>
<use xlink:href="#path14_fill" transform="translate(-1543 5457.02)" fill="#292929"/>
<use xlink:href="#path15_fill" transform="translate(-1543 5457.02)" fill="#292929"/>
<use xlink:href="#path16_fill" transform="translate(-1543 5457.02)" fill="#292929"/>
<use xlink:href="#path17_fill" transform="translate(-1543 5457.02)" fill="#292929"/>
</g>
</g>
</g>
<defs>
<path id="path0_fill" d="M 21.5 38.9999C 12.8173 38.9999 5.75342 32.0429 5.75342 23.4916C 5.75342 14.9403 12.8173 7.9834 21.5 7.9834C 30.1828 7.9834 37.2467 14.9403 37.2467 23.4916C 37.2467 32.0429 30.1828 38.9999 21.5 38.9999ZM 21.5 9.74794C 13.8054 9.74794 7.54508 15.9135 7.54508 23.4916C 7.54508 31.0698 13.8054 37.2353 21.5 37.2353C 29.1947 37.2353 35.455 31.0698 35.455 23.4916C 35.455 15.9135 29.1947 9.74794 21.5 9.74794Z"/>
<path id="path1_fill" d="M 21.5 38.9999C 17.338 38.9999 14.0775 32.1877 14.0775 23.4916C 14.0775 14.7956 17.338 7.9834 21.5 7.9834C 25.6621 7.9834 28.9226 14.7956 28.9226 23.4916C 28.9226 32.1877 25.6621 38.9999 21.5 38.9999ZM 21.5 9.74794C 18.8366 9.74794 15.8692 15.3922 15.8692 23.4916C 15.8692 31.591 18.8366 37.2353 21.5 37.2353C 24.1635 37.2353 27.131 31.591 27.131 23.4916C 27.131 15.3922 24.1635 9.74794 21.5 9.74794Z"/>
<path id="path2_fill" d="M 24.4723 9.74766L 18.5278 9.74766C 18.0331 9.74766 17.632 9.35262 17.632 8.86539L 17.632 6.079C 17.632 5.10583 18.4355 4.31445 19.4236 4.31445L 23.5765 4.31445C 24.5646 4.31445 25.3681 5.10583 25.3681 6.079L 25.3681 8.86539C 25.3681 9.35262 24.967 9.74766 24.4723 9.74766ZM 19.4236 7.98312L 23.5765 7.98312L 23.5765 6.079L 19.4236 6.079L 19.4236 7.98312Z"/>
<path id="path3_fill" d="M 21.5 6.0794C 21.0052 6.0794 20.6041 5.68436 20.6041 5.19713L 20.6041 0.882271C 20.6041 0.39504 21.0052 0 21.5 0C 21.9947 0 22.3958 0.39504 22.3958 0.882271L 22.3958 5.19713C 22.3958 5.68436 21.9947 6.0794 21.5 6.0794Z"/>
<path id="path4_fill" d="M 36.3508 24.3744L 6.64925 24.3744C 6.15453 24.3744 5.75342 23.9789 5.75342 23.4916C 5.75342 23.0044 6.15453 22.6099 6.64925 22.6099L 36.3508 22.6099C 36.8456 22.6099 37.2467 23.0044 37.2467 23.4916C 37.2467 23.9789 36.8456 24.3744 36.3508 24.3744Z"/>
<path id="path5_fill" d="M 34.4721 30.8495L 8.52791 30.8495C 8.03319 30.8495 7.63208 30.4545 7.63208 29.9672C 7.63208 29.48 8.03319 29.085 8.52791 29.085L 34.4721 29.085C 34.9668 29.085 35.3679 29.48 35.3679 29.9672C 35.3679 30.4545 34.9668 30.8495 34.4721 30.8495Z"/>
<path id="path6_fill" d="M 34.4721 17.8983L 8.52791 17.8983C 8.03319 17.8983 7.63208 17.5033 7.63208 17.0161C 7.63208 16.5288 8.03319 16.1338 8.52791 16.1338L 34.4721 16.1338C 34.9668 16.1338 35.3679 16.5288 35.3679 17.0161C 35.3679 17.5033 34.9668 17.8983 34.4721 17.8983Z"/>
<path id="path7_fill" d="M 21.5 38.9999C 21.0053 38.9999 20.6041 38.6048 20.6041 38.1176L 20.6041 8.86567C 20.6041 8.37844 21.0053 7.9834 21.5 7.9834C 21.9948 7.9834 22.3958 8.37844 22.3958 8.86567L 22.3958 38.1176C 22.3958 38.6048 21.9948 38.9999 21.5 38.9999Z"/>
<path id="path8_fill" d="M 42.1042 24.3744L 39.6385 24.3744C 39.1438 24.3744 38.7427 23.9794 38.7427 23.4921C 38.7427 23.0049 39.1438 22.6099 39.6385 22.6099L 42.1042 22.6099C 42.599 22.6099 43.0001 23.0049 43.0001 23.4921C 43.0001 23.9794 42.599 24.3744 42.1042 24.3744Z"/>
<path id="path9_fill" d="M 3.36156 24.3744L 0.895833 24.3744C 0.401113 24.3744 0 23.9794 0 23.4921C 0 23.0049 0.401113 22.6099 0.895833 22.6099L 3.36156 22.6099C 3.85628 22.6099 4.2574 23.0049 4.2574 23.4921C 4.2574 23.9794 3.85628 24.3744 3.36156 24.3744Z"/>
<path id="path10_fill" d="M 40.5352 32.1405C 40.421 32.1405 40.3051 32.1186 40.1927 32.0729L 37.9146 31.1437C 37.4575 30.9571 37.2405 30.441 37.4299 29.9909C 37.6189 29.5411 38.1407 29.3261 38.6005 29.5135L 40.8785 30.4428C 41.3356 30.6293 41.5526 31.1454 41.3632 31.5956C 41.2202 31.9351 40.8868 32.1405 40.5352 32.1405Z"/>
<path id="path11_fill" d="M 4.74207 17.5384C 4.62791 17.5384 4.51199 17.5165 4.39957 17.4708L 2.1215 16.5416C 1.6644 16.355 1.44744 15.8389 1.63684 15.3888C 1.82624 14.939 2.34896 14.7253 2.80737 14.9114L 5.08545 15.8407C 5.54255 16.0272 5.75951 16.5433 5.57011 16.9935C 5.42707 17.3329 5.09376 17.5384 4.74207 17.5384Z"/>
<path id="path12_fill" d="M 36.0696 38.7234C 35.8404 38.7234 35.6111 38.6372 35.4362 38.4649L 33.6926 36.7478C 33.3427 36.4031 33.3427 35.8448 33.6926 35.5002C 34.0426 35.1555 34.6095 35.1555 34.9594 35.5002L 36.7029 37.2173C 37.0529 37.562 37.0529 38.1203 36.7029 38.4649C 36.528 38.6372 36.2988 38.7234 36.0696 38.7234Z"/>
<path id="path13_fill" d="M 8.67405 11.7424C 8.44485 11.7424 8.21564 11.6563 8.04067 11.484L 6.29712 9.76681C 5.94718 9.42217 5.94718 8.86386 6.29712 8.51922C 6.64705 8.17458 7.21395 8.17458 7.56388 8.51922L 9.30743 10.2364C 9.65737 10.581 9.65737 11.1393 9.30743 11.484C 9.13247 11.6563 8.90326 11.7424 8.67405 11.7424Z"/>
<path id="path14_fill" d="M 6.9305 38.7234C 6.70129 38.7234 6.47209 38.6372 6.29712 38.4649C 5.94718 38.1203 5.94718 37.562 6.29712 37.2173L 8.04067 35.5002C 8.3906 35.1555 8.9575 35.1555 9.30743 35.5002C 9.65737 35.8448 9.65737 36.4031 9.30743 36.7478L 7.56388 38.4649C 7.38892 38.6372 7.15971 38.7234 6.9305 38.7234Z"/>
<path id="path15_fill" d="M 34.326 11.7424C 34.0968 11.7424 33.8676 11.6563 33.6926 11.484C 33.3427 11.1393 33.3427 10.581 33.6926 10.2364L 35.4362 8.51922C 35.7861 8.17458 36.353 8.17458 36.7029 8.51922C 37.0529 8.86386 37.0529 9.42217 36.7029 9.76681L 34.9594 11.484C 34.7844 11.6563 34.5552 11.7424 34.326 11.7424Z"/>
<path id="path16_fill" d="M 2.46487 32.1405C 2.11319 32.1405 1.77987 31.9351 1.63684 31.5956C 1.44744 31.1454 1.6644 30.6293 2.1215 30.4428L 4.39957 29.5135C 4.85843 29.3261 5.38027 29.5411 5.57011 29.9909C 5.75951 30.441 5.54255 30.9571 5.08545 31.1437L 2.80737 32.0729C 2.69495 32.1186 2.57904 32.1405 2.46487 32.1405Z"/>
<path id="path17_fill" d="M 38.258 17.5384C 37.9063 17.5384 37.573 17.3329 37.4299 16.9935C 37.2405 16.5433 37.4575 16.0272 37.9146 15.8407L 40.1927 14.9114C 40.6502 14.7253 41.1738 14.939 41.3632 15.3888C 41.5526 15.8389 41.3356 16.355 40.8785 16.5416L 38.6005 17.4708C 38.488 17.5165 38.3721 17.5384 38.258 17.5384Z"/>
</defs>
</svg>
