<svg width="51" height="40" viewBox="0 0 51 40" version="1.1" xmlns="http://www.w3.org/2000/svg" xmlns:xlink="http://www.w3.org/1999/xlink">
<title>K-pop</title>
<desc>Created using Figma</desc>
<g id="Canvas" transform="translate(1479 -5457)">
<g id="K-pop">
<g id="Subtract">
<use xlink:href="#path0_fill" transform="translate(-1478.72 5457.29)" fill="#292929"/>
<use xlink:href="#path1_fill" transform="translate(-1478.72 5457.29)" fill="#292929"/>
<use xlink:href="#path2_fill" transform="translate(-1478.72 5457.29)" fill="#292929"/>
<use xlink:href="#path3_fill" transform="translate(-1478.72 5457.29)" fill="#292929"/>
<use xlink:href="#path4_fill" transform="translate(-1478.72 5457.29)" fill="#292929"/>
<use xlink:href="#path5_fill" transform="translate(-1478.72 5457.29)" fill="#292929"/>
<use xlink:href="#path6_fill" transform="translate(-1478.72 5457.29)" fill="#292929"/>
<use xlink:href="#path7_fill" transform="translate(-1478.72 5457.29)" fill="#292929"/>
<use xlink:href="#path8_fill" transform="translate(-1478.72 5457.29)" fill="#292929"/>
<use xlink:href="#path9_fill" transform="translate(-1478.72 5457.29)" fill="#292929"/>
<use xlink:href="#path10_fill" transform="translate(-1478.72 5457.29)" fill="#292929"/>
<use xlink:href="#path11_fill" transform="translate(-1478.72 5457.29)" fill="#292929"/>
<use xlink:href="#path12_fill" transform="translate(-1478.72 5457.29)" fill="#292929"/>
<use xlink:href="#path13_fill" transform="translate(-1478.72 5457.29)" fill="#292929"/>
<use xlink:href="#path14_fill" transform="translate(-1478.72 5457.29)" fill="#292929"/>
<use xlink:href="#path15_fill" transform="translate(-1478.72 5457.29)" fill="#292929"/>
<use xlink:href="#path16_fill" transform="translate(-1478.72 5457.29)" fill="#292929"/>
<use xlink:href="#path17_fill" transform="translate(-1478.72 5457.29)" fill="#292929"/>
</g>
<g id="Subtract">
<use xlink:href="#path18_fill" transform="translate(-1465.49 5464.8)" fill="#292929"/>
<use xlink:href="#path19_fill" transform="translate(-1465.49 5464.8)" fill="#292929"/>
<use xlink:href="#path20_fill" transform="translate(-1465.49 5464.8)" fill="#292929"/>
</g>
</g>
</g>
<defs>
<path id="path0_fill" d="M 8.0094 0.921236L 1.36462 10.7824L 0 9.86119L 6.64478 0L 8.0094 0.921236Z"/>
<path id="path1_fill" d="M 10.3861 2.52597L 3.74133 12.3872L 2.37671 11.4659L 9.02148 1.60473L 10.3861 2.52597Z"/>
<path id="path2_fill" d="M 12.7628 4.13071L 6.11804 13.9919L 4.75342 13.0707L 11.3982 3.20947L 12.7628 4.13071Z"/>
<path id="path3_fill" d="M 6.11804 25.0081L 12.7628 34.8693L 11.3982 35.7905L 4.75342 25.9293L 6.11804 25.0081Z"/>
<path id="path4_fill" d="M 7.40552 32.0511L 10.3861 36.474L 9.02136 37.3953L 6.04089 32.9723L 7.40552 32.0511Z"/>
<path id="path5_fill" d="M 3.74133 26.6128L 6.7218 31.0363L 5.35718 31.9575L 2.37671 27.5341L 3.74133 26.6128Z"/>
<path id="path6_fill" d="M 1.36462 28.2176L 8.0094 38.0788L 6.64465 39L 0 29.1388L 1.36462 28.2176Z"/>
<path id="path7_fill" d="M 47.4608 5.43827L 50.4413 9.86119L 49.0765 10.7824L 46.0961 6.3595L 47.4608 5.43827Z"/>
<path id="path8_fill" d="M 45.4124 5.34466L 46.777 4.42342L 43.7965 0L 42.4319 0.921236L 45.4124 5.34466Z"/>
<path id="path9_fill" d="M 41.4198 1.60473L 48.0646 11.4659L 46.6998 12.3872L 40.0552 2.52597L 41.4198 1.60473Z"/>
<path id="path10_fill" d="M 42.7073 8.64724L 45.6879 13.0707L 44.3231 13.9919L 41.3427 9.56897L 42.7073 8.64724Z"/>
<path id="path11_fill" d="M 39.0431 3.20947L 42.0236 7.63289L 40.6589 8.55413L 37.6785 4.13071L 39.0431 3.20947Z"/>
<path id="path12_fill" d="M 50.4413 29.1393L 49.0767 28.2176L 46.0961 32.641L 47.4608 33.5622L 50.4413 29.1393Z"/>
<path id="path13_fill" d="M 46.777 34.5771L 45.4124 33.6558L 42.4319 38.0788L 43.7965 39L 46.777 34.5771Z"/>
<path id="path14_fill" d="M 43.7194 31.0363L 46.6998 26.6128L 48.0646 27.5346L 45.084 31.9575L 43.7194 31.0363Z"/>
<path id="path15_fill" d="M 40.0552 36.474L 43.0356 32.0511L 44.4003 32.9723L 41.4198 37.3953L 40.0552 36.474Z"/>
<path id="path16_fill" d="M 41.3427 29.4315L 44.3231 25.0081L 45.6879 25.9298L 42.7073 30.3528L 41.3427 29.4315Z"/>
<path id="path17_fill" d="M 37.6785 34.8693L 40.6589 30.4464L 42.0236 31.3676L 39.0431 35.7905L 37.6785 34.8693Z"/>
<path id="path18_fill" d="M 1.26942 5.95733C 1.24513 5.99844 1.22144 6.03955 1.19813 6.08066L 1.26673 5.96179L 1.26942 5.95733Z"/>
<path id="path19_fill" d="M 21.7819 11.1737C 21.6626 11.0202 21.5361 10.8706 21.4026 10.7265C 21.4141 10.7388 21.4255 10.7517 21.4369 10.7641C 21.5579 10.8968 21.6729 11.0335 21.7819 11.1737Z"/>
<path id="path20_fill" fill-rule="evenodd" d="M 22.0066 18.5802L 22.0032 18.5862L 21.9364 18.6853C 19.7838 21.8843 16.1314 23.9893 11.9863 23.9893C 5.36268 23.9893 8.12241e-06 18.6154 8.12241e-06 11.9949C -0.00206707 10.1747 0.393563 8.48033 1.11683 6.93255L 1.12171 6.92066C 1.21815 6.68887 1.32606 6.46599 1.45033 6.24559L 1.45716 6.24955L 1.61256 5.98209C 3.68702 2.40562 7.55531 0 11.9863 0C 18.6101 0 23.9728 5.37388 23.9728 11.9949C 23.9764 14.4372 23.2637 16.6689 22.0133 18.5689L 22.0066 18.5802ZM 20.429 17.6011L 20.4341 17.5931L 20.4389 17.5852C 21.6653 15.4629 20.979 12.7254 18.8694 11.406C 16.7173 10.0598 13.8916 10.6948 12.5579 12.8314C 10.6826 15.8354 6.7085 16.7398 3.68214 14.8468C 3.2887 14.6011 2.94264 14.3302 2.62098 14.0206L 1.89137 13.3203L 2.12281 14.3119C 3.17017 18.7997 7.19056 22.1379 11.9863 22.1379C 15.5099 22.1379 18.6144 20.336 20.429 17.6011ZM 21.5462 11.3619L 22.1641 12.1588L 22.0808 11.1484C 21.651 5.939 17.2927 1.85139 11.9863 1.85139C 7.94068 1.85139 4.44752 4.22679 2.82472 7.6631L 2.82081 7.67152L 2.81739 7.67994C 2.00721 9.69874 2.74769 12.0771 4.66944 13.2787C 6.82154 14.6249 9.6471 13.9899 10.9808 11.8532C 12.8562 8.84932 16.8303 7.94492 19.8566 9.83791C 20.5326 10.2589 21.0853 10.7666 21.5462 11.3619Z"/>
</defs>
</svg>
