<svg width="39" height="39" viewBox="0 0 39 39" version="1.1" xmlns="http://www.w3.org/2000/svg" xmlns:xlink="http://www.w3.org/1999/xlink">
<title>reggae</title>
<desc>Created using Figma</desc>
<g id="Canvas" transform="translate(1201 -5456)">
<g id="reggae">
<g id="Subtract">
<use xlink:href="#path0_fill" transform="translate(-1201 5456)" fill="#292929"/>
</g>
</g>
</g>
<defs>
<path id="path0_fill" fill-rule="evenodd" d="M 39 19.5C 39 30.2697 30.2695 39 19.5 39C 8.73049 39 0 30.2697 0 19.5C 0 8.73031 8.73049 0 19.5 0C 30.2695 0 39 8.73031 39 19.5ZM 33.3513 29.7333L 20.5595 19.0055L 20.5552 2.31256L 21.1949 2.37587C 29.888 3.22931 36.7041 10.5803 36.7069 19.495C 36.7014 23.0957 35.7022 26.3485 33.7156 29.2109L 33.3513 29.7333ZM 2.35931 18.0055C 2.75874 13.4277 4.91778 9.27667 8.43699 6.32203C 11.1981 4.01147 14.333 2.68544 17.8022 2.3679L 18.4367 2.31107L 18.4414 19.0065L 5.65731 29.7403L 5.2939 29.2104C 3.07305 25.9586 2.0217 21.9796 2.35931 18.0055ZM 7.01737 31.3644L 18.4419 21.7717L 18.446 36.6899L 17.8127 36.6346C 14.0651 36.3006 10.7175 34.8245 7.97475 32.3006C 7.80302 32.1426 7.63377 31.9801 7.46677 31.8141L 7.01737 31.3644ZM 21.1978 36.6336L 20.5644 36.6894L 20.5603 21.7642L 21.547 22.5992L 31.9896 31.3574L 31.5405 31.8076C 31.374 31.9736 31.205 32.1351 31.0337 32.2931C 28.2932 34.818 24.9453 36.2971 21.1978 36.6336Z"/>
</defs>
</svg>
