<svg width="27" height="39" viewBox="0 0 27 39" version="1.1" xmlns="http://www.w3.org/2000/svg" xmlns:xlink="http://www.w3.org/1999/xlink">
<title>tendance</title>
<desc>Created using Figma</desc>
<g id="Canvas" transform="translate(1063 -5457)">
<g id="tendance">
<g id="Vector 2 (Stroke)">
<use xlink:href="#path0_fill" transform="translate(-1063 5457)" fill="#292929"/>
</g>
</g>
</g>
<defs>
<path id="path0_fill" fill-rule="evenodd" d="M 17.2529 0.188715C 17.6056 0.451179 17.7456 0.92417 17.5953 1.34537C 16.9473 3.14551 16.759 4.46618 16.8848 5.71671C 16.9908 6.94419 17.3933 7.93406 18.0708 9.07807C 18.6796 10.1171 19.4885 11.1844 20.4183 12.4111C 21.572 13.9333 22.9119 15.7011 24.2867 17.9655C 26.8182 22.147 27.7723 27.2174 26.3132 31.3939C 24.8195 35.6698 20.9009 38.7275 14.3027 38.9895C 3.28229 39.4271 -4.40733 26.0809 2.81966 15.4227C 3.07487 15.0463 3.5457 14.8979 3.961 15.063C 4.37631 15.2281 4.62916 15.6642 4.57395 16.12C 4.36289 17.8628 4.90017 20.1266 5.9362 21.759C 6.97965 23.4031 8.25706 24.0652 9.56767 23.5578C 10.2413 23.297 10.5397 22.8923 10.685 22.3573C 10.8518 21.7434 10.8237 20.9103 10.6478 19.8515C 10.5239 19.101 10.337 18.302 10.1451 17.4817C 10.0687 17.1555 9.99163 16.8259 9.91738 16.4947C 9.65644 15.3293 9.42785 14.0924 9.42339 12.9968C 9.42339 8.67132 11.0275 4.39313 16.0816 0.219071C 16.4212 -0.0613364 16.9001 -0.0737499 17.2529 0.188715ZM 14.9874 3.96196C 12.2115 7.02454 11.3602 10.0261 11.3602 12.9968C 11.3558 13.9007 11.5509 14.9131 11.8044 16.0441C 11.8741 16.3555 11.9481 16.6721 12.0226 16.9911C 12.2189 17.8315 12.4191 18.6887 12.5568 19.5137C 12.7442 20.6418 12.8372 21.8395 12.55 22.897C 12.2414 24.0335 11.5109 24.9409 10.2478 25.43C 7.68483 26.4222 5.57273 24.8348 4.31613 22.8548C 3.6746 21.844 3.18523 20.6417 2.89455 19.4077C -0.55039 28.0706 5.78052 37.3269 14.2283 36.9915C 20.2195 36.7536 23.3219 34.0628 24.4913 30.7156C 25.6954 27.269 24.9548 22.8418 22.6443 19.0252C 21.3566 16.8921 20.064 15.1847 18.9126 13.6639C 17.9544 12.3983 17.0941 11.262 16.4161 10.1171C 15.6651 8.83675 15.1114 7.42722 14.9572 5.91163C 14.9026 5.30589 14.9109 4.65509 14.9874 3.96196Z"/>
</defs>
</svg>
