<svg width="42" height="41" viewBox="0 0 42 41" version="1.1" xmlns="http://www.w3.org/2000/svg" xmlns:xlink="http://www.w3.org/1999/xlink">
<title>vari&#195;&#169;t&#195;&#169; fran&#195;&#167;aise</title>
<desc>Created using Figma</desc>
<g id="Canvas" transform="translate(1416 -5456)">
<g id="vari&#195;&#169;t&#195;&#169; fran&#195;&#167;aise">
<g id="Vector">
<use xlink:href="#path0_fill" transform="translate(-1415 5457.02)" fill="#292929"/>
<use xlink:href="#path1_fill" transform="translate(-1415 5457.02)" fill="#292929"/>
<use xlink:href="#path2_fill" transform="translate(-1415 5457.02)" fill="#292929"/>
<use xlink:href="#path3_fill" transform="translate(-1415 5457.02)" fill="#292929"/>
<mask id="mask0_outline_out">
<rect id="mask0_outline_inv" fill="white" x="-1" y="-1" width="42" height="41" transform="translate(-1415 5457.02)"/>
<use xlink:href="#path0_fill" fill="black" transform="translate(-1415 5457.02)"/>
<use xlink:href="#path1_fill" fill="black" transform="translate(-1415 5457.02)"/>
<use xlink:href="#path2_fill" fill="black" transform="translate(-1415 5457.02)"/>
<use xlink:href="#path3_fill" fill="black" transform="translate(-1415 5457.02)"/>
</mask>
<g mask="url(#mask0_outline_out)">
<use xlink:href="#path4_stroke_2x" transform="translate(-1415 5457.02)" fill="#292929"/>
</g>
</g>
</g>
</g>
<defs>
<path id="path0_fill" d="M 39.7416 17.0772C 39.3962 15.331 38.7133 13.6766 37.7412 12.2108C 37.9931 12.145 38.2344 12.0389 38.4558 11.8916C 39.0088 11.5225 39.3302 10.9028 39.3156 10.234C 39.3012 9.56522 38.9532 8.96057 38.3855 8.61665L 36.7274 7.61115L 38.6227 6.66746C 38.8473 6.5555 38.9944 6.32969 39.0069 6.07708C 39.0195 5.82454 38.8955 5.58485 38.683 5.45089C 36.783 4.25246 34.6844 4.27249 33.8296 4.34321C 33.7748 4.28558 33.7188 4.22912 33.661 4.17449C 33.8878 3.76237 34.0091 3.29671 34.0091 2.81237C 34.0091 1.26159 32.7594 0 31.2232 0C 30.2212 0 29.3302 0.528414 28.838 1.35439C 28.5358 1.24408 28.2148 1.18629 27.8911 1.18629C 26.355 1.18629 25.1054 2.44748 25.1054 3.9978C 25.1054 4.13041 25.1144 4.26153 25.1321 4.39099C 24.2315 4.86666 23.646 5.81058 23.646 6.87995C 23.646 8.43018 24.8961 9.69137 26.4327 9.69137C 26.5114 9.69137 26.5897 9.68727 26.6676 9.68065C 27.107 11.0686 27.6489 13.5293 26.7597 15.3867C 26.2636 16.4228 25.3981 17.1333 24.114 17.5588C 23.7514 17.679 23.5541 18.073 23.6731 18.4388C 23.7921 18.8047 24.1823 19.004 24.5451 18.8838C 26.1815 18.3416 27.3452 17.3691 28.0038 15.9932C 28.5245 14.9057 29.1867 12.5032 27.7726 8.63502L 27.7399 8.54663C 27.2714 7.29033 27.6157 5.89014 28.597 5.06235C 29.0504 4.67948 29.6052 4.43641 30.2015 4.3593C 30.9427 4.26382 31.697 4.44744 32.3261 4.87667C 32.5878 5.0551 32.8187 5.269 33.0133 5.51373C 33.2808 5.84882 33.4728 6.22727 33.5838 6.63916C 33.698 7.06255 33.7248 7.49288 33.6632 7.91974C 33.6123 8.27762 33.5013 8.6202 33.3332 8.9381C 33.1692 9.24819 33.2595 9.63303 33.5439 9.83589C 34.0987 10.2316 34.6207 10.6746 35.0972 11.1548C 35.2696 11.327 35.4438 11.5128 35.6143 11.7064C 37.0123 13.2988 37.9708 15.2504 38.3862 17.3501C 38.5262 18.0578 38.6042 18.7793 38.6183 19.4943C 38.6256 19.8747 38.9335 20.1778 39.3088 20.1778C 39.3134 20.1778 39.3181 20.1778 39.3227 20.1777C 39.7041 20.1701 40.0074 19.8519 39.9999 19.4668C 39.9846 18.6697 39.8977 17.8656 39.7416 17.0772ZM 32.509 3.38116C 31.7374 3.01019 30.877 2.86646 30.0266 2.97597C 29.1677 3.08699 28.3668 3.43863 27.7108 3.99259C 26.4767 5.03381 25.9299 6.68489 26.2357 8.28101C 25.5543 8.18379 25.0281 7.59333 25.0281 6.87971C 25.0281 6.216 25.4754 5.64808 26.1159 5.49891C 26.3147 5.45263 26.483 5.31993 26.5758 5.13662C 26.6685 4.95331 26.6762 4.73791 26.5968 4.54821C 26.5243 4.37475 26.4874 4.18954 26.4874 3.99772C 26.4874 3.21645 27.1172 2.58081 27.8913 2.58081C 28.2084 2.58081 28.5076 2.68496 28.7564 2.88207C 28.9425 3.02935 29.1899 3.07051 29.4129 2.99111C 29.6357 2.9118 29.803 2.72296 29.8563 2.49053C 30.004 1.84519 30.5663 1.39452 31.2235 1.39452C 31.9977 1.39452 32.6275 2.03055 32.6275 2.81237C 32.6274 3.01161 32.5859 3.20415 32.509 3.38116ZM 36.7251 6.05736L 35.0398 6.89642C 35.0131 6.68764 34.973 6.47958 34.9173 6.27285C 34.8655 6.08102 34.8005 5.89479 34.725 5.71352C 35.2754 5.72953 35.9863 5.8105 36.7251 6.05736ZM 37.1497 10.8935C 36.9517 10.8935 36.7574 10.8324 36.5937 10.7199C 36.4204 10.5254 36.2447 10.3384 36.0718 10.1657C 35.675 9.76612 35.249 9.38853 34.8001 9.03886C 34.8657 8.86004 34.9184 8.67681 34.9609 8.49081L 35.2543 8.34479L 37.6742 9.81232C 37.903 9.95093 37.9323 10.1747 37.9343 10.2646C 37.9362 10.3545 37.9168 10.5796 37.6946 10.7279C 37.5313 10.8362 37.343 10.8935 37.1497 10.8935Z"/>
<path id="path1_fill" d="M 39.2921 20.73C 38.9137 20.6787 38.5661 20.9468 38.5154 21.3284C 37.8316 26.4749 33.9764 30.6016 28.9222 31.5974C 27.2564 31.9257 25.5767 31.8945 23.9296 31.5042C 19.4113 30.438 15.8673 26.8089 14.901 22.2586C 14.7046 21.3312 14.6164 20.3912 14.6362 19.4536C 15.4339 19.6651 16.7297 19.9135 18.418 19.9135C 19.5711 19.9135 20.9073 19.7976 22.3921 19.4749C 22.7652 19.3939 23.0024 19.023 22.9221 18.6464C 22.8417 18.2699 22.4742 18.031 22.1012 18.1116C 19.6419 18.646 17.6425 18.5532 16.3981 18.3813C 15.7691 18.2943 15.266 18.1793 14.9054 18.0805C 15.141 17.3643 15.2704 16.6188 15.2903 15.8552C 15.4015 11.6015 12.0632 8.04946 7.84864 7.93718C 5.80643 7.88436 3.8665 8.63409 2.38453 10.0526C 0.902408 11.4711 0.0565421 13.3871 0.00271351 15.4474C -0.0240055 16.4717 0.146699 17.4737 0.510218 18.4257C 0.610531 18.6884 0.857642 18.8645 1.13655 18.872C 1.41562 18.8768 1.6714 18.7168 1.78546 18.4599C 2.41437 17.0424 3.53407 15.9101 4.93822 15.2717C 5.28612 15.1135 5.44104 14.7006 5.28432 14.3496C 5.1276 13.9984 4.7183 13.8421 4.37056 14.0003C 3.1979 14.5334 2.18797 15.349 1.42116 16.3653C 1.38866 16.0746 1.37632 15.7805 1.38405 15.4842C 1.42819 13.7963 2.12125 12.2266 3.3354 11.0644C 4.54963 9.90222 6.14136 9.28518 7.812 9.33123C 11.2649 9.42316 14 12.3333 13.909 15.8183C 13.9013 16.1136 13.8736 16.4055 13.8263 16.6932C 12.4631 14.6687 10.2077 13.3923 7.70762 13.3257C 7.31223 13.3153 6.91527 13.3354 6.52636 13.3857C 6.14792 13.4346 5.88026 13.784 5.92886 14.166C 5.97729 14.548 6.32316 14.8178 6.70207 14.769C 7.0209 14.7277 7.34676 14.7113 7.67121 14.7199C 9.16599 14.7598 10.5539 15.328 11.629 16.2765C 9.81342 15.6571 7.86231 15.7437 6.09776 16.5305C 4.22947 17.3636 2.79461 18.8812 2.05757 20.8033C 1.31991 22.7253 1.36827 24.8222 2.19375 26.7075C 3.01922 28.5929 4.52283 30.0411 6.42769 30.7849C 7.31395 31.1313 8.24059 31.3065 9.18537 31.3065C 9.24904 31.3065 9.31318 31.3057 9.37701 31.304C 9.656 31.2971 9.90342 31.1214 10.0043 30.8588C 10.1051 30.5961 10.0394 30.2982 9.83787 30.1034C 8.00348 28.3301 7.41067 25.6411 8.32739 23.2528C 8.32731 23.2529 8.32747 23.2527 8.32739 23.2528C 9.15138 21.1035 11.0409 19.6052 13.2602 19.2792C 13.2256 20.3724 13.3211 21.4691 13.5502 22.5501C 14.5719 27.362 18.1768 31.2479 22.8395 32.6515C 22.6752 33.3541 22.7588 34.2646 23.4899 35.3508C 23.7045 35.6695 23.941 35.9501 24.1548 36.1778C 24.1046 36.2203 24.0536 36.2649 24.0028 36.3118C 23.343 36.9188 22.9942 37.6074 22.9942 38.303C 22.9942 38.6881 23.3035 39.0003 23.6852 39.0003C 24.0669 39.0003 24.3761 38.6881 24.3761 38.303C 24.3761 38.0062 24.5704 37.7123 24.8085 37.4654C 25.3171 38.5708 26.505 39.0003 27.3702 39.0003C 27.7518 39.0003 28.0611 38.6881 28.0611 38.303C 28.0611 37.9179 27.7518 37.6057 27.3702 37.6057C 27.224 37.6057 25.9423 37.5679 25.9423 36.2576C 25.9423 35.6579 26.5164 34.8801 27.559 34.0671C 28.3035 33.4866 29.0608 33.0666 29.2925 32.9426C 34.8766 31.7958 39.1275 27.2169 39.8853 21.5131C 39.9358 21.1321 39.6702 20.7812 39.2921 20.73ZM 7.03855 22.7494C 6.13519 25.1026 6.43245 27.6948 7.75801 29.7452C 7.47676 29.6783 7.19918 29.5914 6.92621 29.4848C 5.36565 28.8752 4.13361 27.6889 3.45743 26.1443C 2.78125 24.5996 2.74156 22.8818 3.34594 21.307C 3.94993 19.7322 5.12541 18.4889 6.65605 17.8063C 7.46684 17.4447 8.32575 17.2634 9.18615 17.2634C 9.95006 17.2634 10.7153 17.4065 11.449 17.693C 11.7222 17.7998 11.9856 17.9244 12.2383 18.0661C 9.89061 18.6809 7.94114 20.3956 7.03855 22.7494ZM 24.9165 34.9418C 24.4803 34.4133 24.046 33.683 24.1897 32.9836C 24.925 33.1239 25.665 33.2006 26.4068 33.2138C 25.7175 33.7934 25.2201 34.3709 24.9165 34.9418Z"/>
<path id="path2_fill" d="M 36.116 21.8446C 35.7545 19.8947 34.3431 18.1549 32.4324 17.3042C 32.0834 17.1487 31.6754 17.3083 31.5213 17.6606C 31.3672 18.013 31.5254 18.4245 31.8746 18.58C 33.3741 19.2477 34.4789 20.5968 34.7577 22.101C 34.9325 23.0439 34.8575 24.454 33.5074 25.8165C 32.3005 27.0345 29.6282 27.5982 27.5151 27.6164C 24.9089 27.6388 22.4085 26.953 20.3294 25.6628C 22.3292 25.2176 25.6541 24.2789 27.2068 22.7118C 27.4767 22.4396 27.4767 21.9981 27.2069 21.7258C 26.9369 21.4535 26.4995 21.4535 26.2297 21.7258C 25.4487 22.5139 23.8816 23.2586 21.6977 23.8794C 19.9945 24.3636 18.5209 24.5955 18.5061 24.5979C 18.2361 24.6399 18.016 24.8385 17.9444 25.1046C 17.873 25.3707 17.9634 25.6542 18.1754 25.8281C 20.6816 27.8839 23.949 29.0118 27.3904 29.0117C 27.4357 29.0117 27.4815 29.0116 27.5268 29.0112C 30.4492 28.9859 33.1801 28.1191 34.4844 26.8028C 35.8701 25.4043 36.4495 23.6436 36.116 21.8446Z"/>
<path id="path3_fill" d="M 31.8844 7.82227C 32.3782 7.82227 32.7753 7.41895 32.7753 6.92529C 32.7753 6.43115 32.3782 6.02783 31.8844 6.02783C 31.3906 6.02783 30.9934 6.43115 30.9934 6.92529C 30.9934 7.41895 31.3906 7.82227 31.8844 7.82227Z"/>
<path id="path4_stroke_2x" d="M 39.7416 17.0772L 39.5454 17.116L 39.5454 17.116L 39.7416 17.0772ZM 37.7412 12.2108L 37.6907 12.0172L 37.4198 12.088L 37.5746 12.3213L 37.7412 12.2108ZM 38.4558 11.8916L 38.5666 12.0581L 38.5668 12.058L 38.4558 11.8916ZM 39.3156 10.234L 39.1157 10.2383L 39.1157 10.2383L 39.3156 10.234ZM 38.3855 8.61665L 38.2818 8.78766L 38.2818 8.78771L 38.3855 8.61665ZM 36.7274 7.61115L 36.6383 7.43211L 36.3133 7.59392L 36.6237 7.78216L 36.7274 7.61115ZM 38.6227 6.66746L 38.7118 6.8465L 38.7119 6.84646L 38.6227 6.66746ZM 39.0069 6.07708L 38.8071 6.06706L 38.8071 6.06719L 39.0069 6.07708ZM 38.683 5.45089L 38.5763 5.62005L 38.5763 5.62008L 38.683 5.45089ZM 33.8296 4.34321L 33.6848 4.48108L 33.7507 4.55042L 33.8461 4.54253L 33.8296 4.34321ZM 33.661 4.17449L 33.4857 4.07806L 33.4112 4.21359L 33.5236 4.31984L 33.661 4.17449ZM 28.838 1.35439L 28.7695 1.54226L 28.9251 1.59906L 29.0098 1.45677L 28.838 1.35439ZM 25.1321 4.39099L 25.2255 4.56784L 25.3493 4.50249L 25.3303 4.36385L 25.1321 4.39099ZM 26.6676 9.68065L 26.8583 9.62029L 26.81 9.46783L 26.6507 9.48137L 26.6676 9.68065ZM 26.7597 15.3867L 26.94 15.4731L 26.9401 15.473L 26.7597 15.3867ZM 24.114 17.5588L 24.0511 17.369L 24.0511 17.369L 24.114 17.5588ZM 24.5451 18.8838L 24.608 19.0737L 24.608 19.0737L 24.5451 18.8838ZM 28.0038 15.9932L 27.8234 15.9068L 27.8234 15.9068L 28.0038 15.9932ZM 27.7726 8.63502L 27.9605 8.56635L 27.9602 8.56555L 27.7726 8.63502ZM 27.7399 8.54663L 27.9275 8.47717L 27.9273 8.47675L 27.7399 8.54663ZM 28.597 5.06235L 28.726 5.21523L 28.7261 5.21515L 28.597 5.06235ZM 30.2015 4.3593L 30.1759 4.16094L 30.1758 4.16095L 30.2015 4.3593ZM 32.3261 4.87667L 32.2134 5.04188L 32.2135 5.04192L 32.3261 4.87667ZM 33.0133 5.51373L 32.8568 5.63821L 32.857 5.63851L 33.0133 5.51373ZM 33.5838 6.63916L 33.3907 6.69121L 33.3907 6.69125L 33.5838 6.63916ZM 33.6632 7.91974L 33.4652 7.89116L 33.4651 7.8916L 33.6632 7.91974ZM 33.3332 8.9381L 33.1564 8.84459L 33.1564 8.8446L 33.3332 8.9381ZM 33.5439 9.83589L 33.6601 9.67307L 33.6601 9.67306L 33.5439 9.83589ZM 35.0972 11.1548L 34.9553 11.2957L 34.9559 11.2963L 35.0972 11.1548ZM 35.6143 11.7064L 35.7646 11.5744L 35.7644 11.5742L 35.6143 11.7064ZM 38.3862 17.3501L 38.5824 17.3113L 38.5824 17.3113L 38.3862 17.3501ZM 38.6183 19.4943L 38.8182 19.4904L 38.8182 19.4904L 38.6183 19.4943ZM 39.3227 20.1777L 39.3261 20.3777L 39.3267 20.3777L 39.3227 20.1777ZM 39.9999 19.4668L 39.7999 19.4706L 39.7999 19.4707L 39.9999 19.4668ZM 32.509 3.38116L 32.4224 3.56141L 32.6097 3.65145L 32.6925 3.46083L 32.509 3.38116ZM 30.0266 2.97597L 30.001 2.77761L 30.0009 2.77762L 30.0266 2.97597ZM 27.7108 3.99259L 27.8397 4.14545L 27.8398 4.1454L 27.7108 3.99259ZM 26.2357 8.28101L 26.2074 8.479L 26.4848 8.51858L 26.4321 8.24338L 26.2357 8.28101ZM 26.1159 5.49891L 26.0706 5.30412L 26.0705 5.30412L 26.1159 5.49891ZM 26.5968 4.54821L 26.4123 4.62541L 26.4123 4.62541L 26.5968 4.54821ZM 28.7564 2.88207L 28.6322 3.03884L 28.6323 3.0389L 28.7564 2.88207ZM 29.4129 2.99111L 29.3458 2.8027L 29.3458 2.8027L 29.4129 2.99111ZM 29.8563 2.49053L 30.0512 2.53522L 30.0512 2.53516L 29.8563 2.49053ZM 32.6275 2.81237L 32.8275 2.81245L 32.8275 2.81237L 32.6275 2.81237ZM 36.7251 6.05736L 36.8143 6.2364L 37.2471 6.0209L 36.7885 5.86767L 36.7251 6.05736ZM 35.0398 6.89642L 34.8414 6.92181L 34.8771 7.20083L 35.1289 7.07546L 35.0398 6.89642ZM 34.9173 6.27285L 35.1104 6.22081L 35.1104 6.22071L 34.9173 6.27285ZM 34.725 5.71352L 34.7309 5.51361L 34.4214 5.50461L 34.5404 5.7904L 34.725 5.71352ZM 36.5937 10.7199L 36.4444 10.8529L 36.4605 10.871L 36.4804 10.8847L 36.5937 10.7199ZM 36.0718 10.1657L 35.9299 10.3066L 35.9304 10.3072L 36.0718 10.1657ZM 34.8001 9.03886L 34.6124 8.96995L 34.5621 9.10695L 34.6772 9.19663L 34.8001 9.03886ZM 34.9609 8.49081L 34.8718 8.31176L 34.787 8.35396L 34.7659 8.44626L 34.9609 8.49081ZM 35.2543 8.34479L 35.358 8.17378L 35.2638 8.11666L 35.1651 8.16575L 35.2543 8.34479ZM 37.6742 9.81232L 37.5705 9.98333L 37.5706 9.98339L 37.6742 9.81232ZM 37.9343 10.2646L 37.7343 10.269L 37.7343 10.269L 37.9343 10.2646ZM 37.6946 10.7279L 37.8052 10.8945L 37.8056 10.8942L 37.6946 10.7279ZM 39.2921 20.73L 39.319 20.5318L 39.3189 20.5318L 39.2921 20.73ZM 38.5154 21.3284L 38.3171 21.3021L 38.3171 21.3021L 38.5154 21.3284ZM 28.9222 31.5974L 28.8836 31.4012L 28.8836 31.4012L 28.9222 31.5974ZM 23.9296 31.5042L 23.9757 31.3096L 23.9756 31.3095L 23.9296 31.5042ZM 14.901 22.2586L 14.7054 22.3001L 14.7054 22.3001L 14.901 22.2586ZM 14.6362 19.4536L 14.6875 19.2602L 14.4416 19.1951L 14.4362 19.4493L 14.6362 19.4536ZM 22.3921 19.4749L 22.3497 19.2795L 22.3496 19.2795L 22.3921 19.4749ZM 22.9221 18.6464L 23.1177 18.6047L 23.1177 18.6047L 22.9221 18.6464ZM 22.1012 18.1116L 22.059 17.9161L 22.0587 17.9161L 22.1012 18.1116ZM 16.3981 18.3813L 16.3707 18.5794L 16.3707 18.5794L 16.3981 18.3813ZM 14.9054 18.0805L 14.7154 18.018L 14.6497 18.2178L 14.8526 18.2734L 14.9054 18.0805ZM 15.2903 15.8552L 15.0904 15.85L 15.0904 15.85L 15.2903 15.8552ZM 7.84864 7.93718L 7.85396 7.73725L 7.85381 7.73725L 7.84864 7.93718ZM 2.38453 10.0526L 2.52282 10.1971L 2.52282 10.1971L 2.38453 10.0526ZM 0.00271351 15.4474L -0.197218 15.4422L -0.197218 15.4422L 0.00271351 15.4474ZM 0.510218 18.4257L 0.69706 18.3543L 0.697059 18.3543L 0.510218 18.4257ZM 1.13655 18.872L 1.13118 19.0719L 1.1331 19.072L 1.13655 18.872ZM 1.78546 18.4599L 1.96826 18.541L 1.96828 18.541L 1.78546 18.4599ZM 4.93822 15.2717L 4.85545 15.0896L 4.85545 15.0896L 4.93822 15.2717ZM 5.28432 14.3496L 5.10168 14.4311L 5.1017 14.4311L 5.28432 14.3496ZM 4.37056 14.0003L 4.45333 14.1824L 4.4534 14.1823L 4.37056 14.0003ZM 1.42116 16.3653L 1.2224 16.3875L 1.27822 16.8868L 1.58082 16.4858L 1.42116 16.3653ZM 1.38405 15.4842L 1.18412 15.4789L 1.18412 15.4789L 1.38405 15.4842ZM 3.3354 11.0644L 3.19711 10.9199L 3.1971 10.9199L 3.3354 11.0644ZM 7.812 9.33123L 7.80649 9.53115L 7.80667 9.53116L 7.812 9.33123ZM 13.909 15.8183L 14.1089 15.8235L 14.1089 15.8235L 13.909 15.8183ZM 13.8263 16.6932L 13.6605 16.8049L 13.942 17.223L 14.0237 16.7257L 13.8263 16.6932ZM 7.70762 13.3257L 7.71295 13.1258L 7.71288 13.1258L 7.70762 13.3257ZM 6.52636 13.3857L 6.55198 13.5841L 6.55202 13.5841L 6.52636 13.3857ZM 5.92886 14.166L 6.12727 14.1408L 6.12726 14.1407L 5.92886 14.166ZM 6.70207 14.769L 6.72757 14.9674L 6.72777 14.9674L 6.70207 14.769ZM 7.67121 14.7199L 7.67655 14.52L 7.67651 14.52L 7.67121 14.7199ZM 11.629 16.2765L 11.5644 16.4658L 11.7613 16.1266L 11.629 16.2765ZM 6.09776 16.5305L 6.01632 16.3478L 6.01631 16.3478L 6.09776 16.5305ZM 2.05757 20.8033L 2.24429 20.875L 2.24432 20.8749L 2.05757 20.8033ZM 6.42769 30.7849L 6.5005 30.5986L 6.50044 30.5986L 6.42769 30.7849ZM 9.37701 31.304L 9.37204 31.1041L 9.37158 31.1041L 9.37701 31.304ZM 10.0043 30.8588L 10.191 30.9305L 10.191 30.9304L 10.0043 30.8588ZM 9.83787 30.1034L 9.9769 29.9596L 9.97688 29.9596L 9.83787 30.1034ZM 13.2602 19.2792L 13.4601 19.2855L 13.4677 19.0465L 13.2312 19.0813L 13.2602 19.2792ZM 13.5502 22.5501L 13.3545 22.5916L 13.3545 22.5916L 13.5502 22.5501ZM 22.8395 32.6515L 23.0343 32.6971L 23.0771 32.5142L 22.8972 32.46L 22.8395 32.6515ZM 23.4899 35.3508L 23.6559 35.2391L 23.6559 35.2391L 23.4899 35.3508ZM 24.1548 36.1778L 24.2838 36.3307L 24.4449 36.1946L 24.3006 36.0409L 24.1548 36.1778ZM 24.0028 36.3118L 24.1382 36.459L 24.1384 36.4588L 24.0028 36.3118ZM 24.8085 37.4654L 24.9902 37.3818L 24.8677 37.1159L 24.6645 37.3266L 24.8085 37.4654ZM 27.559 34.0671L 27.436 33.9094L 27.436 33.9094L 27.559 34.0671ZM 29.2925 32.9426L 29.2523 32.7467L 29.2238 32.7526L 29.1982 32.7663L 29.2925 32.9426ZM 39.8853 21.5131L 40.0836 21.5395L 40.0836 21.5394L 39.8853 21.5131ZM 7.03855 22.7494L 7.22527 22.8211L 7.22529 22.821L 7.03855 22.7494ZM 7.75801 29.7452L 7.71176 29.9398L 8.19646 30.055L 7.92597 29.6366L 7.75801 29.7452ZM 6.92621 29.4848L 6.99901 29.2985L 6.99897 29.2985L 6.92621 29.4848ZM 3.34594 21.307L 3.53266 21.3787L 3.53268 21.3787L 3.34594 21.307ZM 6.65605 17.8063L 6.57459 17.6236L 6.57459 17.6236L 6.65605 17.8063ZM 11.449 17.693L 11.5218 17.5067L 11.5217 17.5067L 11.449 17.693ZM 12.2383 18.0661L 12.2889 18.2596L 12.7682 18.1341L 12.3361 17.8917L 12.2383 18.0661ZM 24.9165 34.9418L 24.7623 35.0691L 24.9527 35.2998L 25.0931 35.0357L 24.9165 34.9418ZM 24.1897 32.9836L 24.2272 32.7872L 24.0335 32.7502L 23.9938 32.9434L 24.1897 32.9836ZM 26.4068 33.2138L 26.5356 33.3668L 26.9442 33.0233L 26.4104 33.0138L 26.4068 33.2138ZM 36.116 21.8446L 36.3126 21.8081L 36.3126 21.8081L 36.116 21.8446ZM 32.4324 17.3042L 32.351 17.4868L 32.351 17.4869L 32.4324 17.3042ZM 31.5213 17.6606L 31.338 17.5805L 31.338 17.5805L 31.5213 17.6606ZM 31.8746 18.58L 31.7932 18.7627L 31.7932 18.7627L 31.8746 18.58ZM 34.7577 22.101L 34.9544 22.0645L 34.9544 22.0645L 34.7577 22.101ZM 33.5074 25.8165L 33.3653 25.6757L 33.3653 25.6757L 33.5074 25.8165ZM 27.5151 27.6164L 27.5168 27.8164L 27.5168 27.8164L 27.5151 27.6164ZM 20.3294 25.6628L 20.2859 25.4675L 19.8072 25.5741L 20.2239 25.8327L 20.3294 25.6628ZM 27.2068 22.7118L 27.0648 22.571L 27.0647 22.5711L 27.2068 22.7118ZM 27.2069 21.7258L 27.0648 21.8666L 27.2069 21.7258ZM 26.2297 21.7258L 26.0876 21.585L 26.2297 21.7258ZM 21.6977 23.8794L 21.7524 24.0718L 21.7524 24.0718L 21.6977 23.8794ZM 18.5061 24.5979L 18.5368 24.7955L 18.5377 24.7954L 18.5061 24.5979ZM 17.9444 25.1046L 17.7512 25.0526L 17.7512 25.0528L 17.9444 25.1046ZM 18.1754 25.8281L 18.3022 25.6735L 18.3022 25.6734L 18.1754 25.8281ZM 27.3904 29.0117L 27.3904 28.8117L 27.3904 28.8117L 27.3904 29.0117ZM 27.5268 29.0112L 27.5251 28.8112L 27.525 28.8112L 27.5268 29.0112ZM 34.4844 26.8028L 34.6265 26.9436L 34.6265 26.9436L 34.4844 26.8028ZM 39.9378 17.0384C 39.5876 15.2732 38.8899 13.5827 37.9079 12.1002L 37.5746 12.3213C 38.5367 13.7704 39.2047 15.3889 39.5454 17.116L 39.9378 17.0384ZM 37.7918 12.4043C 38.0588 12.3339 38.3305 12.2143 38.5666 12.0581L 38.345 11.7251C 38.1384 11.8634 37.9274 11.9561 37.6907 12.0172L 37.7918 12.4043ZM 38.5668 12.058C 39.1772 11.6506 39.5317 10.9663 39.5156 10.2296L 39.1157 10.2383C 39.1288 10.8393 38.8405 11.3944 38.3448 11.7252L 38.5668 12.058ZM 39.5156 10.2297C 39.4997 9.49308 39.1158 8.82525 38.4891 8.44559L 38.2818 8.78771C 38.7906 9.09589 39.1027 9.63737 39.1157 10.2383L 39.5156 10.2297ZM 38.4892 8.44564L 36.8311 7.44014L 36.6237 7.78216L 38.2818 8.78766L 38.4892 8.44564ZM 36.8165 7.79018L 38.7118 6.8465L 38.5335 6.48843L 36.6383 7.43211L 36.8165 7.79018ZM 38.7119 6.84646C 39.0017 6.70199 39.1906 6.41121 39.2066 6.08696L 38.8071 6.06719C 38.7982 6.24817 38.6928 6.40901 38.5334 6.48846L 38.7119 6.84646ZM 39.2066 6.08709C 39.2229 5.76291 39.0637 5.45447 38.7896 5.28171L 38.5763 5.62008C 38.7272 5.71523 38.8162 5.88617 38.8071 6.06706L 39.2066 6.08709ZM 38.7897 5.28174C 36.8376 4.06006 34.6752 4.0727 33.8132 4.14389L 33.8461 4.54253C 34.6936 4.47228 36.7284 4.44486 38.5763 5.62005L 38.7897 5.28174ZM 33.9745 4.20534C 33.9182 4.1462 33.8585 4.08599 33.7983 4.02913L 33.5236 4.31984C 33.5791 4.37226 33.6314 4.42496 33.6848 4.48108L 33.9745 4.20534ZM 33.8362 4.27091C 34.0736 3.83636 34.2075 3.32213 34.2091 2.81237L 33.8091 2.81237C 33.8107 3.27129 33.702 3.68837 33.4857 4.07806L 33.8362 4.27091ZM 34.2091 2.81237C 34.2091 1.15292 32.8716 -0.2 31.2232 -0.2L 31.2232 0.2C 32.6472 0.2 33.8091 1.37025 33.8091 2.81237L 34.2091 2.81237ZM 31.2232 -0.2C 30.1492 -0.2 29.1937 0.366798 28.6662 1.25201L 29.0098 1.45677C 29.4667 0.69003 30.2931 0.2 31.2232 0.2L 31.2232 -0.2ZM 28.9066 1.16651C 28.588 1.05101 28.2326 0.987083 27.8911 0.98629L 27.8911 1.38629C 28.197 1.3855 28.4836 1.43715 28.7695 1.54226L 28.9066 1.16651ZM 27.8911 0.98629C 26.2428 0.98629 24.9053 2.33877 24.9053 3.9978L 25.3054 3.9978C 25.3054 2.5562 26.4672 1.38629 27.8911 1.38629L 27.8911 0.98629ZM 24.9053 3.9978C 24.9055 4.13731 24.9155 4.28201 24.934 4.41814L 25.3303 4.36385C 25.3134 4.24105 25.3052 4.12351 25.3054 3.9978L 24.9053 3.9978ZM 25.0387 4.21414C 24.0727 4.72436 23.446 5.73626 23.446 6.87995L 23.846 6.87995C 23.846 5.8849 24.3903 5.00896 25.2255 4.56784L 25.0387 4.21414ZM 23.446 6.87995C 23.446 8.53897 24.784 9.89137 26.4327 9.89137L 26.4327 9.49137C 25.0082 9.49137 23.846 8.32139 23.846 6.87995L 23.446 6.87995ZM 26.4327 9.89137C 26.5166 9.8913 26.6034 9.8868 26.6846 9.87993L 26.6507 9.48137C 26.576 9.48774 26.5061 9.49144 26.4327 9.49137L 26.4327 9.89137ZM 26.477 9.74101C 26.9161 11.1282 27.4318 13.5196 26.5793 15.3003L 26.9401 15.473C 27.866 13.5389 27.2979 11.009 26.8583 9.62029L 26.477 9.74101ZM 26.5793 15.3003C 26.1108 16.2787 25.2935 16.9573 24.0511 17.369L 24.1769 17.7487C 25.5027 17.3094 26.4163 16.5669 26.94 15.4731L 26.5793 15.3003ZM 24.0511 17.369C 23.5828 17.5242 23.3303 18.0315 23.4829 18.5007L 23.8633 18.377C 23.7779 18.1144 23.9201 17.8338 24.1769 17.7487L 24.0511 17.369ZM 23.4829 18.5007C 23.6357 18.9706 24.1386 19.2291 24.608 19.0737L 24.4822 18.694C 24.226 18.7788 23.9484 18.6387 23.8633 18.377L 23.4829 18.5007ZM 24.608 19.0737C 26.2887 18.5168 27.499 17.511 28.1842 16.0795L 27.8234 15.9068C 27.1914 17.2271 26.0744 18.1664 24.4822 18.694L 24.608 19.0737ZM 28.1842 16.0795C 28.7287 14.9424 29.3927 12.484 27.9605 8.56635L 27.5848 8.70369C 28.9808 12.5224 28.3204 14.8689 27.8234 15.9068L 28.1842 16.0795ZM 27.9602 8.56555L 27.9275 8.47717L 27.5524 8.6161L 27.5851 8.70448L 27.9602 8.56555ZM 27.9273 8.47675C 27.4865 7.29484 27.813 5.98535 28.726 5.21523L 28.4681 4.90948C 27.4184 5.79492 27.0562 7.28582 27.5525 8.61652L 27.9273 8.47675ZM 28.7261 5.21515C 29.1561 4.84924 29.6587 4.62912 30.2271 4.55764L 30.1758 4.16095C 29.5517 4.24369 28.9446 4.50972 28.468 4.90955L 28.7261 5.21515ZM 30.227 4.55766C 30.9316 4.46351 31.6157 4.63016 32.2134 5.04188L 32.4388 4.71147C 31.7784 4.26473 30.9537 4.06412 30.1759 4.16094L 30.227 4.55766ZM 32.2135 5.04192C 32.4632 5.21151 32.672 5.40499 32.8568 5.63821L 33.1698 5.38925C 32.9654 5.13302 32.7125 4.89868 32.4388 4.71142L 32.2135 5.04192ZM 32.857 5.63851C 33.1126 5.95701 33.286 6.29891 33.3907 6.69121L 33.7769 6.58711C 33.6595 6.15563 33.449 5.74063 33.1696 5.38896L 32.857 5.63851ZM 33.3907 6.69125C 33.5006 7.09497 33.525 7.48476 33.4652 7.89116L 33.8611 7.94833C 33.9246 7.501 33.8954 7.03012 33.7769 6.58706L 33.3907 6.69125ZM 33.4651 7.8916C 33.4174 8.23255 33.3171 8.54233 33.1564 8.84459L 33.5099 9.0316C 33.6855 8.69807 33.8072 8.32268 33.8612 7.94788L 33.4651 7.8916ZM 33.1564 8.8446C 32.9458 9.24269 33.0612 9.7373 33.4278 9.99873L 33.6601 9.67306C 33.4577 9.52876 33.3925 9.25369 33.51 9.03159L 33.1564 8.8446ZM 33.4278 9.99872C 33.9758 10.3894 34.4849 10.8214 34.9553 11.2957L 35.2392 11.0139C 34.7565 10.5277 34.2216 10.0738 33.6601 9.67307L 33.4278 9.99872ZM 34.9559 11.2963C 35.1259 11.4661 35.2958 11.6474 35.4643 11.8386L 35.7644 11.5742C 35.5918 11.3783 35.4132 11.1878 35.2386 11.0133L 34.9559 11.2963ZM 35.464 11.8383C 36.846 13.4098 37.7813 15.3145 38.19 17.389L 38.5824 17.3113C 38.1602 15.1864 37.1787 13.1878 35.7646 11.5744L 35.464 11.8383ZM 38.19 17.3889C 38.3285 18.088 38.4046 18.792 38.4183 19.4982L 38.8182 19.4904C 38.8038 18.7665 38.7239 18.0277 38.5824 17.3113L 38.19 17.3889ZM 38.4183 19.4982C 38.4277 19.986 38.8232 20.3778 39.3088 20.3778L 39.3088 19.9778C 39.0439 19.9778 38.8235 19.7633 38.8182 19.4904L 38.4183 19.4982ZM 39.3088 20.3778C 39.3133 20.3778 39.3197 20.3778 39.3261 20.3777L 39.3192 19.9778C 39.3164 19.9778 39.3134 19.9778 39.3088 19.9778L 39.3088 20.3778ZM 39.3267 20.3777C 39.8202 20.3678 40.2094 19.9567 40.1998 19.4629L 39.7999 19.4707C 39.8053 19.7471 39.5881 19.9724 39.3186 19.9778L 39.3267 20.3777ZM 40.1998 19.463C 40.1842 18.657 40.0954 17.8354 39.9378 17.0384L 39.5454 17.116C 39.7 17.8958 39.785 18.6824 39.7999 19.4706L 40.1998 19.463ZM 32.5957 3.2009C 31.7978 2.81953 30.8808 2.6665 30.001 2.77761L 30.0521 3.17434C 30.8733 3.06643 31.677 3.20085 32.4224 3.56141L 32.5957 3.2009ZM 30.0009 2.77762C 29.1141 2.89429 28.261 3.26892 27.5817 3.83978L 27.8398 4.1454C 28.4726 3.60835 29.2212 3.27968 30.0522 3.17432L 30.0009 2.77762ZM 27.5818 3.83973C 26.2896 4.92999 25.7206 6.65524 26.0392 8.31864L 26.4321 8.24338C 26.1392 6.71453 26.6638 5.13763 27.8397 4.14545L 27.5818 3.83973ZM 26.2639 8.08301C 25.6805 7.99977 25.2281 7.49317 25.2281 6.87971L 24.8281 6.87971C 24.8281 7.69349 25.4282 8.36781 26.2074 8.479L 26.2639 8.08301ZM 25.2281 6.87971C 25.2281 6.30769 25.6125 5.82149 26.1613 5.6937L 26.0705 5.30412C 25.3382 5.47468 24.8281 6.12431 24.8281 6.87971L 25.2281 6.87971ZM 26.1612 5.6937C 26.4183 5.63388 26.635 5.46256 26.7542 5.2269L 26.3973 5.04634C 26.331 5.17731 26.2112 5.27138 26.0706 5.30412L 26.1612 5.6937ZM 26.7542 5.2269C 26.8734 4.99129 26.8833 4.71468 26.7813 4.47101L 26.4123 4.62541C 26.4691 4.76113 26.4636 4.91532 26.3973 5.04634L 26.7542 5.2269ZM 26.7813 4.47101C 26.7155 4.31633 26.6864 4.16992 26.6874 3.99772L 26.2874 3.99772C 26.2884 4.20917 26.333 4.43317 26.4123 4.62541L 26.7813 4.47101ZM 26.6874 3.99772C 26.6874 3.32516 27.2294 2.78081 27.8913 2.78081L 27.8913 2.38081C 27.005 2.38081 26.2874 3.10774 26.2874 3.99772L 26.6874 3.99772ZM 27.8913 2.78081C 28.1751 2.77801 28.4112 2.86024 28.6322 3.03884L 28.8806 2.7253C 28.6039 2.50968 28.2418 2.38361 27.8913 2.38081L 27.8913 2.78081ZM 28.6323 3.0389C 28.8722 3.22877 29.1918 3.28214 29.48 3.17952L 29.3458 2.8027C 29.188 2.85888 29.0128 2.82994 28.8805 2.72524L 28.6323 3.0389ZM 29.48 3.17953C 29.7678 3.07707 29.9828 2.83361 30.0512 2.53522L 29.6613 2.44584C 29.6231 2.61232 29.5036 2.74652 29.3458 2.8027L 29.48 3.17953ZM 30.0512 2.53516C 30.1783 1.9798 30.6606 1.59452 31.2235 1.59452L 31.2235 1.19452C 30.4721 1.19452 29.8296 1.71059 29.6613 2.4459L 30.0512 2.53516ZM 31.2235 1.59452C 31.8854 1.59452 32.4275 2.13916 32.4275 2.81237L 32.8275 2.81237C 32.8275 1.92195 32.11 1.19452 31.2235 1.19452L 31.2235 1.59452ZM 32.4275 2.81229C 32.4286 2.99035 32.3955 3.14292 32.3256 3.30148L 32.6925 3.46083C 32.7763 3.26538 32.8263 3.03287 32.8275 2.81245L 32.4275 2.81229ZM 36.636 5.87833L 34.9507 6.71739L 35.1289 7.07546L 36.8143 6.2364L 36.636 5.87833ZM 35.2382 6.87104C 35.2106 6.65602 35.1679 6.43461 35.1104 6.22081L 34.7242 6.32488C 34.7781 6.52454 34.8156 6.71927 34.8414 6.92181L 35.2382 6.87104ZM 35.1104 6.22071C 35.0566 6.02196 34.9873 5.82337 34.9097 5.63665L 34.5404 5.7904C 34.6137 5.96621 34.6744 6.14008 34.7242 6.32498L 35.1104 6.22071ZM 34.7192 5.91344C 35.2612 5.92902 35.9431 6.00577 36.6618 6.24706L 36.7885 5.86767C 36.0295 5.61523 35.2897 5.53004 34.7309 5.51361L 34.7192 5.91344ZM 37.1497 10.6935C 36.9821 10.6958 36.845 10.6526 36.707 10.5551L 36.4804 10.8847C 36.6698 11.0122 36.9213 11.0912 37.1497 11.0935L 37.1497 10.6935ZM 36.7431 10.5869C 36.568 10.3904 36.3883 10.1992 36.2131 10.0242L 35.9304 10.3072C 36.1012 10.4777 36.2729 10.6604 36.4444 10.8529L 36.7431 10.5869ZM 36.2137 10.0248C 35.8123 9.62074 35.3768 9.23473 34.923 8.88109L 34.6772 9.19663C 35.1211 9.54233 35.5376 9.91149 35.9299 10.3066L 36.2137 10.0248ZM 34.9879 9.10776C 35.0559 8.92215 35.1121 8.72672 35.1559 8.53537L 34.7659 8.44626C 34.7247 8.62689 34.6756 8.79793 34.6124 8.96995L 34.9879 9.10776ZM 35.05 8.66986L 35.3434 8.52384L 35.1651 8.16575L 34.8718 8.31176L 35.05 8.66986ZM 35.1506 8.51581L 37.5705 9.98333L 37.7779 9.64131L 35.358 8.17378L 35.1506 8.51581ZM 37.5706 9.98339C 37.7133 10.0698 37.733 10.2072 37.7343 10.269L 38.1342 10.2603C 38.1317 10.1422 38.0928 9.83205 37.7778 9.64125L 37.5706 9.98339ZM 37.7343 10.269C 37.7357 10.331 37.7219 10.4692 37.5836 10.5615L 37.8056 10.8942C 38.1117 10.6899 38.1368 10.3781 38.1342 10.2603L 37.7343 10.269ZM 37.584 10.5612C 37.446 10.6553 37.3136 10.6957 37.1497 10.6935L 37.1497 11.0935C 37.3725 11.0913 37.6166 11.0171 37.8052 10.8945L 37.584 10.5612ZM 39.3189 20.5318C 38.8291 20.4655 38.3822 20.8125 38.3171 21.3021L 38.7136 21.3547C 38.75 21.0811 38.9982 20.892 39.2653 20.9282L 39.3189 20.5318ZM 38.3171 21.3021C 37.6445 26.3645 33.8528 30.4221 28.8836 31.4012L 28.9609 31.7936C 34.1001 30.7811 38.0187 26.5853 38.7136 21.3547L 38.3171 21.3021ZM 28.8836 31.4012C 27.2388 31.7265 25.6017 31.696 23.9757 31.3096L 23.8835 31.6988C 25.5516 32.0929 27.274 32.1249 28.9609 31.7936L 28.8836 31.4012ZM 23.9756 31.3095C 19.5328 30.2611 16.0469 26.6918 15.0967 22.2171L 14.7054 22.3001C 15.6877 26.9259 19.2899 30.6148 23.8837 31.6988L 23.9756 31.3095ZM 15.0967 22.2171C 14.9023 21.3011 14.8163 20.3839 14.8362 19.4578L 14.4362 19.4493C 14.4166 20.3984 14.5068 21.3613 14.7054 22.3001L 15.0967 22.2171ZM 14.5849 19.6469C 15.3895 19.8601 16.7108 20.1126 18.418 20.1135L 18.418 19.7135C 16.7486 19.7144 15.4784 19.4701 14.6875 19.2602L 14.5849 19.6469ZM 18.418 20.1135C 19.5797 20.1133 20.9373 19.9953 22.4346 19.6704L 22.3496 19.2795C 20.8774 19.5998 19.5624 19.7136 18.418 19.7135L 18.418 20.1135ZM 22.4346 19.6704C 22.9168 19.5656 23.2207 19.0874 23.1177 18.6047L 22.7265 18.6882C 22.7842 18.9585 22.6135 19.2222 22.3497 19.2795L 22.4346 19.6704ZM 23.1177 18.6047C 23.0145 18.1211 22.5414 17.8119 22.059 17.9161L 22.1434 18.307C 22.4071 18.2501 22.669 18.4186 22.7265 18.6882L 23.1177 18.6047ZM 22.0587 17.9161C 19.6252 18.4467 17.6608 18.3541 16.4255 18.1832L 16.3707 18.5794C 17.6241 18.7524 19.6587 18.8453 22.1436 18.307L 22.0587 17.9161ZM 16.4255 18.1832C 15.8051 18.0976 15.3148 17.9853 14.9583 17.8876L 14.8526 18.2734C 15.2173 18.3733 15.7331 18.491 16.3707 18.5794L 16.4255 18.1832ZM 15.0954 18.143C 15.3351 17.4128 15.4694 16.6386 15.4903 15.8604L 15.0904 15.85C 15.0714 16.599 14.947 17.3158 14.7154 18.018L 15.0954 18.143ZM 15.4903 15.8604C 15.6043 11.4981 12.1806 7.85251 7.85396 7.73725L 7.84331 8.13711C 11.9458 8.2464 15.1987 11.7049 15.0904 15.85L 15.4903 15.8604ZM 7.85381 7.73725C 5.75819 7.68304 3.76664 8.45282 2.24624 9.90809L 2.52282 10.1971C 3.96635 8.81536 5.85468 8.08567 7.84347 8.13712L 7.85381 7.73725ZM 2.24624 9.90809C 0.725811 11.3633 -0.142019 13.3295 -0.197218 15.4422L 0.202645 15.4526C 0.255103 13.4448 1.07901 11.579 2.52282 10.1971L 2.24624 9.90809ZM -0.197218 15.4422C -0.223497 16.4859 -0.0462271 17.5264 0.323377 18.497L 0.697059 18.3543C 0.339625 17.421 0.175486 16.4574 0.202645 15.4526L -0.197218 15.4422ZM 0.323376 18.497C 0.45226 18.8345 0.770455 19.0623 1.13118 19.0719L 1.14192 18.6721C 0.94483 18.6668 0.768802 18.5422 0.69706 18.3543L 0.323376 18.497ZM 1.1331 19.072C 1.49119 19.0782 1.82109 18.8726 1.96826 18.541L 1.60266 18.3787C 1.52171 18.5611 1.34004 18.6755 1.14 18.672L 1.1331 19.072ZM 1.96828 18.541C 2.57959 17.1551 3.64846 16.0741 5.021 15.4537L 4.85545 15.0896C 3.41969 15.746 2.24916 16.9296 1.60265 18.3788L 1.96828 18.541ZM 5.021 15.4537C 5.47001 15.2496 5.66801 14.7184 5.46694 14.268L 5.1017 14.4311C 5.21407 14.6828 5.10223 14.9774 4.85545 15.0896L 5.021 15.4537ZM 5.46696 14.2681C 5.26546 13.8166 4.73756 13.6136 4.28772 13.8183L 4.4534 14.1823C 4.69903 14.0706 4.98974 14.1803 5.10168 14.4311L 5.46696 14.2681ZM 4.2878 13.8182C 3.09285 14.3632 2.04423 15.2099 1.26151 16.2449L 1.58082 16.4858C 2.3317 15.4881 3.30295 14.7036 4.45333 14.1824L 4.2878 13.8182ZM 1.61992 16.3431C 1.58808 16.0593 1.57631 15.7789 1.58398 15.4894L 1.18412 15.4789C 1.17632 15.7821 1.18925 16.0899 1.2224 16.3875L 1.61992 16.3431ZM 1.58398 15.4894C 1.62675 13.8539 2.29784 12.3344 3.4737 11.2089L 3.1971 10.9199C 1.94465 12.1188 1.22963 13.7386 1.18412 15.4789L 1.58398 15.4894ZM 3.47369 11.2089C 4.64963 10.0833 6.1897 9.48659 7.80649 9.53115L 7.81751 9.1313C 6.09301 9.08377 4.44962 9.72109 3.19711 10.9199L 3.47369 11.2089ZM 7.80667 9.53116C 11.1475 9.6201 13.7972 12.4367 13.7091 15.8131L 14.1089 15.8235C 14.2028 12.2299 11.3824 9.22622 7.81732 9.1313L 7.80667 9.53116ZM 13.7091 15.8131C 13.7016 16.1015 13.6753 16.3799 13.629 16.6608L 14.0237 16.7257C 14.072 16.4312 14.1009 16.1256 14.1089 15.8235L 13.7091 15.8131ZM 13.9922 16.5815C 12.5935 14.5044 10.2789 13.1942 7.71295 13.1258L 7.70229 13.5256C 10.1366 13.5905 12.3326 14.8331 13.6605 16.8049L 13.9922 16.5815ZM 7.71288 13.1258C 7.3098 13.1153 6.89737 13.1362 6.50071 13.1874L 6.55202 13.5841C 6.93317 13.5346 7.31466 13.5153 7.70236 13.5256L 7.71288 13.1258ZM 6.50074 13.1874C 6.01129 13.2506 5.66814 13.7015 5.73046 14.1912L 6.12726 14.1407C 6.09238 13.8666 6.28455 13.6186 6.55198 13.5841L 6.50074 13.1874ZM 5.73044 14.1911C 5.7926 14.6813 6.23746 15.0304 6.72757 14.9674L 6.67656 14.5707C 6.40885 14.6051 6.16199 14.4146 6.12727 14.1408L 5.73044 14.1911ZM 6.72777 14.9674C 7.03879 14.9269 7.34914 14.9113 7.66592 14.9198L 7.67651 14.52C 7.34438 14.5113 7.00301 14.5285 6.67636 14.5707L 6.72777 14.9674ZM 7.66588 14.9198C 9.12477 14.9555 10.4484 15.4979 11.4967 16.4265L 11.7613 16.1266C 10.6594 15.1581 9.20722 14.5641 7.67655 14.52L 7.66588 14.9198ZM 11.6936 16.0873C 9.84177 15.4591 7.81634 15.5491 6.01632 16.3478L 6.17921 16.7132C 7.90828 15.9384 9.78507 15.855 11.5644 16.4658L 11.6936 16.0873ZM 6.01631 16.3478C 4.09923 17.2027 2.62672 18.7604 1.87083 20.7317L 2.24432 20.8749C 2.96251 19.0019 4.3597 17.5245 6.17922 16.7132L 6.01631 16.3478ZM 1.87085 20.7316C 1.11435 22.7027 1.16396 24.8542 2.01054 26.7878L 2.37696 26.6273C 1.57259 24.7902 1.52548 22.7478 2.24429 20.875L 1.87085 20.7316ZM 2.01054 26.7878C 2.85714 28.7213 4.40027 30.2079 6.35494 30.9712L 6.50044 30.5986C 4.64539 29.8742 3.18131 28.4644 2.37696 26.6273L 2.01054 26.7878ZM 6.35487 30.9712C 7.25873 31.3236 8.22194 31.5056 9.18537 31.5065L 9.18537 31.1065C 8.25924 31.1073 7.36916 30.9391 6.5005 30.5986L 6.35487 30.9712ZM 9.18537 31.5065C 9.25015 31.5065 9.31701 31.5057 9.38244 31.5039L 9.37158 31.1041C 9.30936 31.1058 9.24793 31.1065 9.18537 31.1065L 9.18537 31.5065ZM 9.38198 31.5039C 9.74282 31.495 10.0614 31.2679 10.191 30.9305L 9.81757 30.7871C 9.74542 30.975 9.56917 31.0992 9.37204 31.1041L 9.38198 31.5039ZM 10.191 30.9304C 10.3204 30.5932 10.2363 30.2104 9.9769 29.9596L 9.69885 30.2471C 9.84245 30.386 9.88972 30.5991 9.81756 30.7871L 10.191 30.9304ZM 9.97688 29.9596C 8.20037 28.2422 7.62602 25.6381 8.51411 23.3244L 8.14067 23.1811C 7.19531 25.644 7.80659 28.4179 9.69887 30.2472L 9.97688 29.9596ZM 8.46946 23.3935C 8.46705 23.396 8.46212 23.4008 8.4554 23.4064C 8.45198 23.4093 8.44658 23.4136 8.43959 23.4183C 8.43342 23.4225 8.42095 23.4305 8.40373 23.4376C 8.39481 23.4413 8.38181 23.4459 8.36559 23.4491C 8.34958 23.4522 8.3262 23.4547 8.29848 23.4506C 8.26945 23.4464 8.23698 23.435 8.20697 23.4124C 8.17711 23.3899 8.15775 23.3623 8.14598 23.3369C 8.1347 23.3126 8.1304 23.2905 8.12867 23.2751C 8.12691 23.2594 8.1273 23.2463 8.12803 23.237C 8.12944 23.2192 8.13298 23.2053 8.13498 23.1983C 8.13907 23.1838 8.14391 23.1731 8.14579 23.169C 8.14825 23.1637 8.1505 23.1594 8.15203 23.1566C 8.15507 23.1511 8.158 23.1464 8.16051 23.1425C 8.16258 23.1394 8.16707 23.1328 8.17356 23.125C 8.17589 23.1222 8.1843 23.112 8.19704 23.1011C 8.20075 23.0979 8.20596 23.0937 8.21249 23.0891C 8.21873 23.0847 8.2285 23.0784 8.24129 23.0723C 8.25332 23.0665 8.27449 23.0579 8.30241 23.0544C 8.33163 23.0507 8.37372 23.0522 8.41747 23.0742C 8.46232 23.0969 8.49033 23.1318 8.50595 23.1628C 8.5204 23.1914 8.52475 23.2172 8.52631 23.2322C 8.52795 23.2481 8.52737 23.2612 8.52667 23.2695C 8.52593 23.2783 8.52474 23.2855 8.52375 23.2907C 8.52181 23.3007 8.51949 23.3086 8.51813 23.3129C 8.51662 23.3177 8.51519 23.3216 8.51418 23.3242C 8.51073 23.3333 8.50735 23.34 8.5066 23.3415L 8.14818 23.164C 8.14741 23.1655 8.14402 23.1723 8.14057 23.1813C 8.13963 23.1839 8.13764 23.1895 8.13661 23.1927C 8.13525 23.197 8.13293 23.2049 8.13099 23.2149C 8.13 23.2201 8.1288 23.2273 8.12807 23.2361C 8.12737 23.2444 8.12679 23.2575 8.12843 23.2734C 8.12999 23.2884 8.13434 23.3142 8.14879 23.3429C 8.16441 23.3738 8.19242 23.4087 8.23727 23.4314C 8.28102 23.4534 8.32311 23.4549 8.35233 23.4512C 8.38025 23.4477 8.40142 23.4391 8.41345 23.4333C 8.42624 23.4272 8.43601 23.4209 8.44226 23.4165C 8.44879 23.4119 8.454 23.4077 8.45771 23.4045C 8.47044 23.3936 8.47886 23.3834 8.48119 23.3806C 8.4877 23.3728 8.4922 23.3662 8.49427 23.363C 8.49624 23.36 8.50052 23.3529 8.50279 23.3489C 8.50412 23.3464 8.50726 23.3402 8.50903 23.3365C 8.51092 23.3324 8.51576 23.3217 8.51985 23.3072C 8.52185 23.3001 8.52539 23.2863 8.5268 23.2684C 8.52752 23.2592 8.52792 23.246 8.52616 23.2304C 8.52443 23.215 8.52013 23.1929 8.50885 23.1686C 8.49708 23.1432 8.47772 23.1156 8.44786 23.0931C 8.41785 23.0704 8.38537 23.0591 8.35634 23.0548C 8.32862 23.0508 8.30524 23.0533 8.28923 23.0564C 8.27301 23.0596 8.26002 23.0642 8.25109 23.0679C 8.23387 23.075 8.2214 23.083 8.21523 23.0872C 8.20824 23.0919 8.20283 23.0962 8.19941 23.0991C 8.19268 23.1047 8.18774 23.1095 8.18532 23.112L 8.46946 23.3935ZM 8.51414 23.3243C 9.31233 21.2423 11.1417 19.7925 13.2893 19.477L 13.2312 19.0813C 10.94 19.4178 8.99043 20.9646 8.14065 23.1812L 8.51414 23.3243ZM 13.0603 19.2728C 13.0257 20.3779 13.1233 21.4986 13.3545 22.5916L 13.7458 22.5086C 13.5189 21.4397 13.4256 20.3669 13.4601 19.2855L 13.0603 19.2728ZM 13.3545 22.5916C 14.3915 27.4752 18.0495 31.4185 22.7819 32.843L 22.8972 32.46C 18.3041 31.0774 14.7523 27.2487 13.7458 22.5086L 13.3545 22.5916ZM 22.6448 32.606C 22.4665 33.368 22.5651 34.3349 23.324 35.4624L 23.6559 35.2391C 22.9526 34.1943 22.8838 33.3402 23.0343 32.6971L 22.6448 32.606ZM 23.324 35.4624C 23.5448 35.79 23.7915 36.0831 24.009 36.3148L 24.3006 36.0409C 24.0904 35.8172 23.8641 35.5491 23.6559 35.2391L 23.324 35.4624ZM 24.0258 36.025C 23.9741 36.0686 23.9199 36.1161 23.8672 36.1648L 24.1384 36.4588C 24.1873 36.4136 24.235 36.3719 24.2838 36.3307L 24.0258 36.025ZM 23.8673 36.1646C 23.179 36.7979 22.7942 37.5364 22.7942 38.303L 23.1942 38.303C 23.1942 37.6785 23.507 37.0397 24.1382 36.459L 23.8673 36.1646ZM 22.7942 38.303C 22.7942 38.7968 23.1912 39.2003 23.6852 39.2003L 23.6852 38.8003C 23.4157 38.8003 23.1942 38.5794 23.1942 38.303L 22.7942 38.303ZM 23.6852 39.2003C 24.1791 39.2003 24.5761 38.7968 24.5761 38.303L 24.1761 38.303C 24.1761 38.5794 23.9547 38.8003 23.6852 38.8003L 23.6852 39.2003ZM 24.5761 38.303C 24.5761 38.0877 24.7223 37.8429 24.9524 37.6043L 24.6645 37.3266C 24.4185 37.5817 24.1761 37.9246 24.1761 38.303L 24.5761 38.303ZM 24.6268 37.5491C 25.1788 38.7486 26.4563 39.2003 27.3702 39.2003L 27.3702 38.8003C 26.5536 38.8003 25.4554 38.3929 24.9902 37.3818L 24.6268 37.5491ZM 27.3702 39.2003C 27.864 39.2003 28.2611 38.7968 28.2611 38.303L 27.8611 38.303C 27.8611 38.5794 27.6397 38.8003 27.3702 38.8003L 27.3702 39.2003ZM 28.2611 38.303C 28.2611 37.8092 27.864 37.4057 27.3702 37.4057L 27.3702 37.8057C 27.6397 37.8057 27.8611 38.0266 27.8611 38.303L 28.2611 38.303ZM 27.3702 37.4057C 27.2998 37.4057 26.9896 37.4025 26.6925 37.2449C 26.4125 37.1017 26.1423 36.8289 26.1423 36.2576L 25.7423 36.2576C 25.7423 36.9966 26.113 37.3978 26.5104 37.6011C 26.8907 37.7901 27.2945 37.8057 27.3702 37.8057L 27.3702 37.4057ZM 26.1423 36.2576C 26.1423 36.0188 26.2586 35.7162 26.5206 35.3611C 26.7846 35.0024 27.1696 34.624 27.6819 34.2248L 27.436 33.9094C 26.9059 34.3232 26.4825 34.7402 26.1988 35.1236C 25.9131 35.5106 25.7423 35.8968 25.7423 36.2576L 26.1423 36.2576ZM 27.6819 34.2248C 28.4138 33.6534 29.1564 33.2422 29.3868 33.119L 29.1982 32.7663C 28.9651 32.8909 28.1932 33.3198 27.436 33.9094L 27.6819 34.2248ZM 29.3327 33.1385C 35.001 31.9745 39.3146 27.3268 40.0836 21.5395L 39.687 21.4868C 38.9403 27.107 34.7522 31.6172 29.2523 32.7467L 29.3327 33.1385ZM 40.0836 21.5394C 40.1483 21.0506 39.8078 20.598 39.319 20.5318L 39.2652 20.9282C 39.5326 20.9644 39.7232 21.2136 39.687 21.4869L 40.0836 21.5394ZM 6.85184 22.6777C 5.92537 25.0911 6.23014 27.7503 7.59006 29.8538L 7.92597 29.6366C 6.63477 27.6394 6.345 25.1141 7.22527 22.8211L 6.85184 22.6777ZM 7.80427 29.5506C 7.52979 29.4855 7.26549 29.4027 6.99901 29.2985L 6.85341 29.671C 7.13287 29.7801 7.42373 29.8712 7.71176 29.9398L 7.80427 29.5506ZM 6.99897 29.2985C 5.48819 28.7084 4.29569 27.5604 3.64064 26.0641L 3.27422 26.2245C 3.97153 27.8174 5.24311 29.0421 6.85344 29.671L 6.99897 29.2985ZM 3.64064 26.0641C 2.98557 24.5676 2.94713 22.9043 3.53266 21.3787L 3.15922 21.2354C 2.536 22.8592 2.57694 24.6317 3.27422 26.2245L 3.64064 26.0641ZM 3.53268 21.3787C 4.11783 19.853 5.25565 18.6498 6.73751 17.9889L 6.57459 17.6236C 4.99517 18.328 3.78204 19.6114 3.15921 21.2354L 3.53268 21.3787ZM 6.73751 17.9889C 7.52856 17.6349 8.34651 17.4623 9.18615 17.4634L 9.18615 17.0634C 8.30499 17.0645 7.40511 17.2545 6.57459 17.6236L 6.73751 17.9889ZM 9.18615 17.4634C 9.93161 17.4626 10.6603 17.5987 11.3762 17.8793L 11.5217 17.5067C 10.7703 17.2142 9.96851 17.0643 9.18615 17.0634L 9.18615 17.4634ZM 11.3761 17.8792C 11.643 17.9834 11.8939 18.1021 12.1404 18.2406L 12.3361 17.8917C 12.0774 17.7467 11.8014 17.6162 11.5218 17.5067L 11.3761 17.8792ZM 12.1876 17.8727C 9.77771 18.5037 7.77751 20.2637 6.85181 22.6778L 7.22529 22.821C 8.10477 20.5275 10.0035 18.8581 12.2889 18.2596L 12.1876 17.8727ZM 25.0708 34.8145C 24.6371 34.2891 24.2622 33.6248 24.3856 33.0239L 23.9938 32.9434C 23.8299 33.7412 24.3236 34.5376 24.7623 35.0691L 25.0708 34.8145ZM 24.1522 33.1801C 24.8959 33.3218 25.6529 33.4002 26.4033 33.4137L 26.4104 33.0138C 25.6771 33.001 24.954 32.926 24.2272 32.7872L 24.1522 33.1801ZM 26.2781 33.0607C 25.5769 33.6512 25.055 34.258 24.7399 34.8479L 25.0931 35.0357C 25.3852 34.4838 25.858 33.9357 26.5356 33.3668L 26.2781 33.0607ZM 36.3126 21.8081C 35.9384 19.7894 34.4807 17.9972 32.5137 17.1215L 32.351 17.4869C 34.2055 18.3125 35.5706 20 35.9193 21.881L 36.3126 21.8081ZM 32.5138 17.1215C 32.0623 16.9203 31.5362 17.1276 31.338 17.5805L 31.7045 17.7408C 31.8147 17.489 32.1045 17.377 32.351 17.4868L 32.5138 17.1215ZM 31.338 17.5805C 31.1404 18.0326 31.3426 18.5621 31.7932 18.7627L 31.9559 18.3973C 31.7082 18.287 31.5941 17.9934 31.7045 17.7407L 31.338 17.5805ZM 31.7932 18.7627C 33.2378 19.4059 34.2952 20.7034 34.5611 22.1374L 34.9544 22.0645C 34.6625 20.4902 33.5104 19.0894 31.9559 18.3973L 31.7932 18.7627ZM 34.5611 22.1374C 34.7265 23.03 34.6601 24.3691 33.3653 25.6757L 33.6494 25.9573C 35.055 24.5388 35.1385 23.0577 34.9544 22.0645L 34.5611 22.1374ZM 33.3653 25.6757C 32.7982 26.2481 31.8682 26.6816 30.7984 26.9734C 29.7295 27.2656 28.5587 27.4077 27.5133 27.4164L 27.5168 27.8164C 28.5846 27.8069 29.8065 27.6581 30.9037 27.3593C 32.0001 27.0602 33.0097 26.6029 33.6494 25.9573L 33.3653 25.6757ZM 27.5133 27.4164C 24.9347 27.4405 22.4885 26.7697 20.4348 25.4928L 20.2239 25.8327C 22.3285 27.1363 24.883 27.8371 27.5168 27.8164L 27.5133 27.4164ZM 20.3728 25.858C 21.3762 25.6346 22.7214 25.2847 24.007 24.7949C 25.2898 24.3058 26.5418 23.6671 27.3489 22.8526L 27.0647 22.5711C 26.3191 23.3236 25.1323 23.9378 23.8645 24.4211C 22.5996 24.9037 21.2824 25.2457 20.2859 25.4675L 20.3728 25.858ZM 27.3488 22.8527C 27.696 22.5025 27.696 21.9352 27.3489 21.585L 27.0648 21.8666C 27.2574 22.0609 27.2574 22.3767 27.0648 22.571L 27.3488 22.8527ZM 27.3489 21.585C 27.0007 21.2338 26.4357 21.2337 26.0876 21.585L 26.3717 21.8666C 26.5633 21.6732 26.8731 21.6732 27.0648 21.8666L 27.3489 21.585ZM 26.0876 21.585C 25.3453 22.3342 23.8217 23.0677 21.643 23.6871L 21.7524 24.0718C 23.9415 23.4495 25.5522 22.6937 26.3717 21.8666L 26.0876 21.585ZM 21.643 23.6871C 19.9516 24.1682 18.4895 24.398 18.4745 24.4004L 18.5377 24.7954C 18.5343 24.7959 18.6377 24.7796 18.8065 24.7496C 18.9741 24.7198 19.2154 24.675 19.5087 24.6153C 20.0939 24.4961 20.8955 24.3153 21.7524 24.0718L 21.643 23.6871ZM 18.4753 24.4003C 18.1263 24.4546 17.8432 24.711 17.7512 25.0526L 18.1375 25.1566C 18.1888 24.966 18.3459 24.8252 18.5368 24.7955L 18.4753 24.4003ZM 17.7512 25.0528C 17.6596 25.3942 17.7754 25.7587 18.0485 25.9827L 18.3022 25.6734C 18.1515 25.5498 18.0863 25.3472 18.1375 25.1564L 17.7512 25.0528ZM 18.0485 25.9827C 20.584 28.0584 23.9159 29.2091 27.3904 29.2117L 27.3904 28.8117C 23.9821 28.8146 20.7792 27.7093 18.3022 25.6735L 18.0485 25.9827ZM 27.3904 29.2117C 27.436 29.2117 27.4827 29.2116 27.5285 29.2112L 27.525 28.8112C 27.4803 28.8116 27.4353 28.8117 27.3904 28.8117L 27.3904 29.2117ZM 27.5285 29.2112C 30.4742 29.1857 33.2685 28.314 34.6265 26.9436L 34.3424 26.6621C 33.0917 27.9241 30.4241 28.7861 27.5251 28.8112L 27.5285 29.2112ZM 34.6265 26.9436C 36.0542 25.5027 36.6591 23.6772 36.3126 21.8081L 35.9193 21.881C 36.2399 23.6101 35.6861 25.3059 34.3424 26.6621L 34.6265 26.9436ZM 32.5753 6.92529C 32.5753 7.31029 32.2659 7.62227 31.8844 7.62227L 31.8844 8.02227C 32.4904 8.02227 32.9753 7.5276 32.9753 6.92529L 32.5753 6.92529ZM 31.8844 6.22783C 32.2659 6.22783 32.5753 6.53974 32.5753 6.92529L 32.9753 6.92529C 32.9753 6.32257 32.4905 5.82783 31.8844 5.82783L 31.8844 6.22783ZM 31.1934 6.92529C 31.1934 6.53977 31.5029 6.22783 31.8844 6.22783L 31.8844 5.82783C 31.2783 5.82783 30.7934 6.32253 30.7934 6.92529L 31.1934 6.92529ZM 31.8844 7.62227C 31.5028 7.62227 31.1934 7.31025 31.1934 6.92529L 30.7934 6.92529C 30.7934 7.52764 31.2784 8.02227 31.8844 8.02227L 31.8844 7.62227Z"/>
</defs>
</svg>
