<svg width="65" height="67" viewBox="0 0 65 67" version="1.1" xmlns="http://www.w3.org/2000/svg" xmlns:xlink="http://www.w3.org/1999/xlink">
<title>Group</title>
<desc>Created using Figma</desc>
<g id="Canvas" transform="translate(1779 -4558)">
<g id="Group">
<g id="Fill 6">
<use xlink:href="#path0_fill" transform="translate(-1779 4558)" fill="url(#paint0_linear)"/>
</g>
<g id="Fill 54">
<use xlink:href="#path1_fill" transform="matrix(-1 1.20424e-16 -1.2454e-16 -1 -1725.79 4614.25)" fill="url(#paint1_linear)"/>
</g>
<g id="Fill 54">
<use xlink:href="#path2_fill" transform="matrix(-1 1.20424e-16 -1.2454e-16 -1 -1714.55 4601.71)" fill="url(#paint2_linear)"/>
</g>
</g>
</g>
<defs>
<linearGradient id="paint0_linear" x1="0" y1="0" x2="1" y2="0" gradientUnits="userSpaceOnUse" gradientTransform="matrix(-27.7621 87.3624 -57.2085 -42.3951 -30.9588 -20.4957)">
<stop offset="0" stop-color="#617EFF"/>
<stop offset="1" stop-color="#1740FF"/>
</linearGradient>
<linearGradient id="paint1_linear" x1="0" y1="0" x2="1" y2="0" gradientUnits="userSpaceOnUse" gradientTransform="matrix(-3.44504 9.05417 -9.20824 -3.3874 6.40163 3.47069e-08)">
<stop offset="0" stop-color="#FFEA94"/>
<stop offset="1" stop-color="#FFDC2E"/>
</linearGradient>
<linearGradient id="paint2_linear" x1="0" y1="0" x2="1" y2="0" gradientUnits="userSpaceOnUse" gradientTransform="matrix(-4.6577 12.2412 -12.4495 -4.57976 8.65501 4.69237e-08)">
<stop offset="0" stop-color="#FFEA94"/>
<stop offset="1" stop-color="#FFDC2E"/>
</linearGradient>
<path id="path0_fill" fill-rule="evenodd" d="M 16.1541 0.759047C 11.3286 1.81517 7.24385 4.05143 4.37378 8.12943C 1.81482 11.7686 0.738028 15.9086 0.265457 20.2353C -0.221665 24.6997 0.0180849 29.1545 0.528766 33.6011C 1.19258 39.3764 2.46409 45.0148 4.60105 50.4419C 6.43937 55.1099 8.76827 59.5 12.5821 62.9464C 15.4723 65.5574 18.8454 67.0148 22.8463 66.8547C 27.2706 66.6762 30.5086 64.0529 31.4739 59.8046C 32.0434 57.2985 31.7836 54.7911 31.3457 52.3006C 30.8897 49.7108 29.9356 47.2858 28.6045 44.8928C 28.9412 44.8281 29.1948 44.7954 29.4394 44.7293C 30.8253 44.3525 32.2665 44.1024 33.5817 43.558C 37.6415 41.8818 40.2074 38.7679 41.7595 34.8146C 43.6595 29.9789 44.0386 24.9348 43.6498 19.8149C 43.3477 15.8289 42.2716 12.0596 40.0321 8.69088C 36.4532 3.30669 31.3907 0.367259 24.8288 0.0415636C 24.2772 0.0136274 23.7256 0 23.1748 0C 20.814 0 18.4691 0.252107 16.1541 0.759047ZM 35.7339 13.3155C 35.3507 12.9605 35.0264 12.5333 34.7278 12.1027C 33.7341 10.6684 32.8396 9.15982 31.7635 7.78822C 30.1774 5.76591 28.1457 4.25804 25.6956 3.32661C 25.7184 3.25166 25.7406 3.17602 25.7635 3.10107C 26.9761 3.46288 28.215 3.75792 29.3971 4.20149C 31.9311 5.15404 34.2067 6.49907 35.8267 8.7217C 36.5792 9.75534 37.0075 10.8966 36.8911 12.1892C 36.8647 12.4815 36.8024 12.7793 36.7012 13.0552C 36.5876 13.3659 36.4019 13.5295 36.185 13.5295C 36.0436 13.5295 35.8891 13.4593 35.7339 13.3155ZM 20.3165 35.1774C 20.0913 34.0511 20.6436 33.1531 21.7425 32.7579C 24.122 31.9028 26.8729 34.3959 26.92 36.3589C 26.9304 36.7807 26.6338 37.2638 26.3497 37.6181C 26.1405 37.8777 25.7351 38.0222 25.3894 38.1291C 25.018 38.2429 24.614 38.2525 24.2239 38.307C 22.3391 38.2933 20.6747 36.9722 20.3165 35.1774ZM 17.244 38.274C 16.7943 37.5068 16.6821 36.6564 17.2191 35.6616C 17.5323 36.0057 17.8039 36.2381 17.9937 36.5236C 18.4767 37.2513 18.9119 38.0089 19.3872 38.7421C 20.2423 40.0612 21.4161 41.0444 22.7839 41.8267C 20.5437 41.2346 18.4719 40.3678 17.244 38.274Z"/>
<path id="path1_fill" fill-rule="evenodd" d="M 0 4.52739C 0 7.02731 2.06121 9.05417 4.60412 9.05417C 7.14704 9.05417 9.20824 7.02731 9.20824 4.52739C 9.20824 2.02685 7.14704 0 4.60412 0C 2.06121 0 0 2.02685 0 4.52739ZM 3.43204 7.29508C 2.9268 7.16479 2.44447 6.97057 2.02839 6.65275C 1.88722 6.54376 1.751 6.41164 1.6606 6.26248C 1.59249 6.15045 1.57454 5.99215 1.58073 5.85698C 1.5894 5.65302 1.7349 5.57265 1.91694 5.67433C 2.07173 5.7614 2.21909 5.87708 2.33921 6.00798C 3.05249 6.78426 3.91189 7.31883 4.94652 7.57454C 4.96076 7.5782 4.97314 7.58794 4.98677 7.59403C 4.98305 7.61046 4.97872 7.6269 4.975 7.64273C 4.45985 7.52827 3.94161 7.4272 3.43204 7.29508Z"/>
<path id="path2_fill" fill-rule="evenodd" d="M 0 6.12103C 0 9.50093 2.78675 12.2412 6.22477 12.2412C 9.6628 12.2412 12.4495 9.50093 12.4495 6.12103C 12.4495 2.7403 9.6628 0 6.22477 0C 2.78675 0 0 2.7403 0 6.12103ZM 4.64013 9.8625C 3.95705 9.68635 3.30494 9.42376 2.7424 8.99407C 2.55153 8.84672 2.36737 8.6681 2.24515 8.46642C 2.15307 8.31496 2.12879 8.10094 2.13716 7.9182C 2.14888 7.64244 2.3456 7.53378 2.59172 7.67125C 2.80099 7.78896 3.00023 7.94536 3.16263 8.12234C 4.12698 9.17187 5.28889 9.89461 6.68771 10.2403C 6.70696 10.2453 6.72371 10.2584 6.74212 10.2667C 6.7371 10.2889 6.73124 10.3111 6.72622 10.3325C 6.02974 10.1778 5.32907 10.0411 4.64013 9.8625Z"/>
</defs>
</svg>
