<svg width="18" height="18" viewBox="0 0 18 18" version="1.1" xmlns="http://www.w3.org/2000/svg" xmlns:xlink="http://www.w3.org/1999/xlink">
<title>param&#195;&#168;tres</title>
<desc>Created using Figma</desc>
<g id="Canvas" transform="translate(1421 -5257)">
<g id="param&#195;&#168;tres">
<g id="Subtract">
<use xlink:href="#path0_fill" transform="translate(-1419 5259)" fill="#1740FF"/>
</g>
<g id="Path">
<use xlink:href="#path1_fill" transform="translate(-1413.42 5257)" fill="#1740FF"/>
</g>
<g id="Path">
<use xlink:href="#path1_fill" transform="matrix(0.707107 0.707107 -0.707107 0.707107 -1406.64 5258.63)" fill="#1740FF"/>
</g>
<g id="Path">
<use xlink:href="#path1_fill" transform="matrix(6.12323e-17 1 -1 6.12323e-17 -1403 5264.58)" fill="#1740FF"/>
</g>
<g id="Path">
<use xlink:href="#path1_fill" transform="matrix(-0.707107 0.707107 -0.707107 -0.707107 -1404.63 5271.36)" fill="#1740FF"/>
</g>
<g id="Path">
<use xlink:href="#path1_fill" transform="matrix(-1 1.22465e-16 -1.22465e-16 -1 -1410.58 5275)" fill="#1740FF"/>
</g>
<g id="Path">
<use xlink:href="#path1_fill" transform="matrix(-0.707107 -0.707107 0.707107 -0.707107 -1417.36 5273.37)" fill="#1740FF"/>
</g>
<g id="Path">
<use xlink:href="#path1_fill" transform="matrix(-1.83697e-16 -1 1 -1.83697e-16 -1421 5267.42)" fill="#1740FF"/>
</g>
<g id="Path">
<use xlink:href="#path1_fill" transform="matrix(0.707107 -0.707107 0.707107 0.707107 -1419.37 5260.64)" fill="#1740FF"/>
</g>
</g>
</g>
<defs>
<path id="path0_fill" fill-rule="evenodd" d="M 14 7C 14 10.8662 10.866 14 7 14C 3.13403 14 0 10.8662 0 7C 0 3.13379 3.13403 0 7 0C 10.866 0 14 3.13379 14 7ZM 10.6 7C 10.6 8.98828 8.98828 10.6001 7 10.6001C 5.01184 10.6001 3.40002 8.98828 3.40002 7C 3.40002 5.01172 5.01184 3.3999 7 3.3999C 8.98828 3.3999 10.6 5.01172 10.6 7Z"/>
<path id="path1_fill" fill-rule="evenodd" d="M 0 1.42105C 0 0.636227 0.636227 0 1.42105 0C 2.20588 0 2.84211 0.636227 2.84211 1.42105L 2.84211 2.84211L 0 2.84211L 0 1.42105Z"/>
</defs>
</svg>
