<svg width="49" height="50" viewBox="0 0 49 50" version="1.1" xmlns="http://www.w3.org/2000/svg" xmlns:xlink="http://www.w3.org/1999/xlink">
<title>clapsvg</title>
<desc>Created using Figma</desc>
<g id="Canvas" transform="translate(1447 -5385)">
<g id="clapsvg">
<g id="Vector">
<use xlink:href="#path0_fill" transform="translate(-1443.99 5394.63)" fill="#1740FF"/>
<mask id="mask0_outline_out">
<rect id="mask0_outline_inv" fill="white" x="-1" y="-1" width="47" height="41" transform="translate(-1443.99 5394.63)"/>
<use xlink:href="#path0_fill" fill="black" transform="translate(-1443.99 5394.63)"/>
</mask>
<g mask="url(#mask0_outline_out)">
<use xlink:href="#path1_stroke_2x" transform="translate(-1443.99 5394.63)" fill="#1740FF"/>
</g>
</g>
<g id="Vector">
<use xlink:href="#path2_fill" transform="translate(-1444.03 5387.98)" fill="#1740FF"/>
<mask id="mask1_outline_out">
<rect id="mask1_outline_inv" fill="white" x="-1" y="-1" width="9" height="9" transform="translate(-1444.03 5387.98)"/>
<use xlink:href="#path2_fill" fill="black" transform="translate(-1444.03 5387.98)"/>
</mask>
<g mask="url(#mask1_outline_out)">
<use xlink:href="#path3_stroke_2x" transform="translate(-1444.03 5387.98)" fill="#1740FF"/>
</g>
</g>
<g id="Vector">
<use xlink:href="#path4_fill" transform="translate(-1446 5394.65)" fill="#1740FF"/>
<mask id="mask2_outline_out">
<rect id="mask2_outline_inv" fill="white" x="-1" y="-1" width="8" height="5" transform="translate(-1446 5394.65)"/>
<use xlink:href="#path4_fill" fill="black" transform="translate(-1446 5394.65)"/>
</mask>
<g mask="url(#mask2_outline_out)">
<use xlink:href="#path5_stroke_2x" transform="translate(-1446 5394.65)" fill="#1740FF"/>
</g>
</g>
<g id="Vector">
<use xlink:href="#path6_fill" transform="translate(-1435.94 5386)" fill="#1740FF"/>
<mask id="mask3_outline_out">
<rect id="mask3_outline_inv" fill="white" x="-1" y="-1" width="4" height="8" transform="translate(-1435.94 5386)"/>
<use xlink:href="#path6_fill" fill="black" transform="translate(-1435.94 5386)"/>
</mask>
<g mask="url(#mask3_outline_out)">
<use xlink:href="#path7_stroke_2x" transform="translate(-1435.94 5386)" fill="#1740FF"/>
</g>
</g>
</g>
</g>
<defs>
<path id="path0_fill" d="M 44.9376 23.9043L 44.9376 23.8303C 44.8266 22.8397 44.5452 21.8761 44.106 20.9821L 38.858 6.59835C 38.7172 6.07236 38.4374 5.59435 38.0482 5.21484C 37.6591 4.83533 37.175 4.56844 36.6472 4.44237C 36.0119 4.29919 35.3507 4.3211 34.7262 4.50604C 34.1017 4.69097 33.5346 5.03282 33.0784 5.49922C 32.701 5.88744 32.4349 6.37062 32.3079 6.89789C 32.181 7.42516 32.1981 7.97702 32.3573 8.49539L 32.3573 8.58522L 25.2459 1.40393C 23.5773 -0.271181 21.5192 0.0405897 20.3454 1.21369C 19.9082 1.64911 19.6002 2.19797 19.4558 2.79897L 17.7398 1.0763C 17.1299 0.42109 16.2865 0.034933 15.3938 0.00225589C 14.5011 -0.0304212 13.6319 0.29304 12.9761 0.901923C 12.5389 1.27632 12.1974 1.75048 11.9803 2.28467C 11.7633 2.81885 11.677 3.39749 11.7286 3.97207C 10.8978 3.96332 10.0943 4.26892 9.47783 4.82804C 8.86138 5.38716 8.47725 6.1588 8.40189 6.98938L 6.46483 5.51507C 5.9982 5.12732 5.43579 4.87348 4.83717 4.78045C 4.23855 4.68743 3.62601 4.75867 3.06444 4.98665C 2.47072 5.2432 1.95319 5.64954 1.56213 6.16621C 1.17106 6.68287 0.919747 7.29229 0.832604 7.93526C 0.762081 8.52376 0.847604 9.12051 1.08052 9.66518C 1.31344 10.2098 1.6855 10.6831 2.15907 11.0371C 1.55847 11.243 1.03255 11.6238 0.648373 12.131C -0.362268 13.4679 -0.320158 15.6238 1.70112 17.1721L 3.18024 18.2977C 2.50504 18.5084 1.91713 18.9353 1.50637 19.5131C 0.579944 20.8288 0.569417 22.9954 2.72229 24.6388L 19.6874 37.5905C 21.3138 38.8343 23.3265 39.4594 25.3684 39.3549C 27.4103 39.2505 29.3493 38.4231 30.8413 37.0198C 32.2541 37.319 33.7189 37.2598 35.1031 36.8473C 36.4873 36.4349 37.7471 35.6823 38.7685 34.6577L 42.4531 30.9587C 43.323 30.0844 43.9977 29.0343 44.4324 27.8782C 44.8671 26.7221 45.0519 25.4863 44.9745 24.253C 44.9881 24.1355 44.9755 24.0163 44.9376 23.9043ZM 10.2495 6.35527C 10.4006 6.11803 10.6083 5.92232 10.8536 5.78578C 11.099 5.64924 11.3744 5.57619 11.6549 5.5732C 11.9572 5.57714 12.2544 5.6513 12.5234 5.78985L 12.6971 5.98537C 12.1235 6.10473 11.5928 6.37813 11.1618 6.77643C 10.7307 7.17473 10.4154 7.68299 10.2495 8.24703C 10.061 7.96789 9.9602 7.6384 9.9602 7.30115C 9.9602 6.96391 10.061 6.63442 10.2495 6.35527ZM 2.4012 8.18362C 2.45673 7.81955 2.60313 7.4755 2.82678 7.18353C 3.05044 6.89156 3.34406 6.66116 3.6803 6.5138C 3.9846 6.38831 4.31774 6.35052 4.64226 6.40466C 4.96678 6.4588 5.26983 6.60274 5.51735 6.82028L 9.61782 9.93799L 10.439 10.5615C 10.4653 10.6302 10.4916 10.6989 10.5232 10.7676C 10.7586 11.2384 11.0699 11.6669 11.4443 12.0358L 12.7445 13.3463C 12.4276 13.4032 12.1208 13.5064 11.8339 13.6528C 11.1395 14.0069 10.597 14.6022 10.3074 15.3279L 5.84897 11.9354L 5.77001 11.8615L 3.1855 9.89572C 2.9079 9.71299 2.68712 9.45552 2.54842 9.15275C 2.40973 8.84998 2.35871 8.51413 2.4012 8.18362ZM 20.6454 36.3275L 3.69083 23.4234C 2.36436 22.4141 2.29067 21.2146 2.81178 20.4748C 2.97073 20.2503 3.18177 20.068 3.42664 19.9437C 3.67151 19.8194 3.94285 19.7568 4.2172 19.7614C 4.74609 19.7799 5.2582 19.9525 5.69105 20.2581L 13.2445 26.0127C 13.3267 26.08 13.4216 26.13 13.5235 26.1597C 13.6254 26.1894 13.7322 26.1982 13.8375 26.1856C 13.9429 26.1729 14.0446 26.1391 14.1366 26.0861C 14.2286 26.0331 14.3091 25.962 14.3731 25.8771C 14.4372 25.7922 14.4835 25.6952 14.5094 25.5919C 14.5353 25.4886 14.5402 25.3811 14.5238 25.2759C 14.5074 25.1707 14.47 25.0699 14.4139 24.9795C 14.3578 24.8891 14.2841 24.8109 14.1973 24.7498L 6.97541 19.2488L 6.91751 19.196L 6.80171 19.1115L 2.66966 15.9409C 1.40109 14.9792 1.37477 13.8272 1.91167 13.1244C 2.44858 12.4216 3.53818 12.1415 4.79095 13.0768L 4.84885 13.135L 10.1126 17.1457C 10.2963 18.0656 10.7598 18.9057 11.4391 19.55L 19.3347 27.4764L 24.5353 32.6973C 25.4587 33.7347 26.4619 34.6976 27.5356 35.5772C 27.9869 35.904 28.4681 36.1871 28.9727 36.4227L 29.0727 36.4702C 27.8373 37.3539 26.3523 37.8168 24.8356 37.7911C 23.319 37.7654 21.8504 37.2525 20.6454 36.3275ZM 41.3056 29.8596L 37.621 33.5586C 36.2877 34.8948 34.4807 35.6453 32.5968 35.6453C 30.7128 35.6453 28.9058 34.8948 27.5725 33.5586L 12.5603 18.4351C 12.0539 17.9768 11.7304 17.3497 11.6496 16.6701C 11.6214 16.3404 11.6921 16.0098 11.8524 15.7208C 12.0128 15.4317 12.2557 15.1973 12.5497 15.0479C 12.949 14.8868 13.3865 14.8465 13.8083 14.9319C 14.2302 15.0174 14.6179 15.2248 14.9237 15.5287L 21.6718 22.3031C 21.8215 22.4432 22.0195 22.5194 22.224 22.5158C 22.4286 22.5121 22.6237 22.4289 22.7684 22.2837C 22.9131 22.1385 22.9959 21.9426 22.9995 21.7372C 23.0031 21.5319 22.9272 21.3331 22.7877 21.1829L 12.5603 10.8997C 12.2331 10.5883 11.9826 10.2048 11.8286 9.77946C 11.6902 9.42052 11.6796 9.0246 11.7985 8.65869C 11.9174 8.29278 12.1586 7.97936 12.4813 7.77145C 13.0761 7.39627 14.0604 7.35928 15.0816 8.37385C 15.0816 8.37385 15.0816 8.37385 15.0816 8.41084L 25.3091 18.6676C 25.4588 18.8076 25.6567 18.8838 25.8613 18.8802C 26.0658 18.8766 26.261 18.7934 26.4056 18.6482C 26.5503 18.5029 26.6332 18.307 26.6368 18.1017C 26.6404 17.8963 26.5645 17.6976 26.425 17.5473L 16.2186 7.2853C 16.209 7.27053 16.1984 7.2564 16.187 7.24302L 13.8973 4.92852C 13.8172 4.85125 13.745 4.7663 13.6814 4.67488C 13.5335 4.4839 13.4248 4.26536 13.3617 4.03191C 13.2985 3.79846 13.2821 3.55475 13.3135 3.3149C 13.3448 3.07505 13.4232 2.84382 13.5442 2.63462C 13.6652 2.42541 13.8264 2.24239 14.0183 2.09616C 14.1943 1.9227 14.4037 1.78714 14.6337 1.6978C 14.8636 1.60846 15.1094 1.56723 15.3558 1.57663C 15.6023 1.58603 15.8442 1.64587 16.0668 1.75247C 16.2893 1.85907 16.4879 2.01019 16.6502 2.19656L 29.1832 14.7731C 29.3356 14.8628 29.5136 14.8986 29.6887 14.8747C 29.8638 14.8509 30.0258 14.7688 30.1489 14.6415C 30.272 14.5143 30.349 14.3493 30.3677 14.1729C 30.3863 13.9966 30.3455 13.819 30.2517 13.6687L 21.6508 5.01307C 20.6664 4.02492 20.8454 2.9575 21.4613 2.33396C 22.0771 1.71041 23.1404 1.53075 24.13 2.52419L 33.4574 11.8879C 33.5814 12.0121 33.7429 12.0913 33.9167 12.1132C 34.0905 12.1351 34.2666 12.0984 34.4173 12.0088C 34.568 11.9193 34.6847 11.782 34.7492 11.6185C 34.8137 11.455 34.8221 11.2747 34.7733 11.1058L 33.889 8.05151C 33.8021 7.80085 33.7871 7.53071 33.8457 7.27191C 33.9044 7.0131 34.0343 6.77605 34.2206 6.58778C 34.4868 6.32527 34.8135 6.1329 35.1717 6.0278C 35.5299 5.9227 35.9084 5.90813 36.2735 5.98537C 36.5403 6.04829 36.7839 6.18598 36.9759 6.38243C 37.1678 6.57888 37.3003 6.82601 37.3578 7.09506L 42.6216 21.5686L 42.6584 21.6479C 43.0349 22.4058 43.2721 23.2256 43.3585 24.0681C 43.3573 24.0927 43.3573 24.1174 43.3585 24.1421C 43.3585 24.1421 43.3585 24.1791 43.3585 24.2002C 43.4481 25.2367 43.3108 26.2804 42.9562 27.2581C 42.6016 28.2357 42.0382 29.1236 41.3056 29.8596Z"/>
<path id="path1_stroke_2x" d="M 44.9376 23.8303L 45.1876 23.8303L 45.1876 23.8163L 45.1861 23.8024L 44.9376 23.8303ZM 44.106 20.9821L 43.8711 21.0678L 43.8757 21.0803L 43.8816 21.0923L 44.106 20.9821ZM 38.858 6.59835L 38.6165 6.663L 38.6194 6.67366L 38.6231 6.68403L 38.858 6.59835ZM 36.6472 4.44237L 36.7053 4.19919L 36.7022 4.19849L 36.6472 4.44237ZM 33.0784 5.49922L 32.8997 5.32441L 32.8991 5.32497L 33.0784 5.49922ZM 32.3573 8.49539L 32.6073 8.49539L 32.6073 8.45787L 32.5962 8.42201L 32.3573 8.49539ZM 32.3573 8.58522L 32.1796 8.76113L 32.6073 9.19298L 32.6073 8.58522L 32.3573 8.58522ZM 25.2459 1.40393L 25.4236 1.22802L 25.423 1.22749L 25.2459 1.40393ZM 20.3454 1.21369L 20.5218 1.39083L 20.5221 1.39052L 20.3454 1.21369ZM 19.4558 2.79897L 19.2787 2.9754L 19.5944 3.29233L 19.6989 2.85737L 19.4558 2.79897ZM 17.7398 1.0763L 17.5567 1.24673L 17.5627 1.25274L 17.7398 1.0763ZM 12.9761 0.901923L 13.1388 1.09197L 13.1462 1.08513L 12.9761 0.901923ZM 11.7286 3.97207L 11.7259 4.22206L 12.0023 4.22497L 11.9776 3.9497L 11.7286 3.97207ZM 8.40189 6.98938L 8.25048 7.18832L 8.61004 7.46198L 8.65087 7.01197L 8.40189 6.98938ZM 6.46483 5.51507L 6.3049 5.70753L 6.31342 5.71401L 6.46483 5.51507ZM 3.06444 4.98665L 2.97038 4.75495L 2.96527 4.75716L 3.06444 4.98665ZM 0.832604 7.93526L 0.58484 7.90168L 0.58438 7.90551L 0.832604 7.93526ZM 2.15907 11.0371L 2.24014 11.2736L 2.68772 11.1202L 2.30875 10.8369L 2.15907 11.0371ZM 0.648373 12.131L 0.449095 11.98L 0.448944 11.9802L 0.648373 12.131ZM 1.70112 17.1721L 1.5491 17.3706L 1.54973 17.3711L 1.70112 17.1721ZM 3.18024 18.2977L 3.25472 18.5363L 3.71706 18.392L 3.33163 18.0987L 3.18024 18.2977ZM 1.50637 19.5131L 1.30261 19.3682L 1.30195 19.3691L 1.50637 19.5131ZM 2.72229 24.6388L 2.874 24.4401L 2.87399 24.4401L 2.72229 24.6388ZM 19.6874 37.5905L 19.8393 37.3919L 19.8391 37.3918L 19.6874 37.5905ZM 30.8413 37.0198L 30.8931 36.7752L 30.7652 36.7481L 30.67 36.8377L 30.8413 37.0198ZM 38.7685 34.6577L 38.9456 34.8342L 38.9456 34.8342L 38.7685 34.6577ZM 42.4531 30.9587L 42.6303 31.1352L 42.6304 31.1351L 42.4531 30.9587ZM 44.9745 24.253L 44.7261 24.2242L 44.7236 24.2464L 44.725 24.2687L 44.9745 24.253ZM 11.6549 5.5732L 11.6582 5.32315L 11.6522 5.32321L 11.6549 5.5732ZM 12.6971 5.98537L 12.748 6.23013L 13.1708 6.14216L 12.884 5.81933L 12.6971 5.98537ZM 10.2495 8.24703L 10.0423 8.38694L 10.3394 8.82698L 10.4893 8.31759L 10.2495 8.24703ZM 9.9602 7.30115L 9.7102 7.30115L 9.9602 7.30115ZM 3.6803 6.5138L 3.58497 6.28262L 3.57994 6.28482L 3.6803 6.5138ZM 5.51735 6.82028L 5.35231 7.00806L 5.35897 7.01392L 5.36604 7.01929L 5.51735 6.82028ZM 9.61782 9.93799L 9.4665 10.137L 9.46663 10.1371L 9.61782 9.93799ZM 10.439 10.5615L 10.6724 10.4721L 10.6469 10.4055L 10.5902 10.3624L 10.439 10.5615ZM 10.5232 10.7676L 10.2959 10.8721L 10.2996 10.8795L 10.5232 10.7676ZM 11.4443 12.0358L 11.6218 11.8598L 11.6198 11.8578L 11.4443 12.0358ZM 12.7445 13.3463L 12.7886 13.5924L 13.2574 13.5084L 12.922 13.1703L 12.7445 13.3463ZM 11.8339 13.6528L 11.9474 13.8755L 11.9475 13.8755L 11.8339 13.6528ZM 10.3074 15.3279L 10.156 15.5269L 10.4177 15.726L 10.5396 15.4206L 10.3074 15.3279ZM 5.84897 11.9354L 5.67803 12.1179L 5.68738 12.1266L 5.69758 12.1344L 5.84897 11.9354ZM 5.77001 11.8615L 5.94094 11.679L 5.93157 11.6702L 5.92135 11.6625L 5.77001 11.8615ZM 3.1855 9.89572L 3.33685 9.69673L 3.33007 9.69158L 3.32296 9.6869L 3.1855 9.89572ZM 20.6454 36.3275L 20.7976 36.1292L 20.7968 36.1286L 20.6454 36.3275ZM 3.69083 23.4234L 3.84223 23.2245L 3.84221 23.2244L 3.69083 23.4234ZM 2.81178 20.4748L 2.60773 20.3303L 2.60739 20.3308L 2.81178 20.4748ZM 4.2172 19.7614L 4.22593 19.5115L 4.22138 19.5114L 4.2172 19.7614ZM 5.69105 20.2581L 5.84266 20.0591L 5.83526 20.0539L 5.69105 20.2581ZM 13.2445 26.0127L 13.4031 25.8192L 13.396 25.8138L 13.2445 26.0127ZM 14.1973 24.7498L 14.0457 24.9488L 14.0533 24.9541L 14.1973 24.7498ZM 6.97541 19.2488L 6.80689 19.4335L 6.81509 19.441L 6.82393 19.4477L 6.97541 19.2488ZM 6.91751 19.196L 7.08603 19.0113L 7.07595 19.0021L 7.06493 18.9941L 6.91751 19.196ZM 6.80171 19.1115L 6.64948 19.3098L 6.65429 19.3134L 6.80171 19.1115ZM 2.66966 15.9409L 2.82185 15.7426L 2.82069 15.7417L 2.66966 15.9409ZM 4.79095 13.0768L 4.96807 12.9004L 4.95517 12.8874L 4.94051 12.8765L 4.79095 13.0768ZM 4.84885 13.135L 4.67173 13.3114L 4.68377 13.3235L 4.69733 13.3338L 4.84885 13.135ZM 10.1126 17.1457L 10.3578 17.0968L 10.3393 17.0041L 10.2641 16.9469L 10.1126 17.1457ZM 11.4391 19.55L 11.6163 19.3735L 11.6111 19.3687L 11.4391 19.55ZM 19.3347 27.4764L 19.5118 27.3L 19.5118 27.3L 19.3347 27.4764ZM 24.5353 32.6973L 24.7223 32.5308L 24.7124 32.5208L 24.5353 32.6973ZM 27.5356 35.5772L 27.3772 35.7706L 27.383 35.7753L 27.389 35.7796L 27.5356 35.5772ZM 28.9727 36.4227L 29.08 36.1969L 29.0784 36.1961L 28.9727 36.4227ZM 29.0727 36.4702L 29.2181 36.6736L 29.5632 36.4267L 29.18 36.2444L 29.0727 36.4702ZM 37.621 33.5586L 37.798 33.7352L 37.7981 33.735L 37.621 33.5586ZM 32.5968 35.6453L 32.5968 35.8953L 32.5968 35.6453ZM 27.5725 33.5586L 27.3951 33.7347L 27.3955 33.7352L 27.5725 33.5586ZM 12.5603 18.4351L 12.7379 18.2587L 12.728 18.2497L 12.5603 18.4351ZM 11.6496 16.6701L 11.4004 16.6914L 11.4014 16.6996L 11.6496 16.6701ZM 12.5497 15.0479L 12.4562 14.816L 12.4461 14.8201L 12.4364 14.825L 12.5497 15.0479ZM 21.6718 22.3031L 21.4946 22.4797L 21.501 22.4857L 21.6718 22.3031ZM 22.7877 21.1829L 22.9711 21.0127L 22.965 21.0066L 22.7877 21.1829ZM 12.5603 10.8997L 12.7376 10.7234L 12.7326 10.7186L 12.5603 10.8997ZM 11.8286 9.77946L 12.0637 9.69433L 12.0619 9.68953L 11.8286 9.77946ZM 12.4813 7.77145L 12.3479 7.55999L 12.3459 7.5613L 12.4813 7.77145ZM 15.0816 8.37385L 14.9054 8.5512L 15.3316 8.97465L 15.3316 8.37385L 15.0816 8.37385ZM 15.0816 8.41084L 14.8316 8.41084L 14.8316 8.51419L 14.9046 8.58737L 15.0816 8.41084ZM 25.3091 18.6676L 25.1319 18.8442L 25.1383 18.8501L 25.3091 18.6676ZM 26.425 17.5473L 26.6083 17.3771L 26.6023 17.371L 26.425 17.5473ZM 16.2186 7.2853L 16.0089 7.42144L 16.023 7.4432L 16.0413 7.46159L 16.2186 7.2853ZM 16.187 7.24302L 16.377 7.08056L 16.3711 7.07366L 16.3647 7.0672L 16.187 7.24302ZM 13.8973 4.92852L 14.075 4.75265L 14.0709 4.74869L 13.8973 4.92852ZM 13.6814 4.67488L 13.887 4.53204L 13.8791 4.5218L 13.6814 4.67488ZM 14.0183 2.09616L 14.1698 2.29503L 14.1825 2.28538L 14.1938 2.27419L 14.0183 2.09616ZM 16.0668 1.75247L 16.1747 1.527L 16.0668 1.75247ZM 16.6502 2.19656L 16.4617 2.36076L 16.4672 2.36709L 16.4731 2.37303L 16.6502 2.19656ZM 29.1832 14.7731L 29.0061 14.9496L 29.0288 14.9723L 29.0564 14.9885L 29.1832 14.7731ZM 30.2517 13.6687L 30.4639 13.5364L 30.449 13.5125L 30.4291 13.4925L 30.2517 13.6687ZM 21.6508 5.01307L 21.8281 4.83685L 21.8279 4.83664L 21.6508 5.01307ZM 24.13 2.52419L 23.9529 2.70062L 24.13 2.52419ZM 33.4574 11.8879L 33.2803 12.0643L 33.2805 12.0645L 33.4574 11.8879ZM 34.7733 11.1058L 35.0135 11.0364L 35.0135 11.0363L 34.7733 11.1058ZM 33.889 8.05151L 34.1295 7.98189L 34.1252 7.96962L 33.889 8.05151ZM 34.2206 6.58778L 34.0451 6.40976L 34.0429 6.41191L 34.2206 6.58778ZM 36.2735 5.98537L 36.3309 5.74198L 36.3252 5.74079L 36.2735 5.98537ZM 37.3578 7.09506L 37.1133 7.14734L 37.117 7.16425L 37.1229 7.18051L 37.3578 7.09506ZM 42.6216 21.5686L 42.3866 21.6541L 42.3903 21.6642L 42.3949 21.674L 42.6216 21.5686ZM 42.6584 21.6479L 42.4316 21.7533L 42.4345 21.7591L 42.6584 21.6479ZM 43.3585 24.0681L 43.6082 24.0805L 43.6091 24.0615L 43.6072 24.0426L 43.3585 24.0681ZM 43.3585 24.1421L 43.6088 24.1421L 43.6082 24.1296L 43.3585 24.1421ZM 43.3585 24.2002L 43.1085 24.2002L 43.1085 24.211L 43.1094 24.2217L 43.3585 24.2002ZM 45.1876 23.9043L 45.1876 23.8303L 44.6876 23.8303L 44.6876 23.9043L 45.1876 23.9043ZM 45.1861 23.8024C 45.0717 22.7906 44.7782 21.7856 44.3303 20.8718L 43.8816 21.0923C 44.3121 21.9665 44.5814 22.8889 44.6892 23.8581L 45.1861 23.8024ZM 44.3408 20.8964L 39.0928 6.51266L 38.6231 6.68403L 43.8711 21.0678L 44.3408 20.8964ZM 39.0995 6.53369C 38.9479 5.97603 38.6343 5.44033 38.2228 5.03586L 37.8737 5.39382C 38.2405 5.74836 38.4865 6.16869 38.6165 6.663L 39.0995 6.53369ZM 38.2228 5.03586C 37.8081 4.63457 37.2652 4.33528 36.7053 4.19921L 36.5891 4.68553C 37.0848 4.80159 37.5101 5.0361 37.8737 5.39382L 38.2228 5.03586ZM 36.7022 4.19849C 36.0355 4.0503 35.3108 4.07431 34.6553 4.26633L 34.7972 4.74575C 35.3907 4.56789 35.9884 4.54808 36.5923 4.68625L 36.7022 4.19849ZM 34.6553 4.26633C 34.0009 4.46221 33.3794 4.83678 32.8997 5.32442L 33.2571 5.67403C 33.6897 5.22886 34.2026 4.91974 34.7972 4.74575L 34.6553 4.26633ZM 32.8991 5.32497C 32.5001 5.73868 32.2018 6.28025 32.0649 6.83939L 32.551 6.95639C 32.668 6.46099 32.9019 6.03621 33.2576 5.67348L 32.8991 5.32497ZM 32.0649 6.83939C 31.9324 7.39954 31.9514 8.01793 32.1183 8.56878L 32.5962 8.42201C 32.4447 7.93611 32.4297 7.45078 32.551 6.95639L 32.0649 6.83939ZM 32.1073 8.49539L 32.1073 8.58522L 32.6073 8.58522L 32.6073 8.49539L 32.1073 8.49539ZM 32.5349 8.40931L 25.4236 1.22802L 25.0683 1.57984L 32.1796 8.76113L 32.5349 8.40931ZM 25.423 1.22749C 23.6507 -0.551703 21.434 -0.227699 20.1686 1.03686L 20.5221 1.39052C 21.6044 0.308878 23.5039 0.00934087 25.0688 1.58036L 25.423 1.22749ZM 20.1689 1.03656C 19.7091 1.49793 19.3674 2.10673 19.2127 2.74057L 19.6989 2.85737C 19.8329 2.28921 20.1073 1.80029 20.5218 1.39083L 20.1689 1.03656ZM 19.6329 2.62254L 17.9169 0.89987L 17.5627 1.25274L 19.2787 2.9754L 19.6329 2.62254ZM 17.9228 0.905972C 17.2679 0.202387 16.362 -0.212471 15.4029 -0.247577L 15.3846 0.252089C 16.211 0.282337 16.992 0.639793 17.5568 1.24663L 17.9228 0.905972ZM 15.4029 -0.247577C 14.4439 -0.282683 13.5102 0.0648381 12.806 0.718716L 13.1462 1.08513C 13.7535 0.521242 14.5583 0.22184 15.3846 0.252089L 15.4029 -0.247577ZM 12.8135 0.712028C 12.3548 1.10712 11.9786 1.62952 11.7487 2.19056L 12.212 2.37878C 12.4162 1.87144 12.7229 1.44551 13.1387 1.09182L 12.8135 0.712028ZM 11.7487 2.19056C 11.5222 2.75288 11.4271 3.39018 11.4796 3.99445L 11.9776 3.9497C 11.9268 3.4048 12.0044 2.88482 12.212 2.37878L 11.7487 2.19056ZM 11.7312 3.72209C 10.854 3.7172 9.9636 4.05579 9.30987 4.64286L 9.64579 5.01322C 10.225 4.48204 10.9417 4.20944 11.7259 4.22206L 11.7312 3.72209ZM 9.30987 4.64286C 8.66206 5.23626 8.23672 6.09063 8.15291 6.96679L 8.65087 7.01197C 8.71777 6.22697 9.0607 5.53806 9.64579 5.01322L 9.30987 4.64286ZM 8.5533 6.79045L 6.61624 5.31614L 6.31342 5.71401L 8.25048 7.18832L 8.5533 6.79045ZM 6.6246 5.3228C 6.13071 4.91532 5.50705 4.63385 4.87556 4.53342L 4.79878 5.02749C 5.36452 5.11311 5.86569 5.33931 6.30505 5.70735L 6.6246 5.3228ZM 4.87556 4.53342C 4.24334 4.43747 3.56399 4.51649 2.9704 4.75501L 3.15847 5.21829C 3.68803 5.00086 4.23375 4.93738 4.79878 5.02749L 4.87556 4.53342ZM 2.96527 4.75716C 2.34289 5.02836 1.77486 5.47434 1.36279 6.01533L 1.76146 6.31709C 2.13153 5.82475 2.59856 5.45804 3.1636 5.21614L 2.96527 4.75716ZM 1.36279 6.01533C 0.954044 6.55875 0.678338 7.22731 0.584869 7.90168L 1.08034 7.96884C 1.16116 7.35726 1.38807 6.80699 1.76146 6.31709L 1.36279 6.01533ZM 0.58438 7.90551C 0.512098 8.52664 0.606877 9.18797 0.85066 9.76348L 1.31039 9.56688C 1.08833 9.05305 1.01206 8.52087 1.08083 7.96501L 0.58438 7.90551ZM 0.85066 9.76348C 1.0984 10.3373 1.51089 10.862 2.00939 11.2374L 2.30875 10.8369C 1.86012 10.5042 1.52849 10.0823 1.31039 9.56688L 0.85066 9.76348ZM 2.078 10.8006C 1.44336 11.0211 0.85769 11.4451 0.449095 11.98L 0.847651 12.2819C 1.2074 11.8025 1.67357 11.4649 2.24014 11.2736L 2.078 10.8006ZM 0.448944 11.9802C -0.649095 13.4327 -0.575265 15.7434 1.5491 17.3706L 1.85315 16.9737C -0.0650516 15.5043 -0.0754417 13.503 0.847802 12.2817L 0.448944 11.9802ZM 1.54973 17.3711L 3.02885 18.4966L 3.33163 18.0987L 1.85252 16.9732L 1.54973 17.3711ZM 3.10576 18.059C 2.39287 18.285 1.73948 18.7594 1.30261 19.3682L 1.71012 19.6579C 2.09479 19.1112 2.6172 18.7318 3.25472 18.5363L 3.10576 18.059ZM 1.30195 19.3691C 0.295248 20.7989 0.315074 23.1157 2.5706 24.8375L 2.87399 24.4401C 0.823759 22.875 0.864641 20.8587 1.71078 19.657L 1.30195 19.3691ZM 2.57059 24.8375L 19.5357 37.7892L 19.8391 37.3918L 2.874 24.4401L 2.57059 24.8375ZM 19.5355 37.7891C 21.199 39.0564 23.2953 39.7075 25.3812 39.6046L 25.3556 39.1053C 23.3577 39.2114 21.4286 38.6122 19.8393 37.3919L 19.5355 37.7891ZM 25.3812 39.6046C 27.4666 39.494 29.4861 38.6324 31.0126 37.2019L 30.67 36.8377C 29.2125 38.2139 27.354 39.0069 25.3556 39.1053L 25.3812 39.6046ZM 30.7895 37.2644C 32.2331 37.5681 33.76 37.5064 35.1745 37.0869L 35.0317 36.6077C 33.6778 37.0131 32.2751 37.0699 30.8931 36.7752L 30.7895 37.2644ZM 35.1745 37.0869C 36.5879 36.6637 37.9009 35.8794 38.9456 34.8342L 38.5915 34.4812C 37.5933 35.4852 36.3867 36.206 35.0317 36.6077L 35.1745 37.0869ZM 38.9456 34.8342L 42.6303 31.1352L 42.276 30.7823L 38.5914 34.4813L 38.9456 34.8342ZM 42.6304 31.1351C 43.5179 30.241 44.2211 29.1465 44.6664 27.9662L 44.1984 27.7902C 43.7743 28.9221 43.1282 29.9278 42.2759 30.7824L 42.6304 31.1351ZM 44.6664 27.9662C 45.1091 26.7849 45.3017 25.497 45.224 24.2374L 44.725 24.2687C 44.8021 25.4756 44.6251 26.6592 44.1984 27.7902L 44.6664 27.9662ZM 45.2228 24.2818C 45.2381 24.1367 45.2197 23.9628 45.1745 23.8242L 44.7008 23.9843C 44.7313 24.0698 44.7381 24.1342 44.7261 24.2242L 45.2228 24.2818ZM 10.4603 6.48962C 10.5933 6.27739 10.7559 6.12405 10.9752 6.00423L 10.7321 5.56732C 10.4606 5.72058 10.208 5.95868 10.0386 6.22092L 10.4603 6.48962ZM 10.9752 6.00423C 11.1926 5.88108 11.408 5.82391 11.6576 5.82319L 11.6522 5.32321C 11.3407 5.32846 11.0054 5.41741 10.7321 5.56732L 10.9752 6.00423ZM 11.6516 5.82318C 11.9251 5.82508 12.1664 5.88527 12.4089 6.0121L 12.6379 5.56761C 12.3425 5.41733 11.9893 5.32921 11.6582 5.32322L 11.6516 5.82318ZM 12.3365 5.9559L 12.5102 6.15142L 12.884 5.81933L 12.7103 5.62381L 12.3365 5.9559ZM 12.6462 5.74061C 12.04 5.86908 11.4494 6.17334 10.9921 6.59281L 11.3314 6.96004C 11.7362 6.58292 12.2069 6.34038 12.748 6.23013L 12.6462 5.74061ZM 10.9921 6.59281C 10.5379 7.01558 10.1872 7.58089 10.0096 8.17647L 10.4893 8.31759C 10.6436 7.78509 10.9235 7.33387 11.3314 6.96004L 10.9921 6.59281ZM 10.4567 8.10712C 10.2866 7.86019 10.2075 7.60143 10.2102 7.30115L 9.7102 7.30115C 9.71295 7.67536 9.83535 8.07558 10.0423 8.38694L 10.4567 8.10712ZM 10.2102 7.30115C 10.2075 7.00087 10.2866 6.74211 10.4567 6.49518L 10.0423 6.21536C 9.83535 6.52672 9.71295 6.92695 9.7102 7.30115L 10.2102 7.30115ZM 2.64835 8.22131C 2.69721 7.88787 2.81909 7.60145 3.02525 7.33556L 2.62832 7.03151C 2.38718 7.34955 2.21625 7.75122 2.15406 8.14593L 2.64835 8.22131ZM 3.02525 7.33556C 3.22824 7.0673 3.47242 6.87569 3.78065 6.74277L 3.57994 6.28482C 3.2157 6.44663 2.87263 6.71582 2.62832 7.03151L 3.02525 7.33556ZM 3.7756 6.74492C 4.04695 6.63041 4.31119 6.60043 4.60112 6.65125L 4.6834 6.15807C 4.32428 6.1006 3.92225 6.14621 3.58499 6.28268L 3.7756 6.74492ZM 4.60112 6.65125C 4.89186 6.69731 5.13236 6.81155 5.35231 7.00806L 5.68239 6.63251C 5.40731 6.39393 5.0417 6.22029 4.6834 6.15807L 4.60112 6.65125ZM 5.36604 7.01929L 9.4665 10.137L 9.76913 9.73898L 5.66866 6.62128L 5.36604 7.01929ZM 9.46663 10.1371L 10.2878 10.7606L 10.5902 10.3624L 9.769 9.73889L 9.46663 10.1371ZM 10.2055 10.651C 10.2318 10.7197 10.2612 10.7959 10.296 10.872L 10.7503 10.6632C 10.722 10.6019 10.6987 10.5408 10.6724 10.4721L 10.2055 10.651ZM 10.2996 10.8795C 10.545 11.3682 10.8804 11.8299 11.2689 12.2139L 11.6198 11.8578C 11.2594 11.5038 10.9723 11.1085 10.7468 10.6558L 10.2996 10.8795ZM 11.2669 12.2119L 12.567 13.5224L 12.922 13.1703L 11.6218 11.8598L 11.2669 12.2119ZM 12.7004 13.1003C 12.3655 13.161 12.0239 13.276 11.7202 13.4301L 11.9475 13.8755C 12.2177 13.7369 12.4897 13.6453 12.7886 13.5924L 12.7004 13.1003ZM 11.7203 13.4301C 10.9879 13.8081 10.3851 14.4695 10.0752 15.2353L 10.5396 15.4206C 10.8089 14.7349 11.2911 14.2056 11.9474 13.8755L 11.7203 13.4301ZM 10.4588 15.129L 6.00035 11.7365L 5.69758 12.1344L 10.156 15.5269L 10.4588 15.129ZM 6.0199 11.753L 5.94094 11.679L 5.59908 12.0439L 5.67803 12.1179L 6.0199 11.753ZM 5.92135 11.6625L 3.33685 9.69673L 3.03416 10.0947L 5.61866 12.0604L 5.92135 11.6625ZM 3.32296 9.6869C 3.07313 9.52538 2.8977 9.32078 2.77571 9.04863L 2.32114 9.25686C 2.47654 9.59025 2.74266 9.9006 3.04805 10.1045L 3.32296 9.6869ZM 2.77571 9.04863C 2.64928 8.77845 2.60869 8.51127 2.64916 8.2155L 2.15325 8.15174C 2.10872 8.51699 2.17018 8.9215 2.32114 9.25686L 2.77571 9.04863ZM 20.7968 36.1286L 3.84223 23.2245L 3.53942 23.6223L 20.494 36.5265L 20.7968 36.1286ZM 3.84221 23.2244C 2.59511 22.2755 2.59107 21.2222 3.01616 20.6188L 2.60739 20.3308C 1.99026 21.2069 2.1336 22.5527 3.53944 23.6224L 3.84221 23.2244ZM 3.01582 20.6192C 3.15582 20.4183 3.32108 20.2756 3.53979 20.1666L 3.31348 19.7207C 3.04245 19.8604 2.78564 20.0822 2.60773 20.3303L 3.01582 20.6192ZM 3.53979 20.1666C 3.7568 20.0544 3.96903 20.0055 4.21302 20.0114L 4.22138 19.5114C 3.91666 19.5082 3.58622 19.5844 3.31348 19.7207L 3.53979 20.1666ZM 4.20847 20.0113C 4.70134 20.0259 5.14499 20.1754 5.54685 20.4624L 5.83526 20.0539C 5.37141 19.7296 4.79085 19.5339 4.22593 19.5116L 4.20847 20.0113ZM 5.53955 20.457L 13.093 26.2115L 13.396 25.8138L 5.84256 20.0593L 5.53955 20.457ZM 13.0861 26.2061C 13.1886 26.2884 13.3279 26.3618 13.4535 26.3997L 13.5935 25.9197C 13.5154 25.8983 13.4649 25.8717 13.403 25.8193L 13.0861 26.2061ZM 13.4535 26.3997C 13.5799 26.4353 13.7369 26.4482 13.8674 26.4338L 13.8077 25.9374C 13.7275 25.9483 13.6709 25.9436 13.5935 25.9197L 13.4535 26.3997ZM 13.8674 26.4338C 13.9975 26.4169 14.147 26.3672 14.2614 26.3027L 14.0118 25.8694C 13.9422 25.911 13.8882 25.929 13.8077 25.9374L 13.8674 26.4338ZM 14.2614 26.3027C 14.3745 26.2361 14.4926 26.1318 14.5727 26.0276L 14.1736 25.7265C 14.1256 25.7922 14.0828 25.83 14.0118 25.8694L 14.2614 26.3027ZM 14.5727 26.0276C 14.6508 25.922 14.7188 25.7799 14.7519 25.6527L 14.2669 25.5311C 14.2483 25.6105 14.2235 25.6624 14.1736 25.7265L 14.5727 26.0276ZM 14.7519 25.6527C 14.7827 25.5248 14.7898 25.3675 14.7708 25.2374L 14.2768 25.3144C 14.2906 25.3948 14.2879 25.4524 14.2669 25.5311L 14.7519 25.6527ZM 14.7708 25.2374C 14.7493 25.1077 14.6945 24.96 14.6263 24.8477L 14.2015 25.1113C 14.2454 25.1798 14.2654 25.2337 14.2768 25.3144L 14.7708 25.2374ZM 14.6263 24.8477C 14.556 24.7366 14.4479 24.622 14.3413 24.5454L 14.0533 24.9541C 14.1204 24.9998 14.1596 25.0415 14.2015 25.1113L 14.6263 24.8477ZM 14.3488 24.5509L 7.1269 19.05L 6.82393 19.4477L 14.0458 24.9486L 14.3488 24.5509ZM 7.14393 19.0642L 7.08603 19.0113L 6.74898 19.3807L 6.80689 19.4335L 7.14393 19.0642ZM 7.06493 18.9941L 6.94912 18.9095L 6.65429 19.3134L 6.77009 19.3979L 7.06493 18.9941ZM 6.95389 18.9131L 2.82184 15.7426L 2.51747 16.1392L 6.64952 19.3098L 6.95389 18.9131ZM 2.82069 15.7417C 2.22405 15.2894 1.94257 14.8106 1.85887 14.3871C 1.77521 13.9638 1.88389 13.5726 2.11034 13.2762L 1.71301 12.9726C 1.40255 13.379 1.25594 13.9152 1.36836 14.484C 1.48074 15.0526 1.8467 15.6307 2.51862 16.1401L 2.82069 15.7417ZM 2.11034 13.2762C 2.33815 12.978 2.68145 12.7703 3.10343 12.7355C 3.52587 12.7006 4.05238 12.8374 4.64139 13.2772L 4.94051 12.8765C 4.27674 12.3809 3.63207 12.1901 3.06229 12.2372C 2.49206 12.2842 2.0221 12.568 1.71301 12.9726L 2.11034 13.2762ZM 4.61383 13.2533L 4.67173 13.3114L 5.02597 12.9585L 4.96807 12.9004L 4.61383 13.2533ZM 4.69733 13.3338L 9.96109 17.3446L 10.2641 16.9469L 5.00037 12.9361L 4.69733 13.3338ZM 9.86745 17.1947C 10.0615 18.1515 10.562 19.0586 11.267 19.7314L 11.6111 19.3687C 10.9576 18.7528 10.5311 17.9798 10.3578 17.0968L 9.86745 17.1947ZM 11.262 19.7265L 19.1576 27.6529L 19.5118 27.3L 11.6162 19.3736L 11.262 19.7265ZM 19.1576 27.6529L 24.3582 32.8737L 24.7124 32.5208L 19.5118 27.3L 19.1576 27.6529ZM 24.3486 32.8635C 25.2786 33.9081 26.296 34.8847 27.3772 35.7706L 27.6941 35.3838C 26.6278 34.5106 25.6388 33.5613 24.722 32.531L 24.3486 32.8635ZM 27.389 35.7796C 27.85 36.1132 28.3517 36.4084 28.8669 36.6492L 29.0784 36.1961C 28.5845 35.9659 28.1238 35.6948 27.6823 35.3747L 27.389 35.7796ZM 28.8653 36.6484L 28.9653 36.696L 29.18 36.2444L 29.08 36.1969L 28.8653 36.6484ZM 28.9272 36.2669C 27.7259 37.13 26.3168 37.5693 24.8399 37.5412L 24.8314 38.0411C 26.3879 38.0643 27.9486 37.5777 29.2181 36.6736L 28.9272 36.2669ZM 24.8399 37.5412C 23.3629 37.5193 21.9692 37.0326 20.7976 36.1292L 20.4932 36.5259C 21.7316 37.4725 23.2751 38.0116 24.8314 38.0411L 24.8399 37.5412ZM 41.1285 29.6832L 37.4439 33.3822L 37.7981 33.735L 41.4828 30.0361L 41.1285 29.6832ZM 37.444 33.382C 36.1575 34.6714 34.4142 35.3953 32.5968 35.3953L 32.5968 35.8953C 34.5473 35.8953 36.4179 35.1183 37.798 33.7352L 37.444 33.382ZM 32.5968 35.3953C 30.7793 35.3953 29.036 34.6714 27.7495 33.382L 27.3955 33.7352C 28.7756 35.1183 30.6462 35.8953 32.5968 35.8953L 32.5968 35.3953ZM 27.7499 33.3825L 12.7377 18.2589L 12.3828 18.6112L 27.3951 33.7347L 27.7499 33.3825ZM 12.728 18.2497C 12.2521 17.8244 11.9694 17.2765 11.8979 16.6406L 11.4014 16.6996C 11.4913 17.4229 11.8558 18.1292 12.3925 18.6204L 12.728 18.2497ZM 11.8987 16.6488C 11.8709 16.3561 11.9262 16.0975 12.0711 15.842L 11.6338 15.5995C 11.458 15.9221 11.3719 16.3248 11.4005 16.6914L 11.8987 16.6488ZM 12.0711 15.842C 12.2111 15.5839 12.4007 15.401 12.663 15.2707L 12.4364 14.825C 12.1106 14.9937 11.8146 15.2794 11.6338 15.5995L 12.0711 15.842ZM 12.6433 15.2797C 13.0079 15.1298 13.373 15.0961 13.7587 15.177L 13.858 14.6869C 13.4 14.5968 12.8902 14.6438 12.4562 14.816L 12.6433 15.2797ZM 13.7587 15.177C 14.1455 15.2526 14.4692 15.4258 14.7475 15.7061L 15.0999 15.3514C 14.7665 15.0238 14.3148 14.7822 13.858 14.6869L 13.7587 15.177ZM 14.7466 15.7052L 21.4947 22.4796L 21.8489 22.1267L 15.1008 15.3523L 14.7466 15.7052ZM 21.501 22.4857C 21.698 22.67 21.9588 22.7705 22.2284 22.7657L 22.2196 22.2658C 22.0801 22.2683 21.9449 22.2163 21.8426 22.1206L 21.501 22.4857ZM 22.2284 22.7657C 22.4981 22.7609 22.7551 22.6513 22.9455 22.4601L 22.5913 22.1073C 22.4923 22.2066 22.3591 22.2633 22.2196 22.2658L 22.2284 22.7657ZM 22.9455 22.4601C 23.1359 22.269 23.2447 22.0114 23.2495 21.7416L 22.7496 21.7328C 22.7471 21.8737 22.6902 22.0079 22.5913 22.1073L 22.9455 22.4601ZM 23.2495 21.7416C 23.2542 21.4718 23.1545 21.2105 22.971 21.0128L 22.6045 21.353C 22.6999 21.4558 22.752 21.5919 22.7496 21.7328L 23.2495 21.7416ZM 22.965 21.0066L 12.7375 10.7234L 12.383 11.076L 22.6105 21.3592L 22.965 21.0066ZM 12.7326 10.7186C 12.4252 10.4284 12.2063 10.0932 12.0637 9.69435L 11.5935 9.86458C 11.7589 10.3165 12.041 10.7483 12.3879 11.0808L 12.7326 10.7186ZM 12.0619 9.68953C 11.9353 9.37148 11.927 9.0604 12.0363 8.73597L 11.5607 8.58141C 11.4321 8.98879 11.4451 9.46956 11.5953 9.8694L 12.0619 9.68953ZM 12.0363 8.73597C 12.1386 8.40936 12.3279 8.16336 12.6167 7.9816L 12.3459 7.5613C 11.9894 7.79536 11.6963 8.17621 11.5607 8.58141L 12.0363 8.73597ZM 12.6147 7.9829C 13.0946 7.68018 13.9523 7.60429 14.9054 8.5512L 15.2578 8.19651C 14.1685 7.11426 13.0576 7.11236 12.3479 7.56L 12.6147 7.9829ZM 15.0816 8.37385C 15.3316 8.37385 15.0816 8.37385 14.8316 8.37385C 14.8316 8.37385 14.8316 8.37385 14.8316 8.37386C 14.8316 8.37386 14.8316 8.37386 14.8316 8.37386C 14.8316 8.37387 14.8316 8.37389 14.8316 8.37393C 14.8316 8.374 14.8316 8.37414 14.8316 8.37443C 14.8316 8.37501 14.8316 8.37617 14.8316 8.37848C 14.8316 8.3831 14.8316 8.39235 14.8316 8.41084L 15.3316 8.41084C 15.3316 8.39235 15.3316 8.3831 15.3316 8.37848C 15.3316 8.37617 15.3316 8.37501 15.3316 8.37443C 15.3316 8.37414 15.3316 8.374 15.3316 8.37393C 15.3316 8.37389 15.3316 8.37387 15.3316 8.37386C 15.3316 8.37386 15.3316 8.37386 15.3316 8.37386C 15.3316 8.37385 15.3316 8.37385 15.3316 8.37385C 15.0816 8.37385 14.8316 8.37385 15.0816 8.37385ZM 14.9046 8.58737L 25.132 18.8441L 25.4861 18.4911L 15.2586 8.23432L 14.9046 8.58737ZM 25.1383 18.8501C 25.3353 19.0344 25.5961 19.1349 25.8657 19.1301L 25.8568 18.6302C 25.7174 18.6327 25.5822 18.5807 25.4799 18.485L 25.1383 18.8501ZM 25.8657 19.1301C 26.1353 19.1254 26.3924 19.0157 26.5828 18.8246L 26.2285 18.4717C 26.1296 18.571 25.9963 18.6278 25.8568 18.6302L 25.8657 19.1301ZM 26.5828 18.8246C 26.7731 18.6335 26.882 18.3759 26.8867 18.1061L 26.3868 18.0973C 26.3843 18.2381 26.3275 18.3724 26.2285 18.4717L 26.5828 18.8246ZM 26.8867 18.1061C 26.8915 17.8362 26.7917 17.5749 26.6082 17.3772L 26.2418 17.7174C 26.3372 17.8202 26.3893 17.9564 26.3868 18.0973L 26.8867 18.1061ZM 26.6023 17.371L 16.3958 7.109L 16.0413 7.46159L 26.2477 17.7236L 26.6023 17.371ZM 16.4282 7.14915C 16.4141 7.12756 16.3937 7.10027 16.377 7.08056L 15.997 7.40549C 16.0032 7.41254 16.0039 7.4135 16.0089 7.42144L 16.4282 7.14915ZM 16.3647 7.0672L 14.075 4.7527L 13.7195 5.10435L 16.0093 7.41885L 16.3647 7.0672ZM 14.0709 4.74869C 13.9995 4.68013 13.943 4.61379 13.8867 4.53223L 13.4761 4.81752C 13.5469 4.91881 13.635 5.02238 13.7236 5.10836L 14.0709 4.74869ZM 13.8791 4.5218C 13.7453 4.35105 13.6586 4.17662 13.603 3.96661L 13.1204 4.09721C 13.1911 4.3541 13.3217 4.61675 13.4838 4.82796L 13.8791 4.5218ZM 13.603 3.96661C 13.5451 3.75723 13.532 3.56259 13.5614 3.34728L 13.0656 3.28251C 13.0323 3.54691 13.0519 3.8397 13.1204 4.09721L 13.603 3.96661ZM 13.5614 3.34728C 13.5883 3.13167 13.6509 2.94706 13.7606 2.75978L 13.3278 2.50945C 13.1955 2.74058 13.1013 3.01842 13.0656 3.28251L 13.5614 3.34728ZM 13.7606 2.75978C 13.8682 2.57131 13.9968 2.42533 14.1698 2.29503L 13.8668 1.89729C 13.656 2.05946 13.4622 2.27952 13.3278 2.50945L 13.7606 2.75978ZM 14.1938 2.27419C 14.3508 2.11765 14.5174 2.00974 14.7242 1.93084L 14.5431 1.46476C 14.2899 1.56453 14.0378 1.72774 13.8428 1.91814L 14.1938 2.27419ZM 14.7242 1.93084C 14.9299 1.84952 15.1254 1.81672 15.3463 1.82645L 15.3654 1.32681C 15.0934 1.31774 14.7974 1.36741 14.5431 1.46476L 14.7242 1.93084ZM 15.3463 1.82645C 15.5673 1.83358 15.7597 1.88117 15.9588 1.97794L 16.1747 1.527C 15.9286 1.41056 15.6372 1.33849 15.3654 1.32681L 15.3463 1.82645ZM 15.9588 1.97794C 16.1589 2.07238 16.317 2.1927 16.4617 2.36076L 16.8387 2.03237C 16.6587 1.82768 16.4197 1.64576 16.1747 1.527L 15.9588 1.97794ZM 16.4731 2.37303L 29.0061 14.9496L 29.3603 14.5966L 16.8273 2.02009L 16.4731 2.37303ZM 29.0564 14.9885C 29.2463 15.0963 29.5057 15.1484 29.7224 15.1224L 29.6549 14.627C 29.5215 14.6487 29.4249 14.6293 29.31 14.5576L 29.0564 14.9885ZM 29.7224 15.1224C 29.9382 15.0896 30.1742 14.97 30.3286 14.8154L 29.9692 14.4677C 29.8774 14.5676 29.7894 14.6122 29.6549 14.627L 29.7224 15.1224ZM 30.3286 14.8154C 30.4779 14.6561 30.5899 14.4163 30.6163 14.1992L 30.1191 14.1467C 30.1082 14.2824 30.0661 14.3726 29.9692 14.4677L 30.3286 14.8154ZM 30.6163 14.1992C 30.6359 13.9815 30.5766 13.7235 30.4639 13.5364L 30.0396 13.801C 30.1144 13.9145 30.1368 14.0116 30.1191 14.1467L 30.6163 14.1992ZM 30.4291 13.4925L 21.8281 4.83685L 21.4734 5.18929L 30.0744 13.8449L 30.4291 13.4925ZM 21.8279 4.83664C 21.3743 4.38131 21.2071 3.9281 21.2059 3.53608C 21.2048 3.14099 21.3723 2.77983 21.6391 2.50963L 21.2834 2.15828C 20.9344 2.51162 20.7044 2.99595 20.706 3.53749C 20.7075 4.0821 20.9429 4.65667 21.4736 5.1895L 21.8279 4.83664ZM 21.6391 2.50963C 21.9054 2.24003 22.2628 2.07159 22.6548 2.0727C 23.0439 2.07381 23.4963 2.24229 23.9529 2.70062L 24.3071 2.34776C 23.7741 1.81264 23.2001 1.57425 22.6562 1.57271C 22.1152 1.57117 21.633 1.80434 21.2834 2.15828L 21.6391 2.50963ZM 23.9529 2.70062L 33.2803 12.0643L 33.6345 11.7114L 24.3071 2.34776L 23.9529 2.70062ZM 33.2805 12.0645C 33.4359 12.2154 33.6713 12.3308 33.8855 12.3613L 33.948 11.8652C 33.8146 11.8518 33.7268 11.8088 33.6343 11.7112L 33.2805 12.0645ZM 33.8855 12.3613C 34.1005 12.3849 34.3572 12.3314 34.545 12.2238L 34.2896 11.7939C 34.176 11.8654 34.0805 11.8853 33.948 11.8652L 33.8855 12.3613ZM 34.545 12.2238C 34.7293 12.1103 34.8992 11.9105 34.9818 11.7102L 34.5166 11.5268C 34.4703 11.6534 34.4067 11.7283 34.2896 11.7939L 34.545 12.2238ZM 34.9818 11.7102C 35.0581 11.5074 35.0704 11.2454 35.0135 11.0364L 34.5332 11.1753C 34.5739 11.3039 34.5692 11.4026 34.5166 11.5268L 34.9818 11.7102ZM 35.0135 11.0363L 34.1291 7.98199L 33.6489 8.12104L 34.5332 11.1753L 35.0135 11.0363ZM 34.1252 7.96962C 34.0474 7.75251 34.0362 7.55161 34.0896 7.32715L 33.6019 7.21667C 33.538 7.50982 33.5568 7.84919 33.6528 8.13341L 34.1252 7.96962ZM 34.0896 7.32715C 34.1382 7.10165 34.2347 6.9255 34.3983 6.76365L 34.0429 6.41191C 33.8339 6.62659 33.6706 6.92456 33.6019 7.21667L 34.0896 7.32715ZM 34.3962 6.76578C 34.6392 6.52349 34.9129 6.36231 35.2421 6.26769L 35.1013 5.78792C 34.7142 5.9035 34.3345 6.12705 34.0451 6.40977L 34.3962 6.76578ZM 35.2421 6.26769C 35.5702 6.16943 35.8871 6.15722 36.2217 6.22996L 36.3252 5.74079C 35.9296 5.65903 35.4896 5.67597 35.1013 5.78792L 35.2421 6.26769ZM 36.2161 6.2287C 36.4492 6.2811 36.6315 6.38413 36.7971 6.55715L 37.1547 6.20771C 36.9364 5.98783 36.6315 5.81548 36.3309 5.74204L 36.2161 6.2287ZM 36.7971 6.55715C 36.9663 6.72675 37.0656 6.91204 37.1133 7.14734L 37.6023 7.04279C 37.535 6.73997 37.3694 6.431 37.1547 6.20771L 36.7971 6.55715ZM 37.1229 7.18051L 42.3866 21.6541L 42.8565 21.4832L 37.5928 7.00962L 37.1229 7.18051ZM 42.3949 21.674L 42.4317 21.7533L 42.8851 21.5425L 42.8483 21.4632L 42.3949 21.674ZM 42.4345 21.7591C 42.802 22.4965 43.0267 23.2733 43.1098 24.0936L 43.6072 24.0426C 43.5175 23.178 43.2679 22.3151 42.8823 21.5367L 42.4345 21.7591ZM 43.1088 24.0556C 43.1074 24.0865 43.1074 24.1236 43.1088 24.1545L 43.6082 24.1296C 43.6072 24.1112 43.6072 24.099 43.6082 24.0805L 43.1088 24.0556ZM 43.3585 24.1421C 43.1085 24.1421 43.1085 24.1421 43.1085 24.1421C 43.1085 24.1421 43.1085 24.1421 43.1085 24.1421C 43.1085 24.1421 43.1085 24.1421 43.1085 24.1421C 43.1085 24.1421 43.1085 24.1421 43.1085 24.1421C 43.1085 24.1421 43.1085 24.1421 43.1085 24.1422C 43.1085 24.1422 43.1085 24.1423 43.1085 24.1425C 43.1085 24.1428 43.1085 24.1432 43.1085 24.1437C 43.1085 24.1447 43.1085 24.1463 43.1085 24.1482C 43.1085 24.152 43.1085 24.1573 43.1085 24.1632C 43.1085 24.1751 43.1085 24.1896 43.1085 24.2002L 43.6085 24.2002C 43.6085 24.1896 43.6085 24.1751 43.6085 24.1632C 43.6085 24.1573 43.6085 24.152 43.6085 24.1482C 43.6085 24.1463 43.6085 24.1447 43.6085 24.1437C 43.6085 24.1432 43.6085 24.1428 43.6085 24.1425C 43.6085 24.1423 43.6085 24.1422 43.6085 24.1422C 43.6085 24.1421 43.6085 24.1421 43.6085 24.1421C 43.6085 24.1421 43.6085 24.1421 43.6085 24.1421C 43.6085 24.1421 43.6085 24.1421 43.6085 24.1421C 43.6085 24.1421 43.6085 24.1421 43.6085 24.1421C 43.6085 24.1421 43.6085 24.1421 43.3585 24.1421ZM 43.1094 24.2217C 43.1982 25.2312 43.068 26.2211 42.7212 27.1728L 43.1912 27.3433C 43.5537 26.3397 43.6981 25.2423 43.6076 24.1786L 43.1094 24.2217ZM 42.7212 27.1728C 42.3772 28.1255 41.8429 28.9676 41.1285 29.6833L 41.4828 30.036C 42.2335 29.2797 42.826 28.3459 43.1912 27.3433L 42.7212 27.1728Z"/>
<path id="path2_fill" d="M 1.38269 0.269441C 1.3109 0.187423 1.223 0.121178 1.12452 0.0748599C 1.02603 0.0285419 0.919074 0.00314963 0.810353 0.000274914C 0.701631 -0.0025998 0.593491 0.0171049 0.492712 0.0581541C 0.391933 0.0992032 0.300688 0.160711 0.224698 0.238822C 0.148708 0.316933 0.0896125 0.409961 0.0511161 0.512075C 0.0126197 0.614189 -0.00444686 0.723185 0.000985786 0.832231C 0.00641843 0.941277 0.0342334 1.04802 0.0826868 1.14577C 0.13114 1.24352 0.199187 1.33016 0.282561 1.40027L 5.6937 6.76907C 5.84402 6.90845 6.04237 6.9838 6.24695 6.97924C 6.45152 6.97468 6.64635 6.89056 6.79035 6.74462C 6.93436 6.59868 7.01631 6.40232 7.01892 6.19691C 7.02153 5.99151 6.94461 5.79311 6.80436 5.64352L 1.38269 0.269441Z"/>
<path id="path3_stroke_2x" d="M 1.38269 0.269441L 1.19457 0.434096L 1.2004 0.44076L 1.20669 0.446995L 1.38269 0.269441ZM 0.0826868 1.14577L 0.306678 1.03474L 0.0826868 1.14577ZM 0.282561 1.40027L 0.458642 1.2228L 0.451337 1.21555L 0.44346 1.20893L 0.282561 1.40027ZM 5.6937 6.76907L 5.51752 6.94664L 5.52373 6.95239L 5.6937 6.76907ZM 6.80436 5.64352L 6.98685 5.47241L 6.98035 5.46597L 6.80436 5.64352ZM 1.5708 0.104785C 1.48109 0.00430229 1.35212 -0.0928973 1.23091 -0.15137L 1.01812 0.30109C 1.09389 0.335253 1.1407 0.370543 1.19457 0.434096L 1.5708 0.104785ZM 1.23091 -0.15137C 1.10854 -0.20745 0.951423 -0.244749 0.816961 -0.249638L 0.803745 0.250188C 0.886724 0.251048 0.94352 0.264534 1.01812 0.30109L 1.23091 -0.15137ZM 0.816961 -0.249638C 0.682425 -0.251861 0.523558 -0.222914 0.398406 -0.173376L 0.587018 0.289684C 0.663425 0.257124 0.720838 0.246661 0.803745 0.250188L 0.816961 -0.249638ZM 0.398406 -0.173376C 0.274284 -0.121384 0.140372 -0.0311184 0.0455054 0.0644948L 0.403891 0.413149C 0.461004 0.352541 0.509582 0.319791 0.587018 0.289684L 0.398406 -0.173376ZM 0.0455054 0.0644948C -0.0474356 0.161924 -0.134041 0.298252 -0.182812 0.423885L 0.285045 0.600265C 0.313266 0.52167 0.344852 0.471941 0.403891 0.413149L 0.0455054 0.0644948ZM -0.182812 0.423885C -0.229111 0.550421 -0.254099 0.709999 -0.248705 0.84467L 0.250676 0.819791C 0.245205 0.736371 0.254351 0.677956 0.285045 0.600265L -0.182812 0.423885ZM -0.248705 0.84467C -0.240686 0.979216 -0.199955 1.13552 -0.141304 1.2568L 0.306678 1.03474C 0.268422 0.960524 0.253523 0.903338 0.250676 0.819791L -0.248705 0.84467ZM -0.141304 1.2568C -0.0802778 1.37694 0.0194796 1.50396 0.121662 1.59161L 0.44346 1.20893C 0.378895 1.15636 0.342558 1.11009 0.306678 1.03474L -0.141304 1.2568ZM 0.10648 1.57774L 5.51762 6.94654L 5.86979 6.5916L 0.458642 1.2228L 0.10648 1.57774ZM 5.52373 6.95239C 5.72159 7.13585 5.98286 7.23519 6.25252 7.22918L 6.24138 6.7293C 6.10188 6.73241 5.96646 6.68104 5.86368 6.58575L 5.52373 6.95239ZM 6.25252 7.22918C 6.52217 7.22316 6.77878 7.11229 6.9683 6.92022L 6.6124 6.56903C 6.51392 6.66884 6.38087 6.72619 6.24138 6.7293L 6.25252 7.22918ZM 6.9683 6.92022C 7.1578 6.72818 7.26547 6.46998 7.2689 6.20009L 6.76894 6.19373C 6.76715 6.33466 6.71092 6.46919 6.6124 6.56903L 6.9683 6.92022ZM 7.2689 6.20009C 7.27233 5.93021 7.17127 5.66935 6.98673 5.47253L 6.62198 5.81452C 6.71794 5.91687 6.77073 6.05281 6.76894 6.19373L 7.2689 6.20009ZM 6.98035 5.46597L 1.55868 0.0918866L 1.20669 0.446995L 6.62836 5.82108L 6.98035 5.46597Z"/>
<path id="path4_fill" d="M 5.76759 2.97141C 5.96008 2.97351 6.14671 2.90494 6.29237 2.77859C 6.43803 2.65224 6.5327 2.47682 6.55856 2.28532C 6.58443 2.09382 6.53971 1.89943 6.43282 1.73871C 6.32594 1.57798 6.16424 1.462 5.97814 1.41256L 0.977571 0.0228004C 0.778123 -0.0262876 0.567471 0.00456462 0.390306 0.108811C 0.213141 0.213057 0.0834035 0.382495 0.0286182 0.581177C -0.0261671 0.779859 -0.00168958 0.992153 0.0968578 1.17302C 0.195405 1.35388 0.360268 1.48909 0.55647 1.54995L 5.55704 2.93971C 5.62548 2.95977 5.6963 2.97044 5.76759 2.97141Z"/>
<path id="path5_stroke_2x" d="M 5.97814 1.41256L 5.91119 1.65344L 5.91395 1.65418L 5.97814 1.41256ZM 0.977571 0.0228004L 1.04454 -0.218177L 1.03732 -0.219955L 0.977571 0.0228004ZM 0.55647 1.54995L 0.48237 1.78883L 0.489527 1.79082L 0.55647 1.54995ZM 5.55704 2.93971L 5.62738 2.69978L 5.62398 2.69884L 5.55704 2.93971ZM 5.76487 3.2214C 6.00253 3.21988 6.27381 3.12022 6.45618 2.96744L 6.12856 2.58974C 6.01961 2.68966 5.91764 2.72714 5.77031 2.72143L 5.76487 3.2214ZM 6.45618 2.96744C 6.63312 2.80858 6.77043 2.55417 6.80631 2.31879L 6.31081 2.25186C 6.29496 2.39947 6.24295 2.49591 6.12856 2.58974L 6.45618 2.96744ZM 6.80631 2.31879C 6.83416 2.08235 6.76934 1.80059 6.64099 1.60027L 6.22466 1.87715C 6.31008 1.99828 6.33469 2.1053 6.31081 2.25186L 6.80631 2.31879ZM 6.64099 1.60027C 6.50581 1.40436 6.27094 1.23591 6.04233 1.17094L 5.91395 1.65418C 6.05754 1.68808 6.14606 1.7516 6.22466 1.87715L 6.64099 1.60027ZM 6.04508 1.17169L 1.04451 -0.21807L 0.910628 0.263671L 5.9112 1.65343L 6.04508 1.17169ZM 1.03732 -0.219955C 0.774458 -0.28465 0.496871 -0.243962 0.263522 -0.106656L 0.517089 0.324278C 0.63807 0.253091 0.781787 0.232075 0.917824 0.265556L 1.03732 -0.219955ZM 0.263522 -0.106656C 0.0302057 0.0306306 -0.140385 0.253599 -0.212387 0.514722L 0.269624 0.647633C 0.307191 0.511391 0.396076 0.395483 0.517089 0.324278L 0.263522 -0.106656ZM -0.212387 0.514722C -0.284384 0.775823 -0.25224 1.05483 -0.12267 1.29263L 0.316386 1.0534C 0.248861 0.929475 0.23205 0.783895 0.269624 0.647633L -0.212387 0.514722ZM -0.12267 1.29263C 0.00691651 1.53046 0.22387 1.70853 0.482403 1.78872L 0.630537 1.31117C 0.496667 1.26965 0.383894 1.1773 0.316386 1.0534L -0.12267 1.29263ZM 0.489527 1.79082L 5.4901 3.18058L 5.62398 2.69884L 0.623413 1.30908L 0.489527 1.79082ZM 5.48671 3.17961C 5.57157 3.20389 5.67593 3.2196 5.76416 3.22139L 5.77102 2.72144C 5.71668 2.72127 5.67938 2.71565 5.62737 2.6998L 5.48671 3.17961Z"/>
<path id="path6_fill" d="M 0.725919 0.00294049C 0.620619 0.0114893 0.518099 0.0411649 0.42443 0.09021C 0.330761 0.139255 0.247849 0.206672 0.180605 0.288468C 0.11336 0.370264 0.0631511 0.464776 0.0329503 0.566405C 0.00274955 0.668034 -0.00682783 0.774714 0.0047846 0.880126L 0.394303 5.81033C 0.410141 6.00847 0.499556 6.1934 0.644822 6.32846C 0.790089 6.46353 0.980604 6.53887 1.1786 6.53956L 1.24177 6.53956C 1.35005 6.53195 1.4556 6.50202 1.55184 6.45162C 1.64807 6.40122 1.73292 6.33144 1.80109 6.24665C 1.86926 6.16185 1.91928 6.06385 1.94802 5.95878C 1.97677 5.8537 1.98363 5.74381 1.96817 5.63595L 1.57865 0.705746C 1.55605 0.500027 1.45419 0.311342 1.29485 0.180015C 1.13551 0.0486878 0.931318 -0.0148642 0.725919 0.00294049Z"/>
<path id="path7_stroke_2x" d="M 0.725919 0.00294049L 0.746149 0.252124L 0.747509 0.252007L 0.725919 0.00294049ZM 0.0047846 0.880126L 0.254127 0.860427L 0.253281 0.852751L 0.0047846 0.880126ZM 0.394303 5.81033L 0.145079 5.83002L 0.145098 5.83025L 0.394303 5.81033ZM 0.644822 6.32846L 0.474591 6.51155L 0.644822 6.32846ZM 1.1786 6.53956L 1.17773 6.78956L 1.1786 6.78956L 1.1786 6.53956ZM 1.24177 6.53956L 1.24177 6.78956L 1.25054 6.78956L 1.25929 6.78894L 1.24177 6.53956ZM 1.96817 5.63595L 1.71894 5.65564L 1.71957 5.66356L 1.7207 5.67143L 1.96817 5.63595ZM 1.57865 0.705746L 1.82799 0.686046L 1.82715 0.678444L 1.57865 0.705746ZM 0.705689 -0.24624C 0.575521 -0.234409 0.424892 -0.19081 0.308464 -0.131267L 0.540396 0.311687C 0.611306 0.27314 0.665717 0.257388 0.746149 0.252121L 0.705689 -0.24624ZM 0.308464 -0.131267C 0.193229 -0.0695147 0.0715493 0.0294202 -0.0125129 0.129706L 0.373723 0.447231C 0.42415 0.383924 0.468294 0.348025 0.540396 0.311687L 0.308464 -0.131267ZM -0.0125129 0.129706C -0.0946242 0.231547 -0.168209 0.370053 -0.206692 0.495191L 0.272593 0.637618C 0.294512 0.559498 0.321345 0.508981 0.373723 0.447231L -0.0125129 0.129706ZM -0.206692 0.495191C -0.242789 0.621017 -0.256815 0.777237 -0.243712 0.907501L 0.253281 0.852751C 0.243159 0.772191 0.248288 0.715051 0.272593 0.637618L -0.206692 0.495191ZM -0.244439 0.899816L 0.145079 5.83002L 0.643526 5.79064L 0.254008 0.860436L -0.244439 0.899816ZM 0.145098 5.83025C 0.168873 6.07396 0.298446 6.3419 0.474591 6.51155L 0.815054 6.14537C 0.700665 6.04489 0.65141 5.94297 0.643508 5.79041L 0.145098 5.83025ZM 0.474591 6.51155C 0.656697 6.67497 0.93338 6.78437 1.17773 6.78956L 1.17947 6.28956C 1.02783 6.29337 0.923481 6.25209 0.815054 6.14537L 0.474591 6.51155ZM 1.1786 6.78956L 1.24177 6.78956L 1.24177 6.28956L 1.1786 6.28956L 1.1786 6.78956ZM 1.25929 6.78894C 1.39314 6.77821 1.54819 6.73424 1.66782 6.67309L 1.43585 6.23015C 1.36301 6.26979 1.30695 6.2857 1.22425 6.29017L 1.25929 6.78894ZM 1.66782 6.67309C 1.78619 6.6096 1.91068 6.50724 1.99594 6.40328L 1.60624 6.09001C 1.55517 6.15565 1.50996 6.19284 1.43585 6.23015L 1.66782 6.67309ZM 1.99594 6.40328C 2.07912 6.29771 2.1524 6.15414 2.18916 6.02475L 1.70688 5.89281C 1.68615 5.97357 1.6594 6.02599 1.60624 6.09001L 1.99594 6.40328ZM 2.18916 6.02475C 2.22339 5.89469 2.23343 5.7338 2.21564 5.60048L 1.7207 5.67143C 1.73383 5.75381 1.73015 5.81272 1.70688 5.89281L 2.18916 6.02475ZM 2.21739 5.61626L 1.82787 0.686056L 1.32942 0.725436L 1.71894 5.65564L 2.21739 5.61626ZM 1.82715 0.678444C 1.79746 0.408131 1.6636 0.159963 1.45385 -0.0129055L 1.13585 0.372936C 1.24479 0.462722 1.31464 0.591923 1.33014 0.733047L 1.82715 0.678444ZM 1.45385 -0.0129055C 1.24407 -0.185801 0.975067 -0.269594 0.704329 -0.246126L 0.747509 0.252007C 0.887568 0.239866 1.02694 0.283177 1.13585 0.372936L 1.45385 -0.0129055Z"/>
</defs>
</svg>
