<svg width="30" height="43" viewBox="0 0 30 43" version="1.1" xmlns="http://www.w3.org/2000/svg" xmlns:xlink="http://www.w3.org/1999/xlink">
<title>fingers</title>
<desc>Created using Figma</desc>
<g id="Canvas" transform="translate(1485 -5390)">
<g id="fingers">
<g id="Vector">
<use xlink:href="#path0_fill" transform="translate(-1484.5 5390.5)" fill="#1740FF"/>
<use xlink:href="#path1_fill" transform="translate(-1484.5 5390.5)" fill="#1740FF"/>
</g>
</g>
</g>
<defs>
<path id="path0_fill" d="M 0.527965 26.9274L 0.527965 8.50581C 0.527965 6.25622 2.31975 4.42761 4.52302 4.42761C 6.72629 4.42761 8.51807 6.25622 8.51807 8.50581L 8.51807 10.3462C 9.22586 9.72227 10.1567 9.3386 11.1814 9.3386C 12.5731 9.3386 13.7982 10.0418 14.514 11.1057C 15.2291 10.0418 16.4549 9.3386 17.8465 9.3386C 18.8706 9.3386 19.8028 9.72227 20.5099 10.3462L 20.5099 4.42827C 20.5099 2.26183 22.3017 0.5 24.5049 0.5C 26.7082 0.5 28.5 2.26183 28.5 4.42827L 28.5 28.6807C 28.472 28.8123 28.4501 28.9466 28.4354 29.0808C 28.4314 29.086 28.4294 29.0913 28.4261 29.0945C 27.7037 36.0535 21.7337 41.5 14.5 41.5C 6.78023 41.5 0.5 35.2979 0.5 27.6745C 0.500666 27.4224 0.513317 27.1756 0.527965 26.9274ZM 13.8441 13.2662C 13.8441 11.8213 12.6496 10.6474 11.1808 10.6474C 9.71126 10.6474 8.51741 11.8213 8.51741 13.2662L 8.51741 21.3774C 8.51741 22.8211 9.71126 23.9963 11.1808 23.9963C 11.7048 23.9963 12.1929 23.8405 12.605 23.5819C 12.8587 23.0221 13.2396 22.5284 13.7143 22.1421C 13.7909 21.8992 13.8441 21.6446 13.8441 21.3774L 13.8441 13.2662ZM 17.8465 10.6474C 16.3783 10.6474 15.1832 11.8213 15.1832 13.2662L 15.1832 21.3774C 15.1832 21.3814 15.1845 21.3866 15.1845 21.3905C 15.5267 21.2969 15.885 21.2432 16.2558 21.2432L 20.5099 21.2432L 20.5099 13.2662C 20.5099 11.8213 19.3154 10.6474 17.8465 10.6474ZM 24.5049 1.80877C 23.0368 1.80877 21.8416 2.98267 21.8416 4.42761L 21.8416 21.2432L 24.5049 21.2432C 25.529 21.2432 26.4612 21.6269 27.1683 22.2508L 27.1683 4.42761C 27.1683 2.98267 25.9738 1.80877 24.5049 1.80877ZM 14.5 40.1906C 21.3449 40.1906 26.926 34.7997 27.1523 28.0935C 27.159 28.0784 27.1623 28.0614 27.1677 28.0463L 27.1677 25.5244C 27.159 25.5113 27.1537 25.4975 27.145 25.4844C 27.1583 25.381 27.1677 25.2776 27.1677 25.1708C 27.1677 23.7259 25.9731 22.552 24.5043 22.552L 16.2552 22.552C 14.787 22.552 13.5918 23.7259 13.5918 25.1708C 13.5918 26.6145 14.787 27.7897 16.2552 27.7897L 18.9924 27.7897L 18.9924 29.0991L 16.2552 29.0991C 14.0519 29.0991 12.2601 27.3373 12.2601 25.1708C 12.2601 25.163 12.2614 25.1571 12.2614 25.1505C 11.9179 25.2488 11.5563 25.3051 11.1808 25.3051C 8.97751 25.3051 7.18572 23.5432 7.18572 21.3768L 7.18572 8.50581C 7.18572 6.97903 5.99054 5.73704 4.52235 5.73704C 3.05284 5.73704 1.85898 6.97837 1.85898 8.50581L 1.85898 26.8004C 1.86165 26.8057 1.86298 26.8096 1.86698 26.8135C 1.86298 26.8685 1.86298 26.9248 1.85898 26.9785L 1.85898 28.3135C 2.1999 34.9169 7.73105 40.1906 14.5 40.1906Z"/>
<path id="path1_fill" fill-rule="evenodd" d="M 28.4354 29.0808C 28.4336 29.0831 28.4323 29.0854 28.431 29.0876C 28.4294 29.0903 28.4279 29.0927 28.4261 29.0945C 27.7037 36.0535 21.7337 41.5 14.5 41.5C 6.78023 41.5 0.5 35.2979 0.5 27.6745C 0.500666 27.4224 0.513317 27.1756 0.527965 26.9274L 0.527965 8.50581C 0.527965 6.25622 2.31975 4.42761 4.52302 4.42761C 6.72629 4.42761 8.51807 6.25622 8.51807 8.50581L 8.51807 10.3462C 8.67433 10.2085 8.84146 10.0824 9.01807 9.96964C 9.64145 9.57156 10.3829 9.3386 11.1814 9.3386C 12.3833 9.3386 13.461 9.86308 14.1936 10.6915C 14.3093 10.8222 14.4164 10.9606 14.514 11.1057C 14.6115 10.9606 14.7185 10.8222 14.8342 10.6914C 15.5665 9.86305 16.6447 9.3386 17.8465 9.3386C 18.6444 9.3386 19.3865 9.57152 20.0099 9.96952C 20.1866 10.0823 20.3537 10.2084 20.5099 10.3462L 20.5099 4.42827C 20.5099 2.26183 22.3017 0.5 24.5049 0.5C 26.7082 0.5 28.5 2.26183 28.5 4.42827L 28.5 28.6807C 28.472 28.8123 28.4501 28.9466 28.4354 29.0808ZM 20.0099 9.40166L 20.0099 4.42827C 20.0099 1.97777 22.0335 0 24.5049 0C 26.9764 0 29 1.97777 29 4.42827L 29 28.7333L 28.9891 28.7847C 28.9634 28.9047 28.9455 29.0141 28.9325 29.135L 28.9174 29.2734L 28.9083 29.2853C 28.0946 36.4343 21.9395 42 14.5 42C 6.51001 42 0 35.58 0 27.6745L 0 27.6731C 0.000830412 27.4141 0.0135596 27.1583 0.0279652 26.9127L 0.0279652 8.50581C 0.0279652 5.9898 2.03398 3.92761 4.52302 3.92761C 7.01206 3.92761 9.01807 5.9898 9.01807 8.50581L 9.01807 9.40172C 9.66505 9.05555 10.4177 8.84509 11.1814 8.8386C 12.5024 8.8386 13.6911 9.40289 14.5139 10.3C 15.3365 9.40279 16.5257 8.8386 17.8465 8.8386C 18.6097 8.84507 19.3627 9.0555 20.0099 9.40166ZM 26.6677 27.9532L 26.6677 25.669L 26.6254 25.605L 26.6491 25.4206C 26.6613 25.3266 26.6682 25.2551 26.6677 25.1708C 26.6677 24.01 25.7051 23.052 24.5043 23.052L 16.2552 23.052C 15.055 23.052 14.0918 24.0101 14.0918 25.1708C 14.0918 26.3304 15.0551 27.2897 16.2552 27.2897L 19.4924 27.2897L 19.4924 29.5991L 16.2552 29.5991C 13.9846 29.5991 12.092 27.9297 11.7994 25.7581C 11.5951 25.7876 11.3859 25.8043 11.1808 25.8051C 8.70934 25.8051 6.68572 23.8273 6.68572 21.3768L 6.68572 8.50581C 6.68572 7.23676 5.69634 6.23704 4.52235 6.23704C 3.34712 6.23704 2.35898 7.23602 2.35898 8.50581L 2.35898 26.5961L 2.38241 26.6191L 2.36566 26.8497C 2.36429 26.8665 2.36354 26.8873 2.36266 26.9119C 2.3618 26.9359 2.36081 26.9635 2.35898 26.9942L 2.35898 28.3004C 2.69249 34.6293 7.99867 39.6906 14.5 39.6906C 21.079 39.6906 26.4355 34.5097 26.6526 28.0766L 26.6559 27.9798L 26.6677 27.9532ZM 1.85898 28.3135L 1.85898 26.9785C 1.86099 26.9515 1.86199 26.9238 1.863 26.896C 1.86399 26.8685 1.86499 26.8409 1.86698 26.8135C 1.86381 26.8104 1.86232 26.8073 1.86051 26.8035C 1.86004 26.8025 1.85954 26.8015 1.85898 26.8004L 1.85898 8.50581C 1.85898 6.97837 3.05284 5.73704 4.52235 5.73704C 5.99054 5.73704 7.18572 6.97903 7.18572 8.50581L 7.18572 21.3768C 7.18572 23.5432 8.97751 25.3051 11.1808 25.3051C 11.3783 25.3051 11.5719 25.2895 11.761 25.2604C 11.906 25.2382 12.0484 25.208 12.1879 25.1708C 12.2125 25.1643 12.237 25.1575 12.2614 25.1505C 12.2614 25.1537 12.2611 25.1566 12.2608 25.1598C 12.2605 25.1632 12.2601 25.1667 12.2601 25.1708C 12.2601 25.3366 12.2706 25.4999 12.291 25.6603C 12.5367 27.5965 14.2204 29.0991 16.2552 29.0991L 18.9924 29.0991L 18.9924 27.7897L 16.2552 27.7897C 14.787 27.7897 13.5918 26.6145 13.5918 25.1708C 13.5918 23.7259 14.787 22.552 16.2552 22.552L 24.5043 22.552C 25.9731 22.552 27.1677 23.7259 27.1677 25.1708C 27.1677 25.2776 27.1583 25.381 27.145 25.4844C 27.1493 25.491 27.1528 25.4977 27.1563 25.5044C 27.1598 25.5111 27.1633 25.5178 27.1677 25.5244L 27.1677 28.0463C 27.1655 28.0523 27.1637 28.0586 27.1619 28.0649C 27.1592 28.0746 27.1564 28.0844 27.1523 28.0935C 26.926 34.7997 21.3449 40.1906 14.5 40.1906C 7.73105 40.1906 2.1999 34.9169 1.85898 28.3135ZM 13.3441 13.2662C 13.3441 12.1054 12.3815 11.1474 11.1808 11.1474C 9.97943 11.1474 9.01741 12.1053 9.01741 13.2662L 9.01741 21.3774C 9.01741 22.5372 9.97959 23.4963 11.1808 23.4963C 11.5778 23.5016 11.9019 23.4112 12.2195 23.2308C 12.4778 22.7207 12.8513 22.2365 13.2773 21.8581C 13.322 21.6956 13.3462 21.5477 13.3441 21.3774L 13.3441 13.2662ZM 13.7143 22.1421C 13.2396 22.5284 12.8587 23.0221 12.605 23.5819C 12.1929 23.8405 11.7048 23.9963 11.1808 23.9963C 9.71126 23.9963 8.51741 22.8211 8.51741 21.3774L 8.51741 13.2662C 8.51741 11.8213 9.71126 10.6474 11.1808 10.6474C 12.6496 10.6474 13.8441 11.8213 13.8441 13.2662L 13.8441 21.3774C 13.8441 21.6446 13.7909 21.8992 13.7143 22.1421ZM 17.8465 11.1474C 16.6463 11.1474 15.6832 12.1055 15.6832 13.2662L 15.6832 20.7827C 15.8729 20.7578 16.0661 20.7439 16.2558 20.7432L 20.0099 20.7432L 20.0099 13.2662C 20.0099 12.1054 19.0473 11.1474 17.8465 11.1474ZM 20.5099 13.2662C 20.5099 11.8213 19.3154 10.6474 17.8465 10.6474C 16.3783 10.6474 15.1832 11.8213 15.1832 13.2662L 15.1832 21.3774C 15.1832 21.3794 15.1835 21.3817 15.1838 21.384C 15.1842 21.3863 15.1845 21.3886 15.1845 21.3905C 15.2008 21.3861 15.2171 21.3817 15.2335 21.3774C 15.3805 21.339 15.5305 21.308 15.6832 21.2856C 15.8702 21.258 16.0613 21.2432 16.2558 21.2432L 20.5099 21.2432L 20.5099 13.2662ZM 24.5049 2.30877C 23.3048 2.30877 22.3416 3.26688 22.3416 4.42761L 22.3416 20.7432L 24.5049 20.7432C 25.2681 20.7497 26.0212 20.9601 26.6683 21.3063L 26.6683 4.42761C 26.6683 3.2668 25.7057 2.30877 24.5049 2.30877ZM 27.1683 4.42761C 27.1683 2.98267 25.9738 1.80877 24.5049 1.80877C 23.0368 1.80877 21.8416 2.98267 21.8416 4.42761L 21.8416 21.2432L 24.5049 21.2432C 25.3029 21.2432 26.045 21.4761 26.6683 21.8741C 26.845 21.987 27.0121 22.113 27.1683 22.2508L 27.1683 4.42761Z"/>
</defs>
</svg>
