<svg width="63" height="132" viewBox="0 0 63 132" version="1.1" xmlns="http://www.w3.org/2000/svg" xmlns:xlink="http://www.w3.org/1999/xlink">
<title>Vector</title>
<desc>Created using Figma</desc>
<g id="Canvas" transform="translate(-3987 -5207)">
<g id="Vector">
<use xlink:href="#path0_fill" transform="matrix(1 0 0 1 3987.9 5207.67)" fill="#1740FF"/>
</g>
</g>
<defs>
<path id="path0_fill" d="M 30.9803 0C 22.8129 0.0747643 15.0383 3.38444 9.212 9.21078C 3.38567 15.0371 0.075989 22.8117 0.00122462 30.979C -0.0554931 37.175 1.85923 43.3529 5.47406 48.3887L 13.023 131.254L 25.1332 131.143L 26.1064 131.254L 33.1585 131.21L 44.4238 131.107L 54.8891 49.2036L 55.0312 49.0615C 59.3047 43.6718 61.4749 37.3157 61.5368 30.5565C 61.6116 22.3892 58.4437 14.6739 52.7231 8.95328C 46.8629 3.09312 39.2872 0.0647633 30.9803 0ZM 31.0476 8.02526C 37.2435 7.96854 42.7135 10.3122 47.0388 14.6375C 49.9689 17.5676 52.0464 21.3503 52.9947 25.425L 8.78084 25.5481C 9.80394 21.4554 11.8089 17.7761 14.9352 14.6498C 19.1984 10.3866 24.8517 8.08198 31.0476 8.02526ZM 8.28491 33.5785L 53.3462 33.166C 52.8941 36.4087 51.8788 39.6565 50.0237 42.3488L 11.4399 42.7019C 9.63379 40.0432 8.53561 36.9555 8.28491 33.5785ZM 20.2781 123.161L 13.7603 50.7066L 46.7114 50.4049L 37.3156 123.146L 20.2781 123.161Z"/>
</defs>
</svg>
