<svg width="51" height="39" viewBox="0 0 51 39" version="1.1" xmlns="http://www.w3.org/2000/svg" xmlns:xlink="http://www.w3.org/1999/xlink">
<title>electro</title>
<desc>Created using Figma</desc>
<g id="Canvas" transform="translate(1312 -5579)">
<g id="electro">
<g id="Vector">
<use xlink:href="#path0_fill" transform="translate(-1312 5579)" fill="#FFFFFF"/>
<use xlink:href="#path1_fill" transform="translate(-1312 5579)" fill="#FFFFFF"/>
<use xlink:href="#path2_fill" transform="translate(-1312 5579)" fill="#FFFFFF"/>
<use xlink:href="#path3_fill" transform="translate(-1312 5579)" fill="#FFFFFF"/>
<use xlink:href="#path4_fill" transform="translate(-1312 5579)" fill="#FFFFFF"/>
<use xlink:href="#path5_fill" transform="translate(-1312 5579)" fill="#FFFFFF"/>
<use xlink:href="#path6_fill" transform="translate(-1312 5579)" fill="#FFFFFF"/>
<use xlink:href="#path7_fill" transform="translate(-1312 5579)" fill="#FFFFFF"/>
<use xlink:href="#path8_fill" transform="translate(-1312 5579)" fill="#FFFFFF"/>
<use xlink:href="#path9_fill" transform="translate(-1312 5579)" fill="#FFFFFF"/>
<use xlink:href="#path10_fill" transform="translate(-1312 5579)" fill="#FFFFFF"/>
</g>
</g>
</g>
<defs>
<path id="path0_fill" d="M 22.1798 13.4514L 22.1798 25.5486C 22.1798 25.7309 22.2412 25.9057 22.3504 26.0346C 22.4597 26.1635 22.6078 26.2359 22.7623 26.2359C 22.9168 26.2359 23.065 26.1635 23.1742 26.0346C 23.2835 25.9057 23.3448 25.7309 23.3448 25.5486L 23.3448 13.4514C 23.3448 13.2691 23.2835 13.0943 23.1742 12.9654C 23.065 12.8365 22.9168 12.764 22.7623 12.764C 22.6078 12.764 22.4597 12.8365 22.3504 12.9654C 22.2412 13.0943 22.1798 13.2691 22.1798 13.4514Z"/>
<path id="path1_fill" d="M 16.7625 7.05956L 16.7625 31.9412C 16.7625 32.1235 16.8238 32.2984 16.9331 32.4273C 17.0423 32.5562 17.1905 32.6286 17.345 32.6286C 17.4995 32.6286 17.6476 32.5562 17.7569 32.4273C 17.8661 32.2984 17.9275 32.1235 17.9275 31.9412L 17.9275 7.05956C 17.9275 6.87726 17.8661 6.70243 17.7569 6.57353C 17.6476 6.44463 17.4995 6.37222 17.345 6.37222C 17.1905 6.37222 17.0423 6.44463 16.9331 6.57353C 16.8238 6.70243 16.7625 6.87726 16.7625 7.05956Z"/>
<path id="path2_fill" d="M 12.4519 37.9206L 12.4519 1.0792C 12.4519 0.89691 12.3905 0.722082 12.2812 0.593181C 12.172 0.464279 12.0238 0.391864 11.8693 0.391864C 11.7148 0.391864 11.5667 0.464279 11.4574 0.593181C 11.3482 0.722082 11.2868 0.89691 11.2868 1.0792L 11.2868 37.9206C 11.2868 38.1029 11.3482 38.2777 11.4574 38.4066C 11.5667 38.5355 11.7148 38.6079 11.8693 38.6079C 12.0238 38.6079 12.172 38.5355 12.2812 38.4066C 12.3905 38.2777 12.4519 38.1029 12.4519 37.9206Z"/>
<path id="path3_fill" d="M 7.0345 7.05956C 7.0345 6.87726 6.97313 6.70243 6.86389 6.57353C 6.75465 6.44463 6.60648 6.37222 6.45199 6.37222C 6.2975 6.37222 6.14934 6.44463 6.0401 6.57353C 5.93086 6.70243 5.86948 6.87726 5.86948 7.05956L 5.86948 31.9412C 5.86948 32.1235 5.93086 32.2984 6.0401 32.4273C 6.14934 32.5562 6.2975 32.6286 6.45199 32.6286C 6.60648 32.6286 6.75465 32.5562 6.86389 32.4273C 6.97313 32.2984 7.0345 32.1235 7.0345 31.9412L 7.0345 7.05956Z"/>
<path id="path4_fill" d="M 0.976357 12.3511C 0.821866 12.3511 0.673702 12.4235 0.56446 12.5525C 0.455218 12.6814 0.393847 12.8562 0.393847 13.0385L 0.393847 25.9605C 0.393847 26.1427 0.455218 26.3176 0.56446 26.4465C 0.673702 26.5754 0.821866 26.6478 0.976357 26.6478C 1.13085 26.6478 1.27901 26.5754 1.38825 26.4465C 1.4975 26.3176 1.55887 26.1427 1.55887 25.9605L 1.55887 13.0385C 1.55887 12.8562 1.4975 12.6814 1.38825 12.5525C 1.27901 12.4235 1.13085 12.3511 0.976357 12.3511Z"/>
<path id="path5_fill" d="M 39.1308 0.391864C 38.9763 0.391864 38.8282 0.464279 38.7189 0.593181C 38.6097 0.722082 38.5483 0.89691 38.5483 1.0792L 38.5483 37.9206C 38.5483 38.1029 38.6097 38.2777 38.7189 38.4066C 38.8282 38.5355 38.9763 38.6079 39.1308 38.6079C 39.2853 38.6079 39.4335 38.5355 39.5427 38.4066C 39.652 38.2777 39.7133 38.1029 39.7133 37.9206L 39.7133 1.0792C 39.7133 0.89691 39.652 0.722082 39.5427 0.593181C 39.4335 0.464279 39.2853 0.391864 39.1308 0.391864Z"/>
<path id="path6_fill" d="M 34.2377 31.9412L 34.2377 7.05956C 34.2377 6.87726 34.1763 6.70243 34.0671 6.57353C 33.9578 6.44463 33.8097 6.37222 33.6552 6.37222C 33.5007 6.37222 33.3525 6.44463 33.2433 6.57353C 33.1341 6.70243 33.0727 6.87726 33.0727 7.05956L 33.0727 31.9412C 33.0727 32.1235 33.1341 32.2984 33.2433 32.4273C 33.3525 32.5562 33.5007 32.6286 33.6552 32.6286C 33.8097 32.6286 33.9578 32.5562 34.0671 32.4273C 34.1763 32.2984 34.2377 32.1235 34.2377 31.9412Z"/>
<path id="path7_fill" d="M 27.6553 10.2897L 27.6553 28.7104C 27.6553 28.8927 27.7167 29.0675 27.8259 29.1964C 27.9352 29.3253 28.0834 29.3977 28.2378 29.3977C 28.3923 29.3977 28.5405 29.3253 28.6497 29.1964C 28.759 29.0675 28.8204 28.8927 28.8204 28.7104L 28.8204 10.2897C 28.8204 10.1074 28.759 9.93256 28.6497 9.80366C 28.5405 9.67476 28.3923 9.60234 28.2378 9.60234C 28.0834 9.60234 27.9352 9.67476 27.8259 9.80366C 27.7167 9.93256 27.6553 10.1074 27.6553 10.2897Z"/>
<path id="path8_fill" d="M 44.5482 6.37222C 44.3937 6.37222 44.2455 6.44463 44.1363 6.57353C 44.027 6.70243 43.9657 6.87726 43.9657 7.05956L 43.9657 31.9412C 43.9657 32.1235 44.027 32.2984 44.1363 32.4273C 44.2455 32.5562 44.3937 32.6286 44.5482 32.6286C 44.7027 32.6286 44.8508 32.5562 44.9601 32.4273C 45.0693 32.2984 45.1307 32.1235 45.1307 31.9412L 45.1307 7.05956C 45.1307 6.87726 45.0693 6.70243 44.9601 6.57353C 44.8508 6.44463 44.7027 6.37222 44.5482 6.37222Z"/>
<path id="path9_fill" d="M 50.0237 12.3511C 49.8692 12.3511 49.721 12.4235 49.6118 12.5525C 49.5025 12.6814 49.4412 12.8562 49.4412 13.0385L 49.4412 25.9605C 49.4412 26.1427 49.5025 26.3176 49.6118 26.4465C 49.721 26.5754 49.8692 26.6478 50.0237 26.6478C 50.1782 26.6478 50.3263 26.5754 50.4356 26.4465C 50.5448 26.3176 50.6062 26.1427 50.6062 25.9605L 50.6062 13.0385C 50.6062 12.8562 50.5448 12.6814 50.4356 12.5525C 50.3263 12.4235 50.1782 12.3511 50.0237 12.3511Z"/>
<path id="path10_fill" fill-rule="evenodd" d="M 21.786 25.5487L 21.786 13.4515C 21.786 13.1848 21.8752 12.9183 22.0494 12.7127C 22.2253 12.5052 22.4796 12.3722 22.7623 12.3722C 23.045 12.3722 23.2993 12.5052 23.4752 12.7127C 23.6494 12.9183 23.7386 13.1848 23.7386 13.4515L 23.7386 25.5487C 23.7386 25.8154 23.6494 26.0819 23.4752 26.2874C 23.2993 26.4949 23.045 26.628 22.7623 26.628C 22.4796 26.628 22.2253 26.4949 22.0494 26.2874C 21.8752 26.0819 21.786 25.8154 21.786 25.5487ZM 16.3686 31.9413L 16.3686 7.05965C 16.3686 6.79293 16.4578 6.52645 16.632 6.32091C 16.8079 6.11338 17.0623 5.98035 17.345 5.98035C 17.6276 5.98035 17.882 6.11338 18.0579 6.32091C 18.2321 6.52645 18.3213 6.79293 18.3213 7.05965L 18.3213 31.9413C 18.3213 32.2081 18.2321 32.4745 18.0579 32.6801C 17.882 32.8876 17.6276 33.0206 17.345 33.0206C 17.0623 33.0206 16.8079 32.8876 16.632 32.6801C 16.4578 32.4745 16.3686 32.2081 16.3686 31.9413ZM 12.8457 1.0793L 12.8457 37.9207C 12.8457 38.1874 12.7564 38.4539 12.5822 38.6594C 12.4064 38.867 12.152 39 11.8693 39C 11.5866 39 11.3323 38.867 11.1564 38.6594C 10.9822 38.4539 10.893 38.1874 10.893 37.9207L 10.893 1.0793C 10.893 0.812579 10.9822 0.546098 11.1564 0.340561C 11.3323 0.133023 11.5866 0 11.8693 0C 12.152 0 12.4064 0.133023 12.5822 0.340561C 12.7564 0.546097 12.8457 0.812577 12.8457 1.0793ZM 7.1649 6.32091C 7.33909 6.52645 7.4283 6.79293 7.4283 7.05965L 7.4283 31.9413C 7.4283 32.2081 7.33909 32.4745 7.1649 32.6801C 6.98902 32.8876 6.73465 33.0206 6.45197 33.0206C 6.16929 33.0206 5.91492 32.8876 5.73904 32.6801C 5.56485 32.4745 5.47564 32.2081 5.47564 31.9413L 5.47564 7.05965C 5.47564 6.79293 5.56485 6.52645 5.73904 6.32091C 5.91492 6.11338 6.16929 5.98035 6.45197 5.98035C 6.73464 5.98035 6.98902 6.11338 7.1649 6.32091ZM 0.2634 12.2998C 0.439282 12.0923 0.693656 11.9593 0.976333 11.9593C 1.25901 11.9593 1.51338 12.0923 1.68927 12.2998C 1.86346 12.5054 1.95267 12.7718 1.95267 13.0386L 1.95267 25.9606C 1.95267 26.2273 1.86346 26.4937 1.68927 26.6993C 1.51338 26.9068 1.25901 27.0398 0.976333 27.0398C 0.693657 27.0398 0.439283 26.9068 0.2634 26.6993C 0.0892106 26.4937 0 26.2273 0 25.9606L 0 13.0386C 0 12.7718 0.0892109 12.5054 0.2634 12.2998ZM 38.4179 0.340561C 38.5938 0.133023 38.8481 0 39.1308 0C 39.4135 0 39.6679 0.133023 39.8437 0.340561C 40.0179 0.546097 40.1071 0.812577 40.1071 1.0793L 40.1071 37.9207C 40.1071 38.1874 40.0179 38.4539 39.8437 38.6594C 39.6679 38.867 39.4135 39 39.1308 39C 38.8481 39 38.5938 38.867 38.4179 38.6594C 38.2437 38.4539 38.1545 38.1874 38.1545 37.9207L 38.1545 1.0793C 38.1545 0.812577 38.2437 0.546097 38.4179 0.340561ZM 34.6315 7.05965L 34.6315 31.9413C 34.6315 32.2081 34.5423 32.4745 34.3681 32.6801C 34.1922 32.8876 33.9378 33.0206 33.6552 33.0206C 33.3725 33.0206 33.1181 32.8876 32.9422 32.6801C 32.768 32.4745 32.6788 32.2081 32.6788 31.9413L 32.6788 7.05965C 32.6788 6.79293 32.768 6.52645 32.9422 6.32091C 33.1181 6.11338 33.3725 5.98035 33.6552 5.98035C 33.9378 5.98035 34.1922 6.11338 34.3681 6.32091C 34.5423 6.52645 34.6315 6.79293 34.6315 7.05965ZM 27.2615 28.7105L 27.2615 10.2898C 27.2615 10.0231 27.3507 9.75658 27.5249 9.55104C 27.7008 9.34351 27.9551 9.21048 28.2378 9.21048C 28.5205 9.21048 28.7749 9.34351 28.9508 9.55104C 29.1249 9.75658 29.2141 10.0231 29.2141 10.2898L 29.2141 28.7105C 29.2141 28.9772 29.1249 29.2437 28.9508 29.4492C 28.7749 29.6568 28.5205 29.7898 28.2378 29.7898C 27.9551 29.7898 27.7008 29.6568 27.5249 29.4492C 27.3507 29.2437 27.2615 28.9772 27.2615 28.7105ZM 43.8352 6.32091C 44.0111 6.11338 44.2655 5.98035 44.5481 5.98035C 44.8308 5.98035 45.0852 6.11338 45.2611 6.32091C 45.4353 6.52645 45.5245 6.79293 45.5245 7.05965L 45.5245 31.9413C 45.5245 32.2081 45.4353 32.4745 45.2611 32.6801C 45.0852 32.8876 44.8308 33.0206 44.5481 33.0206C 44.2655 33.0206 44.0111 32.8876 43.8352 32.6801C 43.661 32.4745 43.5718 32.2081 43.5718 31.9413L 43.5718 7.05965C 43.5718 6.79293 43.661 6.52645 43.8352 6.32091ZM 49.3107 12.2998C 49.4866 12.0923 49.741 11.9593 50.0237 11.9593C 50.3063 11.9593 50.5607 12.0923 50.7366 12.2998C 50.9108 12.5054 51 12.7718 51 13.0386L 51 25.9606C 51 26.2273 50.9108 26.4937 50.7366 26.6993C 50.5607 26.9068 50.3063 27.0398 50.0237 27.0398C 49.741 27.0398 49.4866 26.9068 49.3107 26.6993C 49.1365 26.4937 49.0473 26.2273 49.0473 25.9606L 49.0473 13.0386C 49.0473 12.7718 49.1365 12.5054 49.3107 12.2998ZM 12.4519 37.9206L 12.4519 1.0792C 12.4519 0.89691 12.3905 0.722082 12.2812 0.593181C 12.172 0.464279 12.0238 0.391864 11.8693 0.391864C 11.7148 0.391864 11.5667 0.464279 11.4574 0.593181C 11.3482 0.722082 11.2868 0.89691 11.2868 1.0792L 11.2868 37.9206C 11.2868 38.1029 11.3482 38.2777 11.4574 38.4066C 11.5667 38.5355 11.7148 38.6079 11.8693 38.6079C 12.0238 38.6079 12.172 38.5355 12.2812 38.4066C 12.3905 38.2777 12.4519 38.1029 12.4519 37.9206ZM 16.7625 31.9412L 16.7625 7.05956C 16.7625 6.87726 16.8238 6.70243 16.9331 6.57353C 17.0423 6.44463 17.1905 6.37222 17.345 6.37222C 17.4995 6.37222 17.6476 6.44463 17.7569 6.57353C 17.8661 6.70243 17.9275 6.87726 17.9275 7.05956L 17.9275 31.9412C 17.9275 32.1235 17.8661 32.2984 17.7569 32.4273C 17.6476 32.5562 17.4995 32.6286 17.345 32.6286C 17.1905 32.6286 17.0423 32.5562 16.9331 32.4273C 16.8238 32.2984 16.7625 32.1235 16.7625 31.9412ZM 22.1798 25.5486L 22.1798 13.4514C 22.1798 13.2691 22.2412 13.0943 22.3504 12.9654C 22.4597 12.8365 22.6078 12.764 22.7623 12.764C 22.9168 12.764 23.065 12.8365 23.1742 12.9654C 23.2835 13.0943 23.3448 13.2691 23.3448 13.4514L 23.3448 25.5486C 23.3448 25.7309 23.2835 25.9057 23.1742 26.0346C 23.065 26.1635 22.9168 26.2359 22.7623 26.2359C 22.6078 26.2359 22.4597 26.1635 22.3504 26.0346C 22.2412 25.9057 22.1798 25.7309 22.1798 25.5486ZM 6.86389 6.57353C 6.97313 6.70243 7.0345 6.87726 7.0345 7.05956L 7.0345 31.9412C 7.0345 32.1235 6.97313 32.2984 6.86389 32.4273C 6.75465 32.5562 6.60648 32.6286 6.45199 32.6286C 6.2975 32.6286 6.14934 32.5562 6.0401 32.4273C 5.93086 32.2984 5.86948 32.1235 5.86948 31.9412L 5.86948 7.05956C 5.86948 6.87726 5.93086 6.70243 6.0401 6.57353C 6.14934 6.44463 6.2975 6.37222 6.45199 6.37222C 6.60648 6.37222 6.75465 6.44463 6.86389 6.57353ZM 0.976357 12.3511C 0.821866 12.3511 0.673702 12.4235 0.56446 12.5525C 0.455218 12.6814 0.393847 12.8562 0.393847 13.0385L 0.393847 25.9605C 0.393847 26.1427 0.455218 26.3176 0.56446 26.4465C 0.673702 26.5754 0.821866 26.6478 0.976357 26.6478C 1.13085 26.6478 1.27901 26.5754 1.38825 26.4465C 1.4975 26.3176 1.55887 26.1427 1.55887 25.9605L 1.55887 13.0385C 1.55887 12.8562 1.4975 12.6814 1.38825 12.5525C 1.27901 12.4235 1.13085 12.3511 0.976357 12.3511ZM 38.7189 0.593181C 38.8282 0.464279 38.9763 0.391864 39.1308 0.391864C 39.2853 0.391864 39.4335 0.464279 39.5427 0.593181C 39.652 0.722082 39.7133 0.89691 39.7133 1.0792L 39.7133 37.9206C 39.7133 38.1029 39.652 38.2777 39.5427 38.4066C 39.4335 38.5355 39.2853 38.6079 39.1308 38.6079C 38.9763 38.6079 38.8282 38.5355 38.7189 38.4066C 38.6097 38.2777 38.5483 38.1029 38.5483 37.9206L 38.5483 1.0792C 38.5483 0.89691 38.6097 0.722082 38.7189 0.593181ZM 34.2377 31.9412L 34.2377 7.05956C 34.2377 6.87726 34.1763 6.70243 34.0671 6.57353C 33.9578 6.44463 33.8097 6.37222 33.6552 6.37222C 33.5007 6.37222 33.3525 6.44463 33.2433 6.57353C 33.1341 6.70243 33.0727 6.87726 33.0727 7.05956L 33.0727 31.9412C 33.0727 32.1235 33.1341 32.2984 33.2433 32.4273C 33.3525 32.5562 33.5007 32.6286 33.6552 32.6286C 33.8097 32.6286 33.9578 32.5562 34.0671 32.4273C 34.1763 32.2984 34.2377 32.1235 34.2377 31.9412ZM 27.6553 28.7104L 27.6553 10.2897C 27.6553 10.1074 27.7167 9.93256 27.8259 9.80366C 27.9352 9.67476 28.0834 9.60234 28.2378 9.60234C 28.3923 9.60234 28.5405 9.67476 28.6497 9.80366C 28.759 9.93256 28.8204 10.1074 28.8204 10.2897L 28.8204 28.7104C 28.8204 28.8927 28.759 29.0675 28.6497 29.1964C 28.5405 29.3253 28.3923 29.3977 28.2378 29.3977C 28.0834 29.3977 27.9352 29.3253 27.8259 29.1964C 27.7167 29.0675 27.6553 28.8927 27.6553 28.7104ZM 44.5482 6.37222C 44.3937 6.37222 44.2455 6.44463 44.1363 6.57353C 44.027 6.70243 43.9657 6.87726 43.9657 7.05956L 43.9657 31.9412C 43.9657 32.1235 44.027 32.2984 44.1363 32.4273C 44.2455 32.5562 44.3937 32.6286 44.5482 32.6286C 44.7027 32.6286 44.8508 32.5562 44.9601 32.4273C 45.0693 32.2984 45.1307 32.1235 45.1307 31.9412L 45.1307 7.05956C 45.1307 6.87726 45.0693 6.70243 44.9601 6.57353C 44.8508 6.44463 44.7027 6.37222 44.5482 6.37222ZM 49.6118 12.5525C 49.721 12.4235 49.8692 12.3511 50.0237 12.3511C 50.1782 12.3511 50.3263 12.4235 50.4356 12.5525C 50.5448 12.6814 50.6062 12.8562 50.6062 13.0385L 50.6062 25.9605C 50.6062 26.1427 50.5448 26.3176 50.4356 26.4465C 50.3263 26.5754 50.1782 26.6478 50.0237 26.6478C 49.8692 26.6478 49.721 26.5754 49.6118 26.4465C 49.5025 26.3176 49.4412 26.1427 49.4412 25.9605L 49.4412 13.0385C 49.4412 12.8562 49.5025 12.6814 49.6118 12.5525Z"/>
</defs>
</svg>
