<svg width="18" height="39" viewBox="0 0 18 39" version="1.1" xmlns="http://www.w3.org/2000/svg" xmlns:xlink="http://www.w3.org/1999/xlink">
<title>pop</title>
<desc>Created using Figma</desc>
<g id="Canvas" transform="translate(1238 -5579)">
<g id="pop">
<g id="Subtract">
<use xlink:href="#path0_fill" transform="translate(-1238 5579)" fill="#FFFFFF"/>
<use xlink:href="#path1_fill" transform="translate(-1238 5579)" fill="#FFFFFF"/>
<use xlink:href="#path2_fill" transform="translate(-1238 5579)" fill="#FFFFFF"/>
<use xlink:href="#path3_fill" transform="translate(-1238 5579)" fill="#FFFFFF"/>
</g>
</g>
</g>
<defs>
<path id="path0_fill" d="M 2.27399 9.87876C 2.27899 9.94635 2.2851 10.0134 2.29234 10.0805C 2.29871 10.1388 2.30595 10.197 2.31394 10.2547C 2.29671 10.1309 2.28336 10.0056 2.27399 9.87876Z"/>
<path id="path1_fill" d="M 15.7234 9.95721C 15.7343 9.88962 15.7446 9.82203 15.7539 9.75444C 15.7445 9.82302 15.7346 9.88863 15.7234 9.95721Z"/>
<path id="path2_fill" d="M 9.48843 21.3836L 9.45285 25.284L 7.47908 25.3018L 7.51466 21.4014L 9.48843 21.3836Z"/>
<path id="path3_fill" fill-rule="evenodd" d="M 3.87823 38.9985L 1.63192 14.2528L 1.60021 14.2084C 0.535425 12.7239 -0.0185045 10.9291 0.000471689 9.09977C 0.0224441 6.70112 0.990978 4.41693 2.69709 2.70452C 4.40269 0.993106 6.67647 0.0222006 9.06334 0C 11.4955 0.0192405 13.7086 0.90825 15.4217 2.62756C 17.0945 4.30642 18.0215 6.57088 17.9996 8.96953C 17.9839 10.9631 17.3587 12.8058 16.104 14.3934L 16.0211 14.4763L 12.9041 38.9576L 9.7129 38.9872L 7.61641 39L 7.32503 38.9665L 3.87823 38.9985ZM 2.16126 7.67055L 15.9053 7.63206L 15.8482 7.38539C 15.5564 6.13624 14.9081 4.95172 14.0129 4.05037C 12.6819 2.71488 10.993 1.9872 9.08145 2.00496C 7.17571 2.02272 5.43228 2.73462 4.11768 4.05383C 3.1635 5.01437 2.53754 6.16633 2.22368 7.41943L 2.16126 7.67055ZM 15.9888 9.55069L 2.05414 9.67846L 2.07 9.89307C 2.14877 10.9335 2.49447 11.9094 3.04777 12.7298L 3.10919 12.8206L 14.8691 12.7125L 14.9292 12.6247C 15.4994 11.7905 15.8184 10.7717 15.9566 9.78207L 15.9888 9.55069ZM 3.68872 14.8206L 5.67447 36.9748L 11.1386 36.9699L 14.0016 14.7259L 3.68872 14.8206Z"/>
</defs>
</svg>
