<svg width="66" height="39" viewBox="0 0 66 39" version="1.1" xmlns="http://www.w3.org/2000/svg" xmlns:xlink="http://www.w3.org/1999/xlink">
<title>rap</title>
<desc>Created using Figma</desc>
<g id="Canvas" transform="translate(1141 -5579)">
<g id="rap">
<g id="Vector">
<use xlink:href="#path0_fill" transform="translate(-1141 5579)" fill="#FFFFFF"/>
<use xlink:href="#path1_fill" transform="translate(-1141 5579)" fill="#FFFFFF"/>
<use xlink:href="#path2_fill" transform="translate(-1141 5579)" fill="#FFFFFF"/>
<use xlink:href="#path3_fill" transform="translate(-1141 5579)" fill="#FFFFFF"/>
<use xlink:href="#path4_fill" transform="translate(-1141 5579)" fill="#FFFFFF"/>
<use xlink:href="#path5_fill" transform="translate(-1141 5579)" fill="#FFFFFF"/>
<use xlink:href="#path6_fill" transform="translate(-1141 5579)" fill="#FFFFFF"/>
<use xlink:href="#path7_fill" transform="translate(-1141 5579)" fill="#FFFFFF"/>
</g>
</g>
</g>
<defs>
<path id="path0_fill" fill-rule="evenodd" d="M 11.636 22.1709C 14.4214 22.1709 16.6916 24.458 16.6916 27.2674C 16.6916 30.0762 14.4214 32.3639 11.636 32.3639C 8.85042 32.3639 6.58293 30.0762 6.58293 27.2674C 6.58293 24.458 8.85042 22.1709 11.636 22.1709ZM 11.6331 24.1969C 9.95509 24.1969 8.58925 25.5746 8.58925 27.2674C 8.58925 28.9597 9.95215 30.3373 11.6331 30.3373C 13.314 30.3373 14.6797 28.9602 14.6797 27.2674C 14.6797 25.5746 13.3112 24.1969 11.6331 24.1969Z"/>
<path id="path1_fill" fill-rule="evenodd" d="M 54.3629 32.3398C 51.5774 32.3398 49.3072 30.0527 49.3072 27.2433C 49.3072 24.4345 51.5774 22.1498 54.3629 22.1498C 57.1485 22.1498 59.4187 24.4345 59.4187 27.2433C 59.4187 30.0527 57.1485 32.3398 54.3629 32.3398ZM 54.3629 30.3138C 56.0438 30.3138 57.4095 28.9361 57.4095 27.2433C 57.4095 25.5506 56.0437 24.1758 54.3629 24.1758C 52.6823 24.1758 51.3164 25.5506 51.3164 27.2433C 51.3164 28.9361 52.6822 30.3138 54.3629 30.3138Z"/>
<path id="path2_fill" d="M 47.5563 36.8704L 47.4192 36.7698C 47.0965 36.5298 46.7863 36.2741 46.4896 36.0031C 46.828 36.3118 47.1842 36.6019 47.5563 36.8704Z"/>
<path id="path3_fill" d="M 7.73719 16.1576L 7.83832 16.1218C 7.95819 16.0796 8.0788 16.0393 8.20001 16.0006C 8.04464 16.0501 7.89036 16.1027 7.73719 16.1576Z"/>
<path id="path4_fill" d="M 58.0532 16.0938C 58.0189 16.082 57.986 16.0713 57.9516 16.06L 58.0532 16.0938Z"/>
<path id="path5_fill" fill-rule="evenodd" d="M 60.1818 16.2273L 60.1818 17.1657L 60.2309 17.1952C 63.6647 19.2384 66 22.966 66 27.2664C 66 33.7347 60.7752 38.9975 54.362 39L 11.4448 39C 11.4228 39.0005 11.4048 38.996 11.3763 38.9882L 11.3562 38.9828L 11.3412 38.9784C 11.3208 38.9725 11.2985 38.9661 11.2748 38.9617L 11.2606 38.9612C 5.02193 38.757 0 33.6075 0 27.2689C 0 23.046 2.24521 19.3709 5.57475 17.3027L 5.62226 17.2732L 5.62226 16.2298C 5.62226 12.403 9.00127 9.27318 13.169 9.27318L 15.0267 9.27318L 15.0267 1.01154C 15.0267 0.454481 15.4763 0 16.0299 0L 49.7715 0C 50.3226 0 50.7747 0.452027 50.7747 1.01154L 50.7747 9.27072L 52.635 9.27072C 56.8029 9.27072 60.1818 12.4001 60.1818 16.2273ZM 48.7655 2.02357L 17.0357 2.02357L 17.0357 9.27072L 48.7655 9.27072L 48.7655 2.02357ZM 18.3768 36.7889L 18.1246 36.971L 47.8671 36.971L 47.615 36.7889C 44.6629 34.6574 42.7212 31.1943 42.7212 27.2664C 42.7212 20.7977 47.9432 15.5353 54.3593 15.5353C 55.6453 15.5348 56.8568 15.7959 58.0211 16.189L 58.158 16.2352L 58.1534 16.0904C 58.0686 13.4263 55.6222 11.2967 52.6295 11.2967L 13.169 11.2967C 10.1515 11.2967 7.68209 13.4602 7.63691 16.1562L 7.63446 16.3014L 7.77098 16.2524C 8.98964 15.8151 10.2721 15.5348 11.6325 15.5353C 18.0485 15.5353 23.2705 20.7977 23.2705 27.2664C 23.2705 31.1943 21.3288 34.6574 18.3768 36.7889ZM 54.362 36.971C 59.6732 36.971 63.9909 32.6181 63.9909 27.2664C 63.9909 21.9142 59.6732 17.5613 54.362 17.5613C 49.0507 17.5613 44.7332 21.9142 44.7332 27.2664C 44.7332 32.6181 49.0507 36.971 54.362 36.971ZM 11.6325 17.5613C 6.32397 17.5613 2.00632 21.9142 2.00632 27.2664C 2.00632 32.6181 6.32397 36.971 11.6325 36.971C 16.9438 36.971 21.2613 32.6181 21.2613 27.2664C 21.2613 21.9142 16.9438 17.5613 11.6325 17.5613Z"/>
<path id="path6_fill" fill-rule="evenodd" d="M 38.3181 24.9356C 38.8722 24.9356 39.3238 25.3906 39.3214 25.9466L 39.3214 30.891C 39.3214 31.448 38.8717 31.903 38.3181 31.903L 27.4819 31.903C 26.9308 31.903 26.4788 31.4505 26.4788 30.891L 26.4788 25.9471C 26.4788 25.3901 26.9284 24.9356 27.4819 24.9356L 38.3181 24.9356ZM 28.4879 26.9592L 28.4879 29.8794L 37.2147 29.8794L 37.2147 29.7788L 37.315 29.7788L 37.315 26.9592L 28.4879 26.9592Z"/>
<path id="path7_fill" fill-rule="evenodd" d="M 40.6189 13.7036C 42.373 13.7036 43.8209 15.3262 43.8209 17.3459C 43.8209 19.3655 42.3731 20.9851 40.6216 20.9881L 25.184 20.9881C 23.4299 20.9881 21.9821 19.3655 21.9821 17.3459C 21.9821 15.3262 23.4299 13.7036 25.184 13.7036L 40.6189 13.7036ZM 33.9743 15.7297L 31.826 15.7297L 31.826 18.9616L 33.9743 18.9616L 33.9743 15.7297ZM 27.6687 18.9616L 29.8169 18.9616L 29.8169 15.7297L 27.6687 15.7297L 27.6687 18.9616ZM 38.1343 15.7297L 35.9833 15.7297L 35.9833 18.9616L 38.1343 18.9616L 38.1343 15.7297ZM 25.6595 18.9616L 25.6595 15.7297L 25.1813 15.7297C 24.8447 15.7297 24.5445 15.927 24.3324 16.2205C 24.1198 16.5149 23.9884 16.9144 23.9884 17.3459C 23.9884 17.7758 24.1198 18.1753 24.3328 18.4698C 24.5451 18.7638 24.846 18.9616 25.184 18.9616L 25.6595 18.9616ZM 40.1407 15.7297L 40.1407 18.9616L 40.6189 18.9616C 40.9568 18.9616 41.2571 18.7648 41.4689 18.4708C 41.6811 18.1768 41.8117 17.7768 41.8117 17.3459C 41.8117 16.9144 41.6811 16.5149 41.4689 16.2205C 41.2571 15.927 40.9568 15.7297 40.6189 15.7297L 40.1407 15.7297Z"/>
</defs>
</svg>
