<svg width="28" height="40" viewBox="0 0 28 40" version="1.1" xmlns="http://www.w3.org/2000/svg" xmlns:xlink="http://www.w3.org/1999/xlink">
<title>rock</title>
<desc>Created using Figma</desc>
<g id="Canvas" transform="translate(1358 -5579)">
<g id="rock">
<g id="Vector">
<use xlink:href="#path0_fill" transform="translate(-1358 5579.02)" fill="#FFFFFF"/>
<use xlink:href="#path1_fill" transform="translate(-1358 5579.02)" fill="#FFFFFF"/>
<use xlink:href="#path2_fill" transform="translate(-1358 5579.02)" fill="#FFFFFF"/>
<use xlink:href="#path3_fill" transform="translate(-1358 5579.02)" fill="#FFFFFF"/>
<use xlink:href="#path4_fill" transform="translate(-1358 5579.02)" fill="#FFFFFF"/>
</g>
</g>
</g>
<defs>
<path id="path0_fill" d="M 27.0588 0L 0.941176 0C 0.423529 0 0 0.429095 0 0.953545L 0 34.8044C 0 35.3288 0.423529 35.7579 0.941176 35.7579L 2.58824 35.7579L 2.58824 38.0465C 2.58824 38.5709 3.01176 39 3.52941 39L 9.27059 39C 9.78824 39 10.2118 38.5709 10.2118 38.0465L 10.2118 35.7579L 17.7412 35.7579L 17.7412 38.0465C 17.7412 38.5709 18.1647 39 18.6824 39L 24.4706 39C 24.9882 39 25.4118 38.5709 25.4118 38.0465L 25.4118 35.7579L 27.0588 35.7579C 27.5765 35.7579 28 35.3288 28 34.8044L 28 0.953545C 28 0.429095 27.5765 0 27.0588 0ZM 8.32941 37.0929L 4.42353 37.0929L 4.42353 35.9963L 8.32941 35.9963L 8.32941 37.0929ZM 23.5294 37.0929L 19.6235 37.0929L 19.6235 35.9963L 23.5294 35.9963L 23.5294 37.0929ZM 26.1176 33.8509L 1.88235 33.8509L 1.88235 1.90709L 26.1176 1.90709L 26.1176 33.8509Z"/>
<path id="path1_fill" d="M 13.9765 16.3535C 17.3176 16.3535 20.0471 13.5882 20.0471 10.2031C 20.0471 6.81802 17.3176 4.05273 13.9765 4.05273C 10.6353 4.05273 7.90588 6.81802 7.90588 10.2031C 7.90588 13.5882 10.6353 16.3535 13.9765 16.3535ZM 13.9765 5.95983C 16.2824 5.95983 18.1647 7.86691 18.1647 10.2031C 18.1647 12.5393 16.2824 14.4464 13.9765 14.4464C 11.6706 14.4464 9.78824 12.5393 9.78824 10.2031C 9.78824 7.86691 11.6706 5.95983 13.9765 5.95983Z"/>
<path id="path2_fill" d="M 13.9765 32.3252C 18.2118 32.3252 21.6471 28.8447 21.6471 24.5538C 21.6471 20.2628 18.2118 16.8301 13.9765 16.8301C 9.7412 16.8301 6.30591 20.3105 6.30591 24.6015C 6.30591 28.8924 9.7412 32.3252 13.9765 32.3252ZM 13.9765 18.7372C 17.1765 18.7372 19.7647 21.3594 19.7647 24.6015C 19.7647 27.8435 17.1765 30.4181 13.9765 30.4181C 10.7765 30.4181 8.18826 27.7958 8.18826 24.5538C 8.18826 21.3117 10.7765 18.7372 13.9765 18.7372Z"/>
<path id="path3_fill" d="M 13.9765 28.3681C 16.0471 28.3681 17.7412 26.6517 17.7412 24.5539C 17.7412 22.4561 16.0471 20.7397 13.9765 20.7397C 11.9059 20.7397 10.2118 22.4561 10.2118 24.5539C 10.2118 26.6517 11.9059 28.3681 13.9765 28.3681ZM 13.9765 22.6468C 15.0118 22.6468 15.8589 23.505 15.8589 24.5539C 15.8589 25.6028 15.0118 26.461 13.9765 26.461C 12.9412 26.461 12.0941 25.6028 12.0941 24.5539C 12.0941 23.505 12.9412 22.6468 13.9765 22.6468Z"/>
<path id="path4_fill" d="M 13.9765 11.1565C 14.2118 11.1565 14.447 11.0611 14.6353 10.8704C 14.8235 10.6797 14.9176 10.4413 14.9176 10.2029C 14.9176 9.96456 14.8235 9.72617 14.6353 9.53546C 14.3059 9.20172 13.647 9.20172 13.3176 9.53546C 13.1294 9.72617 13.0353 9.96456 13.0353 10.2029C 13.0353 10.4413 13.1294 10.6797 13.3176 10.8704C 13.5059 11.0611 13.7412 11.1565 13.9765 11.1565Z"/>
</defs>
</svg>
